<?xml version="1.0" encoding="UTF-8"?>
<svg xmlns="http://www.w3.org/2000/svg" xmlns:xlink="http://www.w3.org/1999/xlink" version="1.2" >
<font id="Maiah Bold">
<font-face  font-family="Maiah" units-per-em="1024" ascent="936" descent="-280" font-style="normal" font-weight="700" font-stretch="normal" cap-height="929" x-height="468" underline-position="-125" underline-thickness="50" />
<missing-glyph  horiz-adv-x="100" d="" />
<glyph glyph-name="NULL" d="" />
<glyph glyph-name="CR" unicode="&#xd;" horiz-adv-x="256" d="" />
<glyph glyph-name="space" unicode="&#x20;" horiz-adv-x="250" d="" />
<glyph glyph-name="exclam" unicode="&#x21;" horiz-adv-x="265" d="M143 -5 C191 -5 223 27 223 75 C223 123 191 155 143 155 C95 155 63 123 63 75 C63 27 95 -5 143 -5 L143 -5 Z M205 583 C213 632 185 665 135 665 C83 665 55 632 65 583 C65 477 135 230 135 230 L151 230 C151 230 205 477 205 583 L205 583 Z " />
<glyph glyph-name="quotedbl" unicode="&#x22;" horiz-adv-x="403" d="M216 660 L280 400 L299 400 L363 660 L216 660 L216 660 Z M39 660 L103 400 L122 400 L186 660 L39 660 L39 660 Z " />
<glyph glyph-name="numbersign" unicode="&#x23;" horiz-adv-x="554" d="M390 656 L367 504 L236 504 L259 656 L215 656 L192 504 L71 504 L59 416 L178 416 L152 244 L28 244 L16 156 L139 156 L115 0 L159 0 L183 156 L314 156 L290 0 L334 0 L358 156 L473 156 L485 244 L371 244 L397 416 L521 416 L534 504 L411 504 L434 656 L390 656 L390 656 Z M222 416 L353 416 L327 244 L196 244 L222 416 L222 416 Z " />
<glyph glyph-name="dollar" unicode="&#x24;" horiz-adv-x="509" d="M34 204 L34 108 C44 50 105 9 192 -2 L192 -75 L230 -75 L230 -5 C244 -5 258 -5 271 -4 L271 -75 L309 -75 L309 3 C403 25 462 94 462 189 C462 267 402 340 309 375 L309 623 C338 612 365 574 382 529 C391 507 401 478 410 456 L423 456 L423 552 C414 606 370 645 309 659 L309 735 L271 735 L271 665 C257 666 242 666 229 665 L229 736 L191 736 L191 659 C97 636 37 562 37 461 C37 386 99 315 191 282 L191 32 C140 43 87 98 58 172 C54 182 49 194 45 204 L34 204 L34 204 Z M229 407 L229 633 C242 635 257 635 271 633 L271 389 C256 395 242 401 229 407 L229 407 Z M191 428 C149 455 125 484 125 511 C125 563 150 603 191 622 L191 428 L191 428 Z M229 268 C244 262 258 255 271 248 L271 29 C258 27 244 26 229 27 L229 268 L229 268 Z M309 225 C348 197 371 166 371 137 C371 93 348 59 309 41 L309 225 L309 225 Z " />
<glyph glyph-name="percent" unicode="&#x25;" horiz-adv-x="806" d="M143 552 C143 635 154 691 171 691 C208 691 233 617 233 506 C233 432 219 383 197 383 C165 383 143 451 143 552 L143 552 Z M31 530 C31 419 93 345 187 345 C279 345 341 425 341 545 C341 653 279 725 187 725 C93 725 31 647 31 530 L31 530 Z M574 200 C574 285 588 341 610 341 C656 341 686 266 686 154 C686 81 666 32 636 32 C599 32 574 99 574 200 L574 200 Z M461 178 C461 68 527 -5 626 -5 C727 -5 794 75 794 194 C794 303 727 375 626 375 C527 375 461 296 461 178 L461 178 Z M212 -16 L677 704 L626 736 L161 16 L212 -16 L212 -16 Z " />
<glyph glyph-name="ampersand" unicode="&#x26;" horiz-adv-x="730" d="M609 300 L478 300 L478 285 L486 285 C513 285 531 259 531 220 L531 190 C531 171 527 154 519 138 C461 198 369 307 320 378 C408 405 465 470 465 547 C465 617 403 663 310 663 C217 663 155 596 155 495 C155 457 175 407 210 350 C112 303 50 229 50 152 C50 57 132 -7 254 -7 C345 -7 421 13 474 47 C567 -19 643 -18 730 -3 L730 16 C685 8 639 16 539 116 C550 138 556 162 556 188 L556 218 C556 257 574 283 601 283 L609 283 L609 300 L609 300 Z M243 546 C243 601 267 638 302 638 C346 638 376 599 376 540 C376 474 350 421 308 396 C267 458 243 510 243 546 L243 546 Z M446 69 C412 53 369 44 319 44 C224 44 160 105 160 196 C160 247 185 294 226 326 C277 248 375 127 446 69 L446 69 Z " />
<glyph glyph-name="quotesingle" unicode="&#x27;" horiz-adv-x="226" d="M39 660 L103 400 L122 400 L186 660 L39 660 L39 660 Z " />
<glyph glyph-name="parenleft" unicode="&#x28;" horiz-adv-x="279" d="M257 690 C138 603 59 485 59 270 C59 55 138 -63 257 -150 L269 -135 C197 -82 149 22 149 270 C149 518 197 622 269 675 L257 690 L257 690 Z " />
<glyph glyph-name="parenright" unicode="&#x29;" horiz-adv-x="279" d="M10 -150 C129 -63 208 55 208 270 C208 485 129 603 10 690 L-2 675 C70 622 118 518 118 270 C118 22 70 -82 -2 -135 L10 -150 L10 -150 Z " />
<glyph glyph-name="asterisk" unicode="&#x2a;" horiz-adv-x="300" d="M271 570 C293 575 298 594 284 618 C271 641 252 646 236 630 L156 550 L185 660 C191 681 177 695 150 695 C123 695 109 681 115 660 L144 551 L64 630 C48 646 29 641 16 618 C2 594 7 575 29 570 L138 540 L29 510 C7 505 2 486 16 463 C29 439 48 434 64 450 L144 529 L115 420 C109 399 123 385 150 385 C177 385 191 399 185 420 L156 530 L236 450 C252 434 271 439 284 463 C298 486 293 505 271 510 L163 540 L271 570 L271 570 Z " />
<glyph glyph-name="plus" unicode="&#x2b;" horiz-adv-x="555" d="M247 450 L247 276 L75 276 L75 224 L247 224 L247 50 L303 50 L303 224 L475 224 L475 276 L303 276 L303 450 L247 450 L247 450 Z " />
<glyph glyph-name="comma" unicode="&#x2c;" horiz-adv-x="283" d="M139 154 C92 154 60 122 60 74 C60 27 92 -5 139 -5 C150 -5 159 -1 166 5 C177 -70 137 -138 88 -157 L88 -175 C175 -142 233 -56 233 41 C233 96 199 153 139 153 L139 154 L139 154 Z " />
<glyph glyph-name="hyphen" unicode="&#x2d;" horiz-adv-x="280" d="M20 190 L260 190 L260 280 L20 280 L20 190 L20 190 Z " />
<glyph glyph-name="period" unicode="&#x2e;" horiz-adv-x="265" d="M125 -5 C173 -5 205 27 205 75 C205 123 173 155 125 155 C77 155 45 123 45 75 C45 27 77 -5 125 -5 L125 -5 Z " />
<glyph glyph-name="slash" unicode="&#x2f;" horiz-adv-x="361" d="M0 -145 L51 -145 L361 710 L310 710 L0 -145 L0 -145 Z " />
<glyph glyph-name="zero" unicode="0" horiz-adv-x="617" d="M178 250 C178 387 230 479 309 479 C387 479 439 387 439 250 C439 113 387 21 309 21 C230 21 178 113 178 250 L178 250 Z M50 250 C50 97 154 -5 309 -5 C464 -5 567 97 567 250 C567 403 464 505 309 505 C154 505 50 403 50 250 L50 250 Z " />
<glyph glyph-name="one" unicode="1" horiz-adv-x="331" d="M276 15 L268 15 C241 15 223 41 223 80 L223 420 C223 459 241 485 268 485 L276 485 L276 500 L55 500 L55 485 L63 485 C90 485 108 459 108 420 L108 80 C108 41 90 15 63 15 L55 15 L55 0 L276 0 L276 15 L276 15 Z " />
<glyph glyph-name="two" unicode="2" horiz-adv-x="487" d="M445 168 L444 160 C442 133 414 115 375 115 L206 115 C352 208 442 274 442 355 C442 445 375 505 274 505 C186 505 104 447 69 359 L84 350 C101 392 154 420 217 420 C275 420 314 378 314 316 C314 181 198 139 25 26 L25 0 L445 0 L450 56 C451 56 459 160 460 168 L445 168 L445 168 Z " />
<glyph glyph-name="three" unicode="3" horiz-adv-x="471" d="M149 164 C240 164 300 112 300 35 C300 -95 189 -187 23 -196 L24 -215 C262 -203 421 -100 421 41 C421 130 350 193 240 207 C334 256 391 316 391 372 C391 451 330 504 238 504 C155 504 63 450 8 368 L21 358 C46 395 109 420 179 420 C237 420 275 386 275 335 C275 278 225 221 145 186 C133 181 119 176 103 170 L103 151 C115 155 137 163 149 163 L149 164 L149 164 Z " />
<glyph glyph-name="four" unicode="4" horiz-adv-x="491" d="M4 20 L4 0 L256 0 L256 -150 L371 -150 L371 0 L481 0 L481 51 L371 51 L371 505 L352 505 C344 500 4 20 4 20 L4 20 Z M68 51 C113 114 191 224 257 315 C257 314 257 313 257 312 L257 52 L68 51 L68 51 Z " />
<glyph glyph-name="five" unicode="5" horiz-adv-x="457" d="M314 500 L84 500 C84 402 64 173 64 173 L93 173 C93 173 93 175 93 178 C93 175 93 173 93 173 L107 173 C217 173 291 123 291 47 C291 -72 187 -155 30 -160 L31 -182 C257 -174 407 -67 407 85 C407 206 311 286 166 286 L105 286 C108 315 111 347 113 378 L355 378 L394 499 C394 499 410 550 411 552 L396 552 C388 519 358 499 314 499 L314 500 L314 500 Z " />
<glyph glyph-name="six" unicode="6" horiz-adv-x="569" d="M489 715 C227 706 53 537 53 293 C53 114 143 -5 278 -5 C430 -5 526 84 519 217 C519 346 439 432 318 432 C251 432 210 401 186 349 C192 552 312 690 489 696 L489 715 L489 715 Z M298 400 C357 400 397 324 397 210 C403 100 360 27 289 27 C226 27 184 89 184 183 C184 305 210 400 298 400 L298 400 Z " />
<glyph glyph-name="seven" unicode="7" horiz-adv-x="444" d="M30 329 L31 337 C33 364 61 382 100 382 L382 382 L113 -140 L241 -140 C305 70 369 280 434 489 L425 500 L30 500 L25 441 C22 407 18 363 15 329 L30 329 L30 329 Z " />
<glyph glyph-name="eight" unicode="8" horiz-adv-x="540" d="M352 359 C417 390 457 449 457 520 C457 607 381 665 268 665 C153 665 77 595 77 489 C77 425 111 364 167 321 C94 296 49 238 49 161 C49 62 137 -4 270 -4 C402 -4 490 70 490 181 C490 246 437 313 352 360 L352 359 L352 359 Z M329 372 C315 379 300 385 284 391 C218 415 174 473 174 535 C174 599 209 641 262 641 C323 641 363 585 363 502 C363 445 351 399 330 372 L329 372 L329 372 Z M158 180 C158 234 172 277 196 303 C211 294 227 286 244 280 C327 250 383 194 383 142 C383 69 341 21 277 21 C206 21 158 85 158 180 L158 180 Z " />
<glyph glyph-name="nine" unicode="9" horiz-adv-x="569" d="M80 -215 C342 -206 516 -37 516 207 C516 386 426 505 291 505 C139 505 43 416 50 283 C50 154 130 68 251 68 C318 68 359 99 383 151 C377 -52 257 -190 80 -196 L80 -215 L80 -215 Z M271 100 C212 100 172 176 172 290 C166 400 209 473 280 473 C343 473 385 411 385 317 C385 195 359 100 271 100 L271 100 Z " />
<glyph glyph-name="colon" unicode="&#x3a;" horiz-adv-x="265" d="M125 408 C173 408 205 440 205 488 C205 536 173 568 125 568 C77 568 45 536 45 488 C45 440 77 408 125 408 L125 408 Z M125 -5 C173 -5 205 27 205 75 C205 123 173 155 125 155 C77 155 45 123 45 75 C45 27 77 -5 125 -5 L125 -5 Z " />
<glyph glyph-name="semicolon" unicode="&#x3b;" horiz-adv-x="283" d="M139 411 C186 411 218 443 218 490 C218 538 186 570 139 570 C92 570 60 538 60 490 C60 443 92 411 139 411 L139 411 Z M139 154 C92 154 60 122 60 74 C60 27 92 -5 139 -5 C150 -5 159 -1 166 5 C177 -70 137 -138 88 -157 L88 -175 C175 -142 233 -56 233 41 C233 96 199 153 139 153 L139 154 L139 154 Z " />
<glyph glyph-name="less" unicode="&#x3c;" horiz-adv-x="540" d="M465 500 L50 309 C43 306 42 305 40 304 L40 247 L50 242 L465 50 L465 108 L89 276 L465 444 L465 500 L465 500 Z " />
<glyph glyph-name="equal" unicode="&#x3d;" horiz-adv-x="538" d="M88 226 L88 174 L468 174 L468 226 L88 226 L88 226 Z M88 326 L88 274 L468 274 L468 326 L88 326 L88 326 Z " />
<glyph glyph-name="greater" unicode="&#x3e;" horiz-adv-x="530" d="M490 248 L490 303 C483 306 482 307 477 309 L75 500 L75 443 L439 276 L75 109 L75 51 C213 117 350 185 489 249 L490 248 L490 248 Z " />
<glyph glyph-name="question" unicode="&#x3f;" horiz-adv-x="373" d="M139 -5 C187 -5 219 27 219 75 C219 123 187 155 139 155 C91 155 59 123 59 75 C59 27 91 -5 139 -5 L139 -5 Z M158 290 L193 290 C315 290 338 371 338 416 C338 565 250 665 119 665 C69 665 36 636 36 592 C36 562 56 542 85 542 C106 542 134 575 155 575 C249 575 311 517 311 429 C311 410 286 377 154 377 L119 377 C109 377 104 370 106 360 L132 235 L147 235 L158 290 L158 290 Z " />
<glyph glyph-name="at" unicode="&#x40;" horiz-adv-x="1178" d="M1039 0 C974 -140 803 -234 612 -234 C332 -234 145 -37 145 259 C145 555 323 752 589 752 C856 752 1034 588 1034 343 C1034 143 964 10 859 10 C785 10 755 86 783 200 L853 480 L744 480 L727 413 C707 461 659 490 594 490 C407 490 282 369 282 188 C282 78 354 4 463 4 C550 4 624 41 667 101 C679 19 740 -31 838 -31 C1009 -31 1123 118 1123 342 C1123 607 909 783 589 783 C269 783 56 573 56 258 C56 -57 278 -267 612 -267 C817 -267 1004 -161 1078 -1 L1039 0 L1039 0 Z M713 355 L674 199 C654 120 593 67 522 67 C454 67 408 124 408 209 C408 358 482 457 592 457 C665 457 713 416 714 355 L713 355 L713 355 Z " />
<glyph glyph-name="A" unicode="A" horiz-adv-x="674" d="M414 0 L666 0 L666 15 C637 15 615 31 596 65 L328 675 L296 675 L73 67 C56 31 32 15 0 15 L0 0 L168 0 L168 15 L157 15 C125 15 109 39 116 76 L171 232 L386 232 C407 181 429 130 450 80 C467 41 455 15 422 15 L413 15 L414 0 L414 0 Z M372 264 L182 264 L268 509 L372 264 L372 264 Z " />
<glyph glyph-name="B" unicode="B" horiz-adv-x="651" d="M33 645 L41 645 C68 645 86 619 86 580 L86 80 C86 41 68 15 41 15 L33 15 L33 0 L355 0 C521 0 631 74 631 184 C631 273 547 338 415 356 C514 378 575 431 575 502 C575 597 477 660 331 660 L33 660 L33 645 L33 645 Z M214 364 L214 628 L331 628 C401 628 447 578 447 502 C447 419 391 364 307 364 L214 364 L214 364 Z M214 336 L299 336 C417 336 496 275 496 184 C496 93 434 32 342 32 L214 32 L214 336 L214 336 Z " />
<glyph glyph-name="C" unicode="C" horiz-adv-x="735" d="M675 448 L675 541 C662 615 557 665 413 665 C190 665 42 531 42 330 C42 129 190 -5 413 -5 C557 -5 662 45 675 119 L659 122 L659 122 L675 119 L675 212 L662 212 C658 202 653 188 649 178 C618 97 546 38 469 30 C469 28 419 27 412 27 C273 27 181 148 181 330 C181 512 273 633 412 633 C454 633 492 629 525 621 C574 604 622 550 647 483 C651 473 656 459 660 449 L675 448 L675 448 Z " />
<glyph glyph-name="D" unicode="D" horiz-adv-x="745" d="M33 645 L41 645 C68 645 86 619 86 580 L86 80 C86 41 68 15 41 15 L33 15 L33 0 L355 0 C559 0 695 132 695 330 C695 528 545 660 320 660 L33 660 L33 645 L33 645 Z M214 32 L214 628 L320 628 C468 628 567 509 567 330 C567 151 482 32 355 32 L214 32 L214 32 Z " />
<glyph glyph-name="E" unicode="E" horiz-adv-x="609" d="M451 276 L451 421 L439 421 L435 413 C423 386 382 368 331 368 L221 368 L221 628 L366 628 C426 628 481 596 503 547 L510 532 L521 532 L521 660 L40 660 L40 645 L48 645 C75 645 93 619 93 580 L93 80 C93 41 75 15 48 15 L40 15 L40 0 L520 0 L523 16 C529 50 537 94 543 128 L532 128 L522 113 C492 64 431 32 371 32 L221 32 L221 336 L331 336 C382 336 423 316 435 285 L439 276 L451 276 L451 276 Z " />
<glyph glyph-name="F" unicode="F" horiz-adv-x="546" d="M40 645 L48 645 C75 645 93 619 93 580 L93 80 C93 41 75 15 48 15 L40 15 L40 0 L284 0 L284 15 L275 15 C243 15 221 41 221 80 L221 331 L321 331 C372 331 413 311 425 280 L429 271 L441 271 L441 416 L429 416 L425 408 C413 381 372 363 321 363 L221 363 L221 628 L396 628 C456 628 511 596 533 547 L540 532 L551 532 L551 660 L40 660 L40 645 L40 645 Z " />
<glyph glyph-name="G" unicode="G" horiz-adv-x="803" d="M655 448 L655 541 C642 615 541 665 403 665 C186 665 42 531 42 330 C42 129 186 -5 403 -5 C495 -5 597 18 657 53 L657 230 C657 269 675 295 702 295 L710 295 L710 310 L489 310 L489 295 L497 295 C524 295 542 269 542 230 L542 44 C498 33 449 27 403 27 C270 27 182 148 182 330 C182 512 270 633 403 633 C415 633 492 628 491 625 C545 615 601 558 629 482 C633 472 638 458 642 448 L655 448 L655 448 Z " />
<glyph glyph-name="H" unicode="H" horiz-adv-x="743" d="M703 15 L695 15 C668 15 650 41 650 80 L650 580 C650 619 668 645 695 645 L703 645 L703 660 L469 660 L469 645 L477 645 C504 645 522 619 522 580 L522 363 L221 363 L221 580 C221 619 239 645 266 645 L274 645 L274 660 L40 660 L40 645 L48 645 C75 645 93 619 93 580 L93 80 C93 41 75 15 48 15 L40 15 L40 0 L274 0 L274 15 L266 15 C239 15 221 41 221 80 L221 331 L522 331 L522 80 C522 41 504 15 477 15 L469 15 L469 0 L703 0 L703 15 L703 15 Z " />
<glyph glyph-name="I" unicode="I" horiz-adv-x="314" d="M274 15 L266 15 C239 15 221 41 221 80 L221 580 C221 619 239 645 266 645 L274 645 L274 660 L40 660 L40 645 L48 645 C75 645 93 619 93 580 L93 80 C93 41 75 15 48 15 L40 15 L40 0 L274 0 L274 15 L274 15 Z " />
<glyph glyph-name="J" unicode="J" horiz-adv-x="422" d="M382 660 L148 660 L148 645 L156 645 C183 645 201 619 201 580 L201 200 C201 68 189 16 159 16 C136 16 115 35 108 64 C100 95 78 115 51 115 C13 115 -8 95 0 64 C11 20 62 -10 128 -10 C273 -10 329 79 329 308 L329 580 C329 619 347 645 374 645 L382 645 L382 660 L382 660 Z " />
<glyph glyph-name="K" unicode="K" horiz-adv-x="665" d="M571 660 L432 660 L432 645 L438 645 C457 645 450 622 420 587 L214 355 L214 580 C214 619 232 645 259 645 L267 645 L267 660 L33 660 L33 645 L41 645 C68 645 86 619 86 580 L86 80 C86 41 68 15 41 15 L33 15 L33 0 L267 0 L267 15 L259 15 C232 15 214 41 214 80 L214 355 C214 355 277 259 372 115 C429 29 496 -5 611 -5 L655 -5 L655 20 C600 20 550 70 458 210 C394 307 343 383 317 422 L465 587 C502 626 536 645 570 645 L571 660 L571 660 Z " />
<glyph glyph-name="L" unicode="L" horiz-adv-x="609" d="M526 138 L517 122 C489 68 435 32 381 32 L221 32 L221 580 C221 619 239 645 266 645 L274 645 L274 660 L40 660 L40 645 L48 645 C75 645 93 619 93 580 L93 80 C93 41 75 15 48 15 L40 15 L40 0 L520 0 L523 16 C529 51 538 98 544 133 C537 135 526 138 526 138 L526 138 Z " />
<glyph glyph-name="M" unicode="M" horiz-adv-x="848" d="M436 141 L438 146 C438 145 436 141 436 140 L436 141 L436 141 Z M607 -1 L840 -1 L840 14 C808 14 790 31 785 70 L761 591 C763 627 781 643 810 643 L810 658 L643 658 L438 144 L208 658 L56 658 L56 643 L64 643 C91 643 107 618 106 580 L87 78 C86 39 66 13 39 13 L31 13 L31 -2 L200 -2 L200 13 L188 13 C152 13 127 40 124 81 L140 502 C219 332 298 163 377 -7 L409 -7 L645 557 L658 63 C654 28 637 14 607 14 L607 -1 L607 -1 Z " />
<glyph glyph-name="N" unicode="N" horiz-adv-x="677" d="M37 645 L45 645 C72 645 90 619 90 580 L90 80 C90 41 72 15 45 15 L37 15 L37 0 L182 0 L182 15 L174 15 C147 15 129 41 129 80 L129 547 C267 358 404 169 542 -20 L587 -20 L587 580 C587 619 605 645 632 645 L640 645 L640 660 L495 660 L495 645 L503 645 C530 645 548 619 548 580 L548 184 L205 660 L37 660 L37 645 L37 645 Z " />
<glyph glyph-name="O" unicode="O" horiz-adv-x="759" d="M182 330 C182 494 248 633 376 633 C503 633 569 494 569 330 C569 166 503 27 376 27 C248 27 182 166 182 330 L182 330 Z M42 330 C42 149 156 -5 376 -5 C596 -5 709 149 709 330 C709 511 596 665 376 665 C156 665 42 511 42 330 L42 330 Z " />
<glyph glyph-name="P" unicode="P" horiz-adv-x="587" d="M267 15 L259 15 C232 15 214 41 214 80 L214 293 L301 293 C461 293 567 367 567 478 C567 587 469 660 323 660 L33 660 L33 645 L41 645 C68 645 86 619 86 580 L86 80 C86 41 68 15 41 15 L33 15 L33 0 L267 0 L267 15 L267 15 Z M214 325 L214 628 L323 628 C388 628 432 568 432 478 C432 386 380 325 301 325 L214 325 L214 325 Z " />
<glyph glyph-name="Q" unicode="Q" horiz-adv-x="759" d="M803 -28 L790 -20 C776 -42 713 -57 632 -57 C513 -57 436 -37 391 -5 C601 2 709 153 709 330 C709 511 596 665 376 665 C156 665 42 511 42 330 C42 159 144 12 342 -3 C429 -86 523 -140 619 -140 C688 -140 762 -95 803 -28 L803 -28 Z M182 330 C182 494 248 633 376 633 C503 633 569 494 569 330 C569 166 503 27 376 27 C248 27 182 166 182 330 L182 330 Z " />
<glyph glyph-name="R" unicode="R" horiz-adv-x="690" d="M33 645 L41 645 C68 645 86 619 86 580 L86 80 C86 41 68 15 41 15 L33 15 L33 0 L267 0 L267 15 L259 15 C232 15 214 41 214 80 L214 312 L281 312 C309 273 361 200 428 106 C500 4 509 0 647 0 L691 0 L691 25 C643 25 642 25 603 81 C518 203 454 291 428 327 C525 353 584 412 584 491 C584 593 484 661 333 661 L36 661 L33 645 L33 645 Z M217 345 L217 629 L333 629 C403 629 449 574 449 491 C449 403 393 345 310 345 L217 345 L217 345 Z " />
<glyph glyph-name="S" unicode="S" horiz-adv-x="509" d="M425 456 L425 552 C413 620 346 665 258 665 C127 665 39 583 39 460 C39 384 103 312 198 280 C303 245 373 188 373 137 C373 71 321 27 242 27 C237 27 201 28 201 30 C148 37 91 94 60 172 C56 182 51 194 47 204 L34 204 L34 108 C46 40 129 -5 242 -5 C375 -5 464 73 464 189 C464 271 398 347 298 380 C195 414 127 466 127 511 C127 585 177 634 252 634 C276 634 298 630 317 622 C341 609 368 573 385 530 C394 508 404 479 413 457 L425 456 L425 456 Z " />
<glyph glyph-name="T" unicode="T" horiz-adv-x="620" d="M193 0 L427 0 L427 15 L419 15 C392 15 374 41 374 80 L374 628 L474 628 C522 628 571 596 597 548 L611 522 L623 522 C620 559 616 607 612 644 L611 660 L9 660 L8 644 C4 607 0 559 -3 522 L9 522 L23 548 C49 596 98 628 146 628 L246 628 L246 80 C246 41 228 15 201 15 L193 15 L193 0 L193 0 Z " />
<glyph glyph-name="U" unicode="U" horiz-adv-x="667" d="M636 660 L473 660 L473 645 L483 645 C515 645 537 615 537 570 L537 202 C537 105 485 40 350 40 C245 40 204 102 204 194 L204 580 C204 619 222 645 249 645 L257 645 L257 660 L23 660 L23 645 L31 645 C58 645 76 619 76 580 L76 219 C76 85 147 -5 331 -5 C507 -5 576 73 576 189 L576 570 C576 615 596 645 627 645 L636 645 L636 660 L636 660 Z " />
<glyph glyph-name="V" unicode="V" horiz-adv-x="729" d="M671 660 L499 660 L499 645 L511 645 C548 645 564 613 551 564 L406 151 C344 294 281 437 219 580 C202 619 212 645 245 645 L255 645 L255 660 L7 660 L7 645 C36 645 59 623 79 580 L347 -15 L379 -15 L596 585 C612 626 637 645 671 645 L671 660 L671 660 Z " />
<glyph glyph-name="W" unicode="W" horiz-adv-x="989" d="M972 660 L811 660 L811 645 L821 645 C857 645 873 619 861 580 L861 580 L684 -15 L716 -15 L902 589 C917 627 939 644 972 644 L972 660 L972 660 Z M244 659 L3 659 L3 644 C32 644 53 622 70 579 L70 579 L297 -16 L329 -16 L481 465 L684 -16 L741 176 L546 669 L514 669 L297 -16 L353 163 L208 579 C194 618 205 644 235 644 L244 644 L244 659 L244 659 Z " />
<glyph glyph-name="X" unicode="X" horiz-adv-x="680" d="M28 0 L196 0 L196 15 L186 15 C154 15 149 42 173 84 L300 281 C343 214 387 146 429 79 C454 40 450 14 419 14 L410 14 L410 -1 L656 -1 L656 14 C633 14 613 28 589 59 L385 374 C432 442 478 511 525 579 C555 622 586 644 622 644 L622 659 L452 659 L452 644 L462 644 C492 644 502 625 488 595 L365 404 C328 462 289 521 252 579 C227 618 231 644 262 644 L271 644 L271 659 L25 659 L25 644 C48 644 68 630 92 599 C154 503 217 406 278 310 L111 62 C83 29 57 14 26 14 L28 0 L28 0 Z " />
<glyph glyph-name="Y" unicode="Y" horiz-adv-x="644" d="M251 660 L4 660 L4 645 C29 645 51 628 75 592 L255 289 L255 80 C255 41 237 15 210 15 L202 15 L202 0 L436 0 L436 15 L428 15 C401 15 383 41 383 80 L383 330 L383 330 L558 590 C585 627 610 645 640 645 L640 660 L487 660 L487 645 L497 645 C530 645 533 616 507 571 L367 356 L233 584 C213 621 217 645 244 645 L253 645 L251 660 L251 660 Z " />
<glyph glyph-name="Z" unicode="Z" horiz-adv-x="585" d="M503 139 L494 123 C466 69 412 33 358 33 L193 33 L529 660 L81 660 L77 644 C69 614 58 573 50 543 L62 543 L72 556 C108 599 164 628 212 628 L367 628 L32 0 L497 0 L500 16 L500 16 C506 51 515 99 521 134 C514 136 503 139 503 139 L503 139 Z " />
<glyph glyph-name="bracketleft" unicode="&#x5b;" horiz-adv-x="269" d="M154 634 L259 634 L259 660 L65 660 L65 -120 L259 -120 L259 -94 L154 -94 L154 634 L154 634 Z " />
<glyph glyph-name="backslash" unicode="&#x5c;" horiz-adv-x="270" d="M230 -145 L270 -145 L-20 710 L-60 710 L230 -145 L230 -145 Z " />
<glyph glyph-name="bracketright" unicode="&#x5d;" horiz-adv-x="269" d="M109 634 L109 -94 L4 -94 L4 -120 L199 -120 L199 660 L4 660 L4 634 L109 634 L109 634 Z " />
<glyph glyph-name="asciicircum" unicode="&#x5e;" horiz-adv-x="340" d="M207 712 C202 722 189 744 170 744 C152 744 139 722 134 712 C134 712 46 539 48 541 L60 531 C112 593 147 629 170 649 C214 604 279 531 279 531 L291 541 C291 541 255 612 206 712 L207 712 L207 712 Z M132 676 C129 681 129 683 131 682 L132 676 L132 676 Z " />
<glyph glyph-name="underscore" unicode="&#x5f;" horiz-adv-x="455" d="M5 -50 L5 -114 L450 -114 L450 -50 L5 -50 L5 -50 Z " />
<glyph glyph-name="grave" unicode="&#x60;" horiz-adv-x="340" d="M86 701 C86 693 100 676 122 654 C157 616 242 530 242 530 L255 539 C255 539 205 656 181 699 C167 729 156 749 151 749 C132 749 86 715 86 701 L86 701 Z " />
<glyph glyph-name="a" unicode="a" horiz-adv-x="512" d="M490 64 C482 53 470 45 444 45 C414 45 405 72 405 112 L405 352 C405 444 350 505 267 505 C92 505 9 413 59 276 L174 276 C131 394 158 473 241 473 C266 473 283 435 283 378 L283 264 C261 261 237 257 218 252 C109 225 37 166 37 105 C37 39 84 -5 155 -5 C207 -5 256 11 293 37 C304 7 326 -11 367 -11 C443 -11 481 12 504 47 L490 64 L490 64 Z M284 231 L284 99 C284 92 284 85 284 79 C263 74 239 71 212 71 C175 71 150 97 150 137 C150 174 177 205 217 215 C241 221 263 226 282 230 L284 231 L284 231 Z " />
<glyph glyph-name="b" unicode="b" horiz-adv-x="579" d="M13 666 C56 650 66 638 66 579 L66 0 L79 0 C90 19 114 32 139 32 C181 32 223 -5 280 -5 C426 -5 524 97 524 249 C524 403 445 505 327 505 C258 505 206 476 182 428 L182 720 L159 720 L14 675 L13 666 L13 666 Z M281 27 C222 27 182 87 182 177 L182 350 C182 412 205 454 240 454 C337 454 401 355 401 207 C401 99 353 27 281 27 L281 27 Z " />
<glyph glyph-name="c" unicode="c" horiz-adv-x="521" d="M472 232 L456 232 C453 132 413 65 357 65 C246 65 172 148 172 273 C172 393 220 473 293 473 C331 473 359 445 363 404 C366 370 389 348 420 348 C451 348 471 368 471 399 C465 463 399 505 306 505 C152 505 50 395 50 229 C50 89 134 -5 261 -5 C383 -5 467 90 472 232 L472 232 Z " />
<glyph glyph-name="d" unicode="d" horiz-adv-x="611" d="M333 666 C376 650 386 638 386 579 L386 457 C361 488 327 505 287 505 C147 505 54 391 54 219 C54 85 130 -5 243 -5 C309 -5 360 26 386 78 L386 0 L409 0 L554 45 L554 54 C511 70 501 82 501 141 L501 720 L478 720 L333 675 L333 666 L333 666 Z M386 124 C374 87 345 64 306 64 C227 64 174 143 174 262 C174 389 217 473 281 473 C329 473 367 441 386 388 L386 124 L386 124 Z " />
<glyph glyph-name="e" unicode="e" horiz-adv-x="527" d="M478 232 L462 232 C459 132 418 65 360 65 C237 65 165 160 173 300 L477 300 C477 423 400 505 285 505 C144 505 50 395 50 229 C50 89 136 -5 264 -5 C387 -5 473 90 478 232 L478 232 Z M370 393 L370 396 C370 395 370 394 370 393 L370 393 Z M315 337 L175 322 C185 414 224 473 279 473 C334 473 370 442 370 396 C369 363 348 340 315 337 L315 337 Z " />
<glyph glyph-name="f" unicode="f" horiz-adv-x="446" d="M259 15 L251 15 C224 15 206 41 206 80 L206 455 L341 455 L341 500 L206 500 L206 533 C206 629 274 694 303 694 C332 694 352 674 355 645 C358 614 380 594 412 594 C443 594 463 614 463 645 C459 690 408 720 335 720 C192 720 97 655 97 558 C94 558 91 500 91 500 L23 500 L23 455 L91 455 L91 80 C91 41 73 15 46 15 L38 15 L38 0 L259 0 L259 15 L259 15 Z " />
<glyph glyph-name="g" unicode="g" horiz-adv-x="479" d="M479 500 L341 472 C312 493 273 505 228 505 C124 505 54 441 54 346 C54 280 88 229 144 204 C81 194 41 151 41 90 C41 42 74 6 128 -10 C60 -29 16 -76 16 -134 C16 -199 79 -244 173 -244 C345 -244 459 -158 459 -29 C459 44 387 93 278 93 C259 93 189 90 189 90 C146 90 118 107 118 133 C118 165 140 186 173 186 L228 186 C333 186 403 250 403 345 C403 377 395 406 380 430 L479 436 L479 500 L479 500 Z M228 213 C188 213 162 266 162 346 C162 426 188 479 228 479 C268 479 295 426 295 346 C295 266 268 213 228 213 L228 213 Z M161 -16 C172 -17 183 -18 195 -18 L247 -15 C324 -15 376 -43 376 -86 C376 -161 300 -211 186 -211 C130 -211 93 -175 93 -120 C93 -67 120 -27 162 -16 L161 -16 L161 -16 Z " />
<glyph glyph-name="h" unicode="h" horiz-adv-x="592" d="M331 0 L552 0 L552 15 L544 15 C517 15 499 41 499 80 L499 338 C499 438 468 505 387 505 C303 505 240 468 213 407 L213 720 L190 720 L45 675 L45 666 C88 650 98 638 98 579 L98 80 C98 41 80 15 53 15 L45 15 L45 0 L266 0 L266 15 L258 15 C231 15 213 41 213 80 L213 363 C225 403 257 428 300 428 C361 428 385 387 385 326 L385 80 C385 41 367 15 340 15 L332 15 L331 0 L331 0 Z " />
<glyph glyph-name="i" unicode="i" horiz-adv-x="311" d="M149 570 C195 570 226 601 226 647 C226 693 195 723 149 723 C103 723 72 693 72 647 C72 601 103 570 149 570 L149 570 Z M266 15 L258 15 C231 15 213 41 213 80 L213 500 L190 500 L45 455 L45 446 C88 430 98 418 98 359 L98 80 C98 41 80 15 53 15 L45 15 L45 0 L266 0 L266 15 L266 15 Z " />
<glyph glyph-name="j" unicode="j" horiz-adv-x="311" d="M149 570 C195 570 226 601 226 647 C226 693 195 723 149 723 C103 723 72 693 72 647 C72 601 103 570 149 570 L149 570 Z M45 446 C86 431 97 419 98 365 C98 226 98 -2 97 -1 C97 -130 70 -171 -13 -223 L-2 -239 C160 -138 214 -82 214 31 C213 33 213 470 213 470 L213 500 L190 500 L45 455 L45 446 L45 446 Z " />
<glyph glyph-name="k" unicode="k" horiz-adv-x="557" d="M37 666 C80 650 90 638 90 579 L90 80 C90 41 72 15 45 15 L37 15 L37 0 L258 0 L258 15 L250 15 C223 15 205 41 205 80 L205 275 C251 210 298 145 343 80 C371 41 375 15 353 15 L347 15 L347 0 L586 0 L586 15 C553 15 524 32 494 69 L301 337 L400 429 C443 466 479 484 513 484 L513 499 L372 499 L372 484 L378 484 C397 484 384 458 346 419 L346 419 L204 274 L204 719 L181 719 L36 674 L37 666 L37 666 Z " />
<glyph glyph-name="l" unicode="l" horiz-adv-x="311" d="M266 15 L258 15 C231 15 213 41 213 80 L213 720 L190 720 L45 675 L45 666 C88 650 98 638 98 579 L98 80 C98 41 80 15 53 15 L45 15 L45 0 L266 0 L266 15 L266 15 Z " />
<glyph glyph-name="m" unicode="m" horiz-adv-x="899" d="M638 0 L859 0 L859 15 L851 15 C824 15 806 41 806 80 L806 338 C806 438 755 505 687 505 C589 505 526 469 499 410 C482 469 443 505 395 505 C301 505 240 469 214 410 L214 500 L191 500 L46 455 L46 446 C89 430 99 418 99 359 L99 80 C99 41 81 15 54 15 L46 15 L46 0 L267 0 L267 15 L259 15 C232 15 214 41 214 80 L214 366 C225 408 256 434 306 434 C357 434 396 390 396 325 L396 79 C396 40 378 14 351 14 L343 14 L343 -1 L564 -1 L564 14 L556 14 C529 14 511 40 511 79 L511 337 C511 348 510 359 509 369 C521 405 552 427 600 427 C653 427 693 386 693 325 L693 79 C693 40 675 14 648 14 L640 14 L638 0 L638 0 Z " />
<glyph glyph-name="n" unicode="n" horiz-adv-x="592" d="M331 0 L552 0 L552 15 L544 15 C517 15 499 41 499 80 L499 338 C499 438 468 505 387 505 C303 505 240 468 213 407 L213 500 L190 500 L45 455 L45 446 C88 430 98 418 98 359 L98 80 C98 41 80 15 53 15 L45 15 L45 0 L266 0 L266 15 L258 15 C231 15 213 41 213 80 L213 363 C225 403 257 428 300 428 C361 428 385 387 385 326 L385 80 C385 41 367 15 340 15 L332 15 L331 0 L331 0 Z " />
<glyph glyph-name="o" unicode="o" horiz-adv-x="607" d="M178 250 C178 387 228 479 304 479 C379 479 429 387 429 250 C429 113 379 21 304 21 C228 21 178 113 178 250 L178 250 Z M50 250 C50 97 152 -5 304 -5 C456 -5 557 97 557 250 C557 403 456 505 304 505 C152 505 50 403 50 250 L50 250 Z " />
<glyph glyph-name="p" unicode="p" horiz-adv-x="628" d="M265 -215 L257 -215 C230 -215 212 -189 212 -150 L212 41 C238 12 275 -5 319 -5 C471 -5 573 104 573 268 C573 410 498 505 385 505 C303 505 240 465 212 399 L212 500 L189 500 L44 455 L44 446 C87 430 97 418 97 359 L97 -150 C97 -189 79 -215 52 -215 L44 -215 L44 -230 L265 -230 L265 -215 L265 -215 Z M212 175 L212 333 C220 391 251 428 296 428 C390 428 453 332 453 187 C453 91 399 27 319 27 C255 27 212 86 212 175 L212 175 Z " />
<glyph glyph-name="q" unicode="q" horiz-adv-x="592" d="M547 -215 L539 -215 C512 -215 494 -189 494 -150 L494 500 L481 500 C470 475 442 459 410 459 C371 459 333 505 280 505 C141 505 48 391 48 219 C48 85 118 -5 223 -5 C296 -5 352 29 379 85 L379 -150 C379 -189 361 -215 334 -215 L326 -215 L326 -230 L547 -230 L547 -215 L547 -215 Z M379 149 C373 98 337 65 286 65 C215 65 168 144 168 263 C168 389 213 473 280 473 C339 473 379 393 379 273 L379 149 L379 149 Z " />
<glyph glyph-name="r" unicode="r" horiz-adv-x="415" d="M44 446 C87 430 97 418 97 359 L97 80 C97 41 79 15 52 15 L44 15 L44 0 L265 0 L265 15 L257 15 C230 15 212 41 212 80 L212 391 C219 409 229 420 241 420 C273 420 317 376 349 376 C382 376 404 398 404 431 C404 475 384 505 333 505 C276 505 232 467 211 405 L211 500 L188 500 L43 455 L44 446 L44 446 Z " />
<glyph glyph-name="s" unicode="s" horiz-adv-x="416" d="M349 349 L349 409 C339 467 290 505 226 505 C117 505 45 448 45 362 C45 310 100 249 183 209 C235 184 270 145 270 111 C270 57 238 21 189 21 C187 21 172 22 172 22 C135 26 91 69 62 130 C59 137 54 146 51 153 L40 153 L40 86 C50 31 106 -5 182 -5 C292 -5 366 59 366 154 C366 207 325 262 264 291 C186 328 134 372 134 401 C134 448 171 479 226 479 C246 479 264 472 278 460 C278 460 313 396 336 349 L349 349 L349 349 Z " />
<glyph glyph-name="t" unicode="t" horiz-adv-x="371" d="M25 468 L25 455 L88 455 L88 125 C88 24 112 -5 197 -5 C329 -5 360 80 351 208 L338 207 C345 110 328 46 253 46 C214 46 203 59 203 105 L203 455 L338 455 L338 500 L203 500 L203 640 L184 640 C136 546 71 476 25 468 L25 468 Z " />
<glyph glyph-name="u" unicode="u" horiz-adv-x="557" d="M522 54 C479 70 469 82 469 141 L469 500 L301 500 L301 485 L309 485 C336 485 354 459 354 420 L354 130 C347 94 327 71 288 71 C218 71 182 109 182 166 L182 500 L14 500 L14 485 L22 485 C49 485 67 459 67 420 L67 420 L68 154 C68 59 112 -5 198 -5 C282 -5 331 26 354 78 L354 0 L377 0 L522 45 L522 54 L522 54 Z " />
<glyph glyph-name="v" unicode="v" horiz-adv-x="563" d="M216 500 L-15 500 L-15 485 C20 485 47 464 67 420 L67 420 L262 -10 L281 -10 L471 429 C491 467 515 485 549 485 L549 500 L410 500 L410 485 L417 485 C441 485 446 459 431 420 L431 420 L319 136 L188 439 C179 472 189 485 215 485 L216 500 L216 500 Z " />
<glyph glyph-name="w" unicode="w" horiz-adv-x="935" d="M260 500 L28 500 L28 485 C57 485 80 463 100 420 L100 420 L295 -10 L314 -10 L461 348 L623 -10 L642 -10 L832 429 C852 467 876 485 910 485 L910 500 L750 500 L750 485 L760 485 C795 485 807 459 792 420 L792 420 L680 136 L549 440 C543 473 562 484 596 484 L596 499 L365 499 L365 484 C388 484 407 461 427 419 L427 419 L447 376 L351 134 L226 426 C213 461 223 484 250 484 L259 484 L260 500 L260 500 Z " />
<glyph glyph-name="x" unicode="x" horiz-adv-x="579" d="M531 500 L380 500 L380 485 L389 485 C417 485 420 463 398 429 L325 330 L265 427 C246 462 250 484 276 484 L284 484 L284 499 L47 499 L47 484 C76 484 103 462 129 419 L129 419 L245 230 L133 68 C103 30 72 13 35 13 L35 -2 L209 -2 L209 13 L198 13 C162 13 153 36 173 71 L262 204 L345 69 C364 35 363 13 342 13 L336 13 L336 -2 L555 -2 L555 13 C531 13 506 36 480 78 L480 78 L338 309 C368 345 397 382 427 418 C461 461 496 483 532 483 L531 500 L531 500 Z " />
<glyph glyph-name="y" unicode="y" horiz-adv-x="574" d="M252 500 L21 500 L21 485 C56 485 83 464 103 420 L103 420 L290 6 C283 -8 272 -31 259 -62 C230 -128 205 -154 170 -154 C170 -154 108 -129 82 -129 C47 -129 24 -149 24 -178 C24 -209 54 -230 99 -230 C187 -230 240 -186 289 -72 C306 -32 316 -10 316 -10 L506 429 C526 467 550 485 584 485 L584 500 L445 500 L445 485 L452 485 C476 485 481 459 466 420 L466 420 L354 136 L223 439 C214 472 224 485 250 485 L252 500 L252 500 Z " />
<glyph glyph-name="z" unicode="z" horiz-adv-x="483" d="M410 132 L401 116 C373 62 319 26 265 26 L187 26 L433 500 L70 500 L67 487 C60 464 52 432 46 409 L58 409 L67 419 C97 448 145 470 189 474 L287 474 L38 0 L406 0 L409 13 C415 47 423 93 429 127 C422 129 411 132 411 132 L410 132 L410 132 Z " />
<glyph glyph-name="braceleft" unicode="&#x7b;" horiz-adv-x="254" d="M239 -120 L239 -101 L225 -101 C179 -101 149 -54 149 16 L149 139 C149 208 115 258 62 270 C115 282 149 332 149 402 L149 524 C149 594 179 641 225 641 L239 641 L239 660 L199 660 C116 660 60 606 60 524 L60 338 C60 300 39 280 5 280 L5 260 C39 260 60 240 60 203 L60 16 C60 -66 116 -120 199 -120 L239 -120 L239 -120 Z " />
<glyph glyph-name="bar" unicode="&#x7c;" horiz-adv-x="209" d="M60 770 L60 -234 L149 -234 L149 770 L60 770 L60 770 Z " />
<glyph glyph-name="braceright" unicode="&#x7d;" horiz-adv-x="254" d="M5 660 L5 641 L19 641 C65 641 95 594 95 524 L95 401 C95 332 129 282 182 270 C129 258 95 208 95 138 L95 16 C95 -54 65 -101 19 -101 L5 -101 L5 -120 L45 -120 C128 -120 184 -66 184 16 L184 202 C184 240 205 260 239 260 L239 280 C205 280 184 300 184 337 L184 524 C184 606 128 660 45 660 L5 660 L5 660 Z " />
<glyph glyph-name="asciitilde" unicode="&#x7e;" horiz-adv-x="340" d="M31 310 C31 344 47 366 70 366 C121 366 188 303 239 303 C292 303 328 358 328 440 L309 440 C309 404 291 380 264 380 C213 380 146 442 95 442 C45 442 12 389 12 310 L31 310 L31 310 Z " />
<glyph glyph-name="nbspace" unicode="&#xa0;" horiz-adv-x="220" d="" />
<glyph glyph-name="exclamdown" unicode="&#xa1;" horiz-adv-x="265" d="M122 505 C74 505 42 473 42 425 C42 377 74 345 122 345 C170 345 202 377 202 425 C202 473 170 505 122 505 L122 505 Z M60 -83 C56 -133 80 -165 130 -165 C182 -165 207 -133 200 -83 C200 129 130 270 130 270 L114 270 C114 270 60 129 60 -83 L60 -83 Z " />
<glyph glyph-name="cent" unicode="&#xa2;" horiz-adv-x="521" d="M272 575 L272 503 C137 488 50 382 50 229 C50 87 137 -11 272 -5 L272 -75 L310 -75 L310 0 C405 22 468 109 472 231 L456 231 C453 131 413 64 357 64 C340 64 324 66 309 70 L309 471 C338 464 358 439 361 404 C364 370 387 348 418 348 C449 348 469 368 469 399 C463 462 399 504 308 505 L308 575 L272 575 L272 575 Z M270 84 C208 115 170 183 170 272 C170 380 209 456 270 470 L270 84 L270 84 Z " />
<glyph glyph-name="guillemotleft" unicode="&#xab;" horiz-adv-x="461" d="M294 248 C322 304 384 426 412 454 L400 466 C269 335 185 257 185 257 L185 244 C199 236 403 34 403 34 L416 46 C416 46 339 154 294 248 L294 248 Z M130 249 C158 306 219 426 248 455 L236 467 C104 335 20 258 20 258 L20 245 L20 245 C20 245 20 245 21 245 C35 236 239 35 239 35 L251 47 C251 47 175 155 130 250 L130 249 L130 249 Z " />
<glyph glyph-name="acute" unicode="&#xb4;" horiz-adv-x="340" d="M94 530 C94 530 177 615 211 654 C232 677 246 694 246 701 C246 715 201 749 181 749 C177 749 166 729 152 699 C128 653 81 539 81 539 L94 530 L94 530 Z " />
<glyph glyph-name="guillemotright" unicode="&#xbb;" horiz-adv-x="461" d="M58 34 C58 34 262 236 276 244 L276 244 L276 257 C276 257 192 335 61 466 L49 454 C77 426 139 304 167 248 C122 154 45 46 45 46 L58 34 L58 34 Z M222 34 C222 34 426 235 441 244 L441 244 L441 257 C441 257 357 334 225 466 L213 454 C242 425 303 305 331 248 C286 153 210 45 210 45 L222 34 L222 34 Z " />
<glyph glyph-name="onequarter" unicode="&#xbc;" horiz-adv-x="758" d="M123 -26 L685 644 L635 686 L73 16 L123 -26 L123 -26 Z M435 67 L435 50 L531 50 L531 -2 L629 -2 L629 50 L684 50 L684 94 L629 94 L629 303 L612 303 C600 296 435 67 435 67 L435 67 Z M491 94 C503 110 517 129 531 148 C531 147 531 146 531 145 L531 95 L491 94 L491 94 Z M300 424 C284 424 274 434 274 456 L274 626 C274 649 283 659 300 659 L300 666 L150 666 L150 659 C167 659 176 649 176 626 L176 456 C176 434 166 424 150 424 L150 416 L300 416 L300 424 L300 424 Z " />
<glyph glyph-name="onehalf" unicode="&#xbd;" horiz-adv-x="758" d="M123 -26 L685 644 L635 686 L73 16 L123 -26 L123 -26 Z M671 113 L670 109 C669 96 655 87 636 87 L594 87 C647 123 678 151 678 181 C678 224 642 253 588 253 C546 253 502 215 479 158 L491 150 C499 169 518 181 540 181 C557 181 569 168 569 148 C569 76 525 65 458 22 L458 0 C459 1 460 2 461 3 C459 1 457 0 456 0 L666 0 L670 43 C671 48 671 54 671 60 L674 88 C674 88 676 113 676 114 L671 113 L671 113 Z M298 424 C282 424 272 434 272 456 L272 626 C272 649 281 659 298 659 L298 666 L148 666 L148 659 C165 659 174 649 174 626 L174 456 C174 434 164 424 148 424 L148 416 L298 416 L298 424 L298 424 Z " />
<glyph glyph-name="threequarters" unicode="&#xbe;" horiz-adv-x="758" d="M154 492 L154 476 C164 479 173 482 177 482 C203 482 220 470 220 452 C220 398 178 360 114 357 L115 340 C240 347 324 394 324 458 C324 491 306 516 267 527 C300 550 319 575 319 599 C319 640 285 668 234 668 C194 668 143 633 107 580 L119 572 C129 587 155 597 185 597 C207 597 221 585 221 567 C221 533 192 506 154 492 L154 492 Z M123 -26 L685 644 L635 686 L73 16 L123 -26 L123 -26 Z M435 67 L435 50 L531 50 L531 -2 L629 -2 L629 50 L684 50 L684 94 L629 94 L629 303 L612 303 C600 296 435 67 435 67 L435 67 Z M491 94 C503 110 517 129 531 148 C531 147 531 146 531 145 L531 95 L491 94 L491 94 Z " />
<glyph glyph-name="questiondown" unicode="&#xbf;" horiz-adv-x="373" d="M234 505 C186 505 154 473 154 425 C154 377 186 345 234 345 C282 345 314 377 314 425 C314 473 282 505 234 505 L234 505 Z M215 210 L180 210 C58 210 35 129 35 84 C35 -65 123 -165 254 -165 C304 -165 337 -136 337 -92 C337 -62 317 -42 288 -42 C267 -42 239 -75 218 -75 C124 -75 62 -17 62 71 C62 90 87 123 219 123 L254 123 C264 123 269 130 267 140 L241 265 L226 265 L215 210 L215 210 Z " />
<glyph glyph-name="Agrave" unicode="&#xc0;" horiz-adv-x="674" d="M228 861 C228 853 242 836 264 814 C294 776 384 690 384 690 L397 699 C397 699 352 815 323 859 C309 889 298 909 293 909 C274 909 228 875 228 861 L228 861 Z M414 0 L666 0 L666 15 C637 15 615 31 596 65 L328 675 L296 675 L73 67 C56 31 32 15 0 15 L0 0 L168 0 L168 15 L157 15 C125 15 109 39 116 76 L171 232 L386 232 C407 181 429 130 450 80 C467 41 455 15 422 15 L413 15 L414 0 L414 0 Z M372 264 L182 264 L268 509 L372 264 L372 264 Z " />
<glyph glyph-name="Aacute" unicode="&#xc1;" horiz-adv-x="674" d="M251 690 C251 690 335 777 368 814 C389 837 403 854 403 861 C403 875 358 909 338 909 C334 909 323 889 309 859 C276 816 238 699 238 699 L251 690 L251 690 Z M414 0 L666 0 L666 15 C637 15 615 31 596 65 L328 675 L296 675 L73 67 C56 31 32 15 0 15 L0 0 L168 0 L168 15 L157 15 C125 15 109 39 116 76 L171 232 L386 232 C407 181 429 130 450 80 C467 41 455 15 422 15 L413 15 L414 0 L414 0 Z M372 264 L182 264 L268 509 L372 264 L372 264 Z " />
<glyph glyph-name="Acircumflex" unicode="&#xc2;" horiz-adv-x="674" d="M349 872 C344 882 331 904 312 904 C294 904 281 882 276 872 C276 872 185 696 190 701 L202 691 C253 754 288 790 311 810 C355 766 421 692 421 692 L433 702 C433 702 397 773 348 873 L349 872 L349 872 Z M274 837 C271 842 271 844 273 843 L274 837 L274 837 Z M412 1 L664 1 L664 16 C635 16 613 32 594 66 L326 676 L294 676 L71 68 C54 32 30 16 -2 16 L-2 1 L166 1 L166 16 L155 16 C123 16 107 40 114 77 L169 233 L384 233 C405 182 427 131 448 81 C465 42 453 16 420 16 L411 16 L412 1 L412 1 Z M370 265 L180 265 L266 510 L370 265 L370 265 Z " />
<glyph glyph-name="Atilde" unicode="&#xc3;" horiz-adv-x="674" d="M173 755 C173 789 187 814 212 811 C263 811 330 748 381 748 C434 748 470 803 470 885 L451 885 C451 849 433 825 406 825 C355 825 288 887 237 887 C184 884 154 834 154 755 L173 755 L173 755 Z M414 0 L666 0 L666 15 C637 15 615 31 596 65 L328 675 L296 675 L73 67 C56 31 32 15 0 15 L0 0 L168 0 L168 15 L157 15 C125 15 109 39 116 76 L171 232 L386 232 C407 181 429 130 450 80 C467 41 455 15 422 15 L413 15 L414 0 L414 0 Z M372 264 L182 264 L268 509 L372 264 L372 264 Z " />
<glyph glyph-name="Adieresis" unicode="&#xc4;" horiz-adv-x="674" d="M412 730 C455 730 483 758 483 800 C483 843 455 871 412 871 C370 871 342 843 342 800 C342 758 370 730 412 730 L412 730 Z M212 730 C254 730 282 758 282 800 C282 843 254 871 212 871 C169 871 141 843 141 800 C141 758 169 730 212 730 L212 730 Z M414 0 L666 0 L666 15 C637 15 615 31 596 65 L328 675 L296 675 L73 67 C56 31 32 15 0 15 L0 0 L168 0 L168 15 L157 15 C125 15 109 39 116 76 L171 232 L386 232 C407 181 429 130 450 80 C467 41 455 15 422 15 L413 15 L414 0 L414 0 Z M372 264 L182 264 L268 509 L372 264 L372 264 Z " />
<glyph glyph-name="Aring" unicode="&#xc5;" horiz-adv-x="674" d="M248 788 C248 828 271 851 312 854 C350 854 376 828 376 788 C376 752 347 721 312 721 C277 721 248 752 248 788 L248 788 Z M216 788 C216 738 260 695 312 695 C364 695 408 738 408 788 C408 843 370 880 312 880 C252 883 216 843 216 788 L216 788 Z M414 0 L666 0 L666 15 C637 15 615 31 596 65 L328 675 L296 675 L73 67 C56 31 32 15 0 15 L0 0 L168 0 L168 15 L157 15 C125 15 109 39 116 76 L171 232 L386 232 C407 181 429 130 450 80 C467 41 455 15 422 15 L413 15 L414 0 L414 0 Z M372 264 L182 264 L268 509 L372 264 L372 264 Z " />
<glyph glyph-name="Ccedilla" unicode="&#xc7;" horiz-adv-x="735" d="M675 448 L675 541 C662 615 557 665 413 665 C190 665 42 531 42 330 C42 133 184 0 400 -5 C394 -17 376 -48 352 -90 L360 -94 C364 -87 368 -80 372 -74 L360 -94 C376 -85 396 -79 409 -79 C438 -79 457 -101 457 -134 C457 -166 429 -187 386 -187 C359 -187 336 -181 327 -173 L320 -185 C342 -206 378 -220 409 -220 C480 -220 528 -186 528 -134 C528 -87 491 -56 436 -56 C416 -56 390 -62 373 -72 C400 -29 421 -11 432 -4 C566 0 662 49 674 120 L658 123 L658 123 L674 120 L674 213 L661 213 C657 203 652 189 648 179 C617 98 545 39 468 31 C468 29 418 28 411 28 C272 28 180 149 180 331 C180 513 272 634 411 634 C453 634 491 630 524 622 C573 605 621 551 646 484 C650 474 655 460 659 450 L675 448 L675 448 Z " />
<glyph glyph-name="Egrave" unicode="&#xc8;" horiz-adv-x="609" d="M199 861 C199 854 214 837 236 814 C266 776 355 690 355 690 L368 699 C368 699 325 819 294 859 C280 889 270 909 265 909 C245 909 199 875 199 861 L199 861 Z M451 276 L451 421 L439 421 L435 413 C423 386 382 368 331 368 L221 368 L221 628 L366 628 C426 628 481 596 503 547 L510 532 L521 532 L521 660 L40 660 L40 645 L48 645 C75 645 93 619 93 580 L93 80 C93 41 75 15 48 15 L40 15 L40 0 L520 0 L523 16 C529 50 537 94 543 128 L532 128 L522 113 C492 64 431 32 371 32 L221 32 L221 336 L331 336 C382 336 423 316 435 285 L439 276 L451 276 L451 276 Z " />
<glyph glyph-name="Eacute" unicode="&#xc9;" horiz-adv-x="609" d="M270 690 C270 690 352 776 386 814 C408 838 422 855 422 861 C422 875 376 909 356 909 C352 909 342 889 328 859 C295 820 257 699 257 699 L270 690 L270 690 Z M451 276 L451 421 L439 421 L435 413 C423 386 382 368 331 368 L221 368 L221 628 L366 628 C426 628 481 596 503 547 L510 532 L521 532 L521 660 L40 660 L40 645 L48 645 C75 645 93 619 93 580 L93 80 C93 41 75 15 48 15 L40 15 L40 0 L520 0 L523 16 C529 50 537 94 543 128 L532 128 L522 113 C492 64 431 32 371 32 L221 32 L221 336 L331 336 C382 336 423 316 435 285 L439 276 L451 276 L451 276 Z " />
<glyph glyph-name="Ecircumflex" unicode="&#xca;" horiz-adv-x="609" d="M336 872 C331 882 318 904 300 904 C281 904 268 882 263 872 C263 872 174 700 177 701 L189 691 C240 755 275 791 298 811 C342 767 409 692 409 692 L421 702 C421 702 383 775 335 873 L336 872 L336 872 Z M262 837 C259 842 259 844 261 843 L262 837 L262 837 Z M449 277 L449 422 L437 422 L433 414 C421 387 380 369 329 369 L219 369 L219 629 L364 629 C424 629 479 597 501 548 L508 533 L519 533 L519 661 L38 661 L38 646 L46 646 C73 646 91 620 91 581 L91 81 C91 42 73 16 46 16 L38 16 L38 1 L518 1 L521 17 C527 51 535 95 541 129 L530 129 L520 114 C490 65 429 33 369 33 L219 33 L219 337 L329 337 C380 337 421 317 433 286 L437 277 L449 277 L449 277 Z " />
<glyph glyph-name="Edieresis" unicode="&#xcb;" horiz-adv-x="609" d="M400 730 C442 730 470 758 470 800 C470 843 442 871 400 871 C358 871 330 843 330 800 C330 758 358 730 400 730 L400 730 Z M199 730 C241 730 269 758 269 800 C269 843 241 871 199 871 C157 871 129 843 129 800 C129 758 157 730 199 730 L199 730 Z M451 276 L451 421 L439 421 L435 413 C423 386 382 368 331 368 L221 368 L221 628 L366 628 C426 628 481 596 503 547 L510 532 L521 532 L521 660 L40 660 L40 645 L48 645 C75 645 93 619 93 580 L93 80 C93 41 75 15 48 15 L40 15 L40 0 L520 0 L523 16 C529 50 537 94 543 128 L532 128 L522 113 C492 64 431 32 371 32 L221 32 L221 336 L331 336 C382 336 423 316 435 285 L439 276 L451 276 L451 276 Z " />
<glyph glyph-name="Igrave" unicode="&#xcc;" horiz-adv-x="314" d="M73 861 C73 853 87 836 109 814 C141 777 229 690 229 690 L242 699 C242 699 197 807 168 859 C154 889 143 909 138 909 C119 909 73 875 73 861 L73 861 Z M274 15 L266 15 C239 15 221 41 221 80 L221 580 C221 619 239 645 266 645 L274 645 L274 660 L40 660 L40 645 L48 645 C75 645 93 619 93 580 L93 80 C93 41 75 15 48 15 L40 15 L40 0 L274 0 L274 15 L274 15 Z " />
<glyph glyph-name="Iacute" unicode="&#xcd;" horiz-adv-x="314" d="M96 690 C96 690 182 778 213 814 C234 837 248 854 248 861 C248 875 203 909 183 909 C179 909 168 889 154 859 C120 808 83 699 83 699 L96 690 L96 690 Z M274 15 L266 15 C239 15 221 41 221 80 L221 580 C221 619 239 645 266 645 L274 645 L274 660 L40 660 L40 645 L48 645 C75 645 93 619 93 580 L93 80 C93 41 75 15 48 15 L40 15 L40 0 L274 0 L274 15 L274 15 Z " />
<glyph glyph-name="Icircumflex" unicode="&#xce;" horiz-adv-x="314" d="M194 872 C189 882 176 904 157 904 C139 904 126 882 121 872 C121 872 41 711 35 701 L47 691 C99 754 134 790 157 810 C201 765 267 691 267 691 L279 701 C279 701 243 772 194 872 L194 872 Z M120 836 C117 841 117 843 119 842 L120 836 L120 836 Z M34 701 C34 700 34 700 34 701 L34 701 Z M273 15 L265 15 C238 15 220 41 220 80 L220 580 C220 619 238 645 265 645 L273 645 L273 660 L39 660 L39 645 L47 645 C74 645 92 619 92 580 L92 80 C92 41 74 15 47 15 L39 15 L39 0 L273 0 L273 15 L273 15 Z " />
<glyph glyph-name="Idieresis" unicode="&#xcf;" horiz-adv-x="314" d="M257 730 C300 730 328 758 328 800 C328 843 300 871 257 871 C215 871 187 843 187 800 C187 758 215 730 257 730 L257 730 Z M57 730 C99 730 127 758 127 800 C127 843 99 871 57 871 C14 871 -14 843 -14 800 C-14 758 14 730 57 730 L57 730 Z M274 15 L266 15 C239 15 221 41 221 80 L221 580 C221 619 239 645 266 645 L274 645 L274 660 L40 660 L40 645 L48 645 C75 645 93 619 93 580 L93 80 C93 41 75 15 48 15 L40 15 L40 0 L274 0 L274 15 L274 15 Z " />
<glyph glyph-name="Ntilde" unicode="&#xd1;" horiz-adv-x="677" d="M199 755 C199 789 215 811 238 811 C289 811 357 748 408 748 C461 748 497 803 497 885 L478 885 C478 849 460 825 433 825 C382 825 314 887 263 887 C213 887 180 834 180 755 L199 755 L199 755 Z M37 645 L45 645 C72 645 90 619 90 580 L90 80 C90 41 72 15 45 15 L37 15 L37 0 L182 0 L182 15 L174 15 C147 15 129 41 129 80 L129 547 C267 358 404 169 542 -20 L587 -20 L587 580 C587 619 605 645 632 645 L640 645 L640 660 L495 660 L495 645 L503 645 C530 645 548 619 548 580 L548 184 L205 660 L37 660 L37 645 L37 645 Z " />
<glyph glyph-name="Ograve" unicode="&#xd2;" horiz-adv-x="759" d="M182 330 C182 494 248 633 376 633 C503 633 569 494 569 330 C569 166 503 27 376 27 C248 27 182 166 182 330 L182 330 Z M42 330 C42 149 156 -5 376 -5 C596 -5 709 149 709 330 C709 511 596 665 376 665 C156 665 42 511 42 330 L42 330 Z M291 861 C291 854 306 837 328 814 C360 774 447 690 447 690 L460 699 C460 699 418 818 386 859 C372 889 362 909 357 909 C337 909 291 875 291 861 L291 861 Z " />
<glyph glyph-name="Oacute" unicode="&#xd3;" horiz-adv-x="759" d="M353 690 C353 690 438 774 469 814 C491 838 505 855 505 861 C505 875 459 909 439 909 C435 909 425 889 411 859 C380 819 340 699 340 699 L353 690 L353 690 Z M182 330 C182 494 248 633 376 633 C503 633 569 494 569 330 C569 166 503 27 376 27 C248 27 182 166 182 330 L182 330 Z M42 330 C42 149 156 -5 376 -5 C596 -5 709 149 709 330 C709 511 596 665 376 665 C156 665 42 511 42 330 L42 330 Z " />
<glyph glyph-name="Ocircumflex" unicode="&#xd4;" horiz-adv-x="759" d="M182 330 C182 494 248 633 376 633 C503 633 569 494 569 330 C569 166 503 27 376 27 C248 27 182 166 182 330 L182 330 Z M42 330 C42 149 156 -5 376 -5 C596 -5 709 149 709 330 C709 511 596 665 376 665 C156 665 42 511 42 330 L42 330 Z M412 872 C407 882 394 904 376 904 C357 904 344 882 339 872 C339 872 251 699 253 701 L265 691 C317 754 353 790 376 810 C420 765 486 691 486 691 L498 701 C498 701 460 774 412 872 L412 872 Z M339 836 C336 841 336 843 338 842 L339 836 L339 836 Z " />
<glyph glyph-name="Otilde" unicode="&#xd5;" horiz-adv-x="759" d="M236 755 C236 789 252 811 275 811 C326 811 394 748 445 748 C498 748 534 803 534 885 L515 885 C515 849 497 825 470 825 C419 825 351 887 300 887 C250 887 217 834 217 755 L236 755 L236 755 Z M182 330 C182 494 248 633 376 633 C503 633 569 494 569 330 C569 166 503 27 376 27 C248 27 182 166 182 330 L182 330 Z M42 330 C42 149 156 -5 376 -5 C596 -5 709 149 709 330 C709 511 596 665 376 665 C156 665 42 511 42 330 L42 330 Z " />
<glyph glyph-name="Odieresis" unicode="&#xd6;" horiz-adv-x="759" d="M476 730 C518 730 546 758 546 800 C546 843 518 871 476 871 C434 871 406 843 406 800 C406 758 434 730 476 730 L476 730 Z M275 730 C317 730 345 758 345 800 C345 843 317 871 275 871 C233 871 205 843 205 800 C205 758 233 730 275 730 L275 730 Z M182 330 C182 494 248 633 376 633 C503 633 569 494 569 330 C569 166 503 27 376 27 C248 27 182 166 182 330 L182 330 Z M42 330 C42 149 156 -5 376 -5 C596 -5 709 149 709 330 C709 511 596 665 376 665 C156 665 42 511 42 330 L42 330 Z " />
<glyph glyph-name="Oslash" unicode="&#xd8;" horiz-adv-x="759" d="M62 -25 L154 68 C209 23 283 -4 376 -4 C596 -4 709 150 709 331 C709 415 685 493 637 553 L730 646 L690 686 L598 593 C544 638 470 665 377 665 C157 665 43 511 43 330 C43 246 68 168 116 108 L23 15 L62 -25 L62 -25 Z M531 525 L201 193 C189 234 183 281 183 330 C183 494 249 633 377 633 C447 633 499 591 531 525 L531 525 Z M553 467 C565 426 571 379 571 330 C571 166 505 27 378 27 C307 27 255 69 223 135 L553 467 L553 467 Z " />
<glyph glyph-name="Ugrave" unicode="&#xd9;" horiz-adv-x="656" d="M242 861 C242 853 256 836 278 814 C310 773 398 690 398 690 L411 699 C411 699 369 818 337 859 C323 889 312 909 307 909 C288 909 242 875 242 861 L242 861 Z M636 660 L473 660 L473 645 L483 645 C515 645 537 615 537 570 L537 202 C537 105 485 40 350 40 C245 40 204 102 204 194 L204 580 C204 619 222 645 249 645 L257 645 L257 660 L23 660 L23 645 L31 645 C58 645 76 619 76 580 L76 219 C76 85 147 -5 331 -5 C507 -5 576 73 576 189 L576 570 C576 615 596 645 627 645 L636 645 L636 660 L636 660 Z " />
<glyph glyph-name="Uacute" unicode="&#xda;" horiz-adv-x="656" d="M326 690 C326 690 412 774 443 814 C464 837 478 854 478 861 C478 875 433 909 413 909 C409 909 398 889 384 859 C353 819 313 699 313 699 L326 690 L326 690 Z M636 660 L473 660 L473 645 L483 645 C515 645 537 615 537 570 L537 202 C537 105 485 40 350 40 C245 40 204 102 204 194 L204 580 C204 619 222 645 249 645 L257 645 L257 660 L23 660 L23 645 L31 645 C58 645 76 619 76 580 L76 219 C76 85 147 -5 331 -5 C507 -5 576 73 576 189 L576 570 C576 615 596 645 627 645 L636 645 L636 660 L636 660 Z " />
<glyph glyph-name="Ucircumflex" unicode="&#xdb;" horiz-adv-x="656" d="M363 872 C358 882 345 904 326 904 C308 904 295 882 290 872 C290 872 202 699 204 701 L216 691 C268 753 303 789 326 809 C370 764 435 691 435 691 L447 701 C447 701 411 772 362 872 L363 872 L363 872 Z M288 836 C285 841 285 843 287 842 L288 836 L288 836 Z M634 660 L471 660 L471 645 L481 645 C513 645 535 615 535 570 L535 202 C535 105 483 40 348 40 C243 40 202 102 202 194 L202 580 C202 619 220 645 247 645 L255 645 L255 660 L21 660 L21 645 L29 645 C56 645 74 619 74 580 L74 219 C74 85 145 -5 329 -5 C505 -5 574 73 574 189 L574 570 C574 615 594 645 625 645 L634 645 L634 660 L634 660 Z " />
<glyph glyph-name="Udieresis" unicode="&#xdc;" horiz-adv-x="656" d="M426 730 C469 730 497 758 497 800 C497 843 469 871 426 871 C384 871 356 843 356 800 C356 758 384 730 426 730 L426 730 Z M226 730 C268 730 296 758 296 800 C296 843 268 871 226 871 C183 871 155 843 155 800 C155 758 183 730 226 730 L226 730 Z M636 660 L473 660 L473 645 L483 645 C515 645 537 615 537 570 L537 202 C537 105 485 40 350 40 C245 40 204 102 204 194 L204 580 C204 619 222 645 249 645 L257 645 L257 660 L23 660 L23 645 L31 645 C58 645 76 619 76 580 L76 219 C76 85 147 -5 331 -5 C507 -5 576 73 576 189 L576 570 C576 615 596 645 627 645 L636 645 L636 660 L636 660 Z " />
<glyph glyph-name="Yacute" unicode="&#xdd;" horiz-adv-x="644" d="M319 690 C319 690 405 774 436 814 C457 837 471 854 471 861 C471 875 426 909 406 909 C402 909 391 889 377 859 C346 819 306 699 306 699 L319 690 L319 690 Z M251 660 L4 660 L4 645 C29 645 51 628 75 592 L255 289 L255 80 C255 41 237 15 210 15 L202 15 L202 0 L436 0 L436 15 L428 15 C401 15 383 41 383 80 L383 330 L383 330 L558 590 C585 627 610 645 640 645 L640 660 L487 660 L487 645 L497 645 C530 645 533 616 507 571 L367 356 L233 584 C213 621 217 645 244 645 L253 645 L251 660 L251 660 Z " />
<glyph glyph-name="agrave" unicode="&#xe0;" horiz-adv-x="512" d="M490 64 C482 53 470 45 444 45 C414 45 405 72 405 112 L405 352 C405 444 350 505 267 505 C92 505 9 413 59 276 L174 276 C131 394 158 473 241 473 C266 473 283 435 283 378 L283 264 C261 261 237 257 218 252 C109 225 37 166 37 105 C37 39 84 -5 155 -5 C207 -5 256 11 293 37 C304 7 326 -11 367 -11 C443 -11 481 12 504 47 L490 64 L490 64 Z M149 700 C149 692 163 675 185 653 C217 612 305 529 305 529 L318 538 C318 538 276 657 244 698 C230 728 219 748 214 748 C195 748 149 714 149 700 L149 700 Z M284 231 L284 99 C284 92 284 85 284 79 C263 74 239 71 212 71 C175 71 150 97 150 137 C150 174 177 205 217 215 C241 221 263 226 282 230 L284 231 L284 231 Z " />
<glyph glyph-name="aacute" unicode="&#xe1;" horiz-adv-x="512" d="M202 530 C202 530 288 614 319 654 C340 677 354 694 354 701 C354 715 309 749 289 749 C285 749 274 729 260 699 C229 659 189 539 189 539 L202 530 L202 530 Z M490 64 C482 53 470 45 444 45 C414 45 405 72 405 112 L405 352 C405 444 350 505 267 505 C92 505 9 413 59 276 L174 276 C131 394 158 473 241 473 C266 473 283 435 283 378 L283 264 C261 261 237 257 218 252 C109 225 37 166 37 105 C37 39 84 -5 155 -5 C207 -5 256 11 293 37 C304 7 326 -11 367 -11 C443 -11 481 12 504 47 L490 64 L490 64 Z M284 231 L284 99 C284 92 284 85 284 79 C263 74 239 71 212 71 C175 71 150 97 150 137 C150 174 177 205 217 215 C241 221 263 226 282 230 L284 231 L284 231 Z " />
<glyph glyph-name="acircumflex" unicode="&#xe2;" horiz-adv-x="512" d="M490 64 C482 53 470 45 444 45 C414 45 405 72 405 112 L405 352 C405 444 350 505 267 505 C92 505 9 413 59 276 L174 276 C131 394 158 473 241 473 C266 473 283 435 283 378 L283 264 C261 261 237 257 218 252 C109 225 37 166 37 105 C37 39 84 -5 155 -5 C207 -5 256 11 293 37 C304 7 326 -11 367 -11 C443 -11 481 12 504 47 L490 64 L490 64 Z M270 711 C265 721 252 743 233 743 C215 743 202 721 197 711 C197 711 109 538 111 540 L123 530 C175 592 210 628 233 648 C277 603 342 530 342 530 L354 540 C354 540 318 611 269 711 L270 711 L270 711 Z M195 675 C192 680 192 682 194 681 L195 675 L195 675 Z M282 231 L282 99 C282 92 282 85 282 79 C261 74 237 71 210 71 C173 71 148 97 148 137 C148 174 175 205 215 215 C239 221 261 226 280 230 L282 231 L282 231 Z " />
<glyph glyph-name="atilde" unicode="&#xe3;" horiz-adv-x="512" d="M93 595 C93 629 109 651 132 651 C183 651 250 588 301 588 C354 588 390 643 390 725 L371 725 C371 689 353 665 326 665 C275 665 208 727 157 727 C107 727 74 674 74 595 L93 595 L93 595 Z M490 64 C482 53 470 45 444 45 C414 45 405 72 405 112 L405 352 C405 444 350 505 267 505 C92 505 9 413 59 276 L174 276 C131 394 158 473 241 473 C266 473 283 435 283 378 L283 264 C261 261 237 257 218 252 C109 225 37 166 37 105 C37 39 84 -5 155 -5 C207 -5 256 11 293 37 C304 7 326 -11 367 -11 C443 -11 481 12 504 47 L490 64 L490 64 Z M284 231 L284 99 C284 92 284 85 284 79 C263 74 239 71 212 71 C175 71 150 97 150 137 C150 174 177 205 217 215 C241 221 263 226 282 230 L284 231 L284 231 Z " />
<glyph glyph-name="adieresis" unicode="&#xe4;" horiz-adv-x="512" d="M332 570 C375 570 403 598 403 640 C403 683 375 711 332 711 C290 711 262 683 262 640 C262 598 290 570 332 570 L332 570 Z M132 570 C174 570 202 598 202 640 C202 683 174 711 132 711 C89 711 61 683 61 640 C61 598 89 570 132 570 L132 570 Z M490 64 C482 53 470 45 444 45 C414 45 405 72 405 112 L405 352 C405 444 350 505 267 505 C92 505 9 413 59 276 L174 276 C131 394 158 473 241 473 C266 473 283 435 283 378 L283 264 C261 261 237 257 218 252 C109 225 37 166 37 105 C37 39 84 -5 155 -5 C207 -5 256 11 293 37 C304 7 326 -11 367 -11 C443 -11 481 12 504 47 L490 64 L490 64 Z M284 231 L284 99 C284 92 284 85 284 79 C263 74 239 71 212 71 C175 71 150 97 150 137 C150 174 177 205 217 215 C241 221 263 226 282 230 L284 231 L284 231 Z " />
<glyph glyph-name="aring" unicode="&#xe5;" horiz-adv-x="512" d="M168 628 C168 668 194 694 232 694 C270 694 296 668 296 628 C296 592 267 561 232 561 C197 561 168 592 168 628 L168 628 Z M136 628 C136 578 180 535 232 535 C284 535 328 578 328 628 C328 683 290 720 232 720 C174 720 136 683 136 628 L136 628 Z M490 64 C482 53 470 45 444 45 C414 45 405 72 405 112 L405 352 C405 444 350 505 267 505 C92 505 9 413 59 276 L174 276 C131 394 158 473 241 473 C266 473 283 435 283 378 L283 264 C261 261 237 257 218 252 C109 225 37 166 37 105 C37 39 84 -5 155 -5 C207 -5 256 11 293 37 C304 7 326 -11 367 -11 C443 -11 481 12 504 47 L490 64 L490 64 Z M284 231 L284 99 C284 92 284 85 284 79 C263 74 239 71 212 71 C175 71 150 97 150 137 C150 174 177 205 217 215 C241 221 263 226 282 230 L284 231 L284 231 Z " />
<glyph glyph-name="ccedilla" unicode="&#xe7;" horiz-adv-x="521" d="M220 -74 L208 -94 C212 -87 216 -80 220 -74 L220 -74 Z M222 -72 C250 -28 271 -11 282 -4 C393 6 468 98 473 232 L457 232 C454 132 414 65 358 65 C247 65 173 148 173 273 C173 393 221 473 294 473 C332 473 360 445 364 404 C367 370 390 348 421 348 C452 348 472 368 472 399 C466 463 400 505 307 505 C153 505 51 395 51 229 C51 94 129 2 249 -4 C243 -15 225 -46 201 -89 L209 -93 C225 -84 245 -78 258 -78 C287 -78 306 -100 306 -133 C306 -165 278 -186 235 -186 C208 -186 185 -180 176 -172 L169 -184 C191 -205 227 -219 258 -219 C329 -219 377 -185 377 -133 C377 -86 340 -55 285 -55 C265 -55 239 -61 222 -71 L222 -72 L222 -72 Z " />
<glyph glyph-name="egrave" unicode="&#xe8;" horiz-adv-x="527" d="M478 232 L462 232 C459 132 418 65 360 65 C237 65 165 160 173 300 L477 300 C477 423 400 505 285 505 C144 505 50 395 50 229 C50 89 136 -5 264 -5 C387 -5 473 90 478 232 L478 232 Z M201 701 C201 693 215 676 237 654 C269 613 357 530 357 530 L370 539 C370 539 328 658 296 699 C282 729 271 749 266 749 C247 749 201 715 201 701 L201 701 Z M370 393 L370 396 C370 395 370 394 370 393 L370 393 Z M315 337 L175 322 C185 414 224 473 279 473 C334 473 370 442 370 396 C369 363 348 340 315 337 L315 337 Z " />
<glyph glyph-name="eacute" unicode="&#xe9;" horiz-adv-x="527" d="M255 530 C255 530 341 614 372 654 C393 677 407 694 407 701 C407 715 362 749 342 749 C338 749 327 729 313 699 C282 659 242 539 242 539 L255 530 L255 530 Z M478 232 L462 232 C459 132 418 65 360 65 C237 65 165 160 173 300 L477 300 C477 423 400 505 285 505 C144 505 50 395 50 229 C50 89 136 -5 264 -5 C387 -5 473 90 478 232 L478 232 Z M370 393 L370 396 C370 395 370 394 370 393 L370 393 Z M315 337 L175 322 C185 414 224 473 279 473 C334 473 370 442 370 396 C369 363 348 340 315 337 L315 337 Z " />
<glyph glyph-name="ecircumflex" unicode="&#xea;" horiz-adv-x="527" d="M478 232 L462 232 C459 132 418 65 360 65 C237 65 165 160 173 300 L477 300 C477 423 400 505 285 505 C144 505 50 395 50 229 C50 89 136 -5 264 -5 C387 -5 473 90 478 232 L478 232 Z M322 712 C317 722 304 744 285 744 C267 744 254 722 249 712 C249 712 161 539 163 541 L175 531 C227 593 262 629 285 649 C329 604 394 531 394 531 L406 541 C406 541 370 612 321 712 L322 712 L322 712 Z M247 676 C244 681 244 683 246 682 L247 676 L247 676 Z M368 393 L368 396 C368 395 368 394 368 393 L368 393 Z M313 337 L173 322 C183 414 222 473 277 473 C332 473 368 442 368 396 C367 363 346 340 313 337 L313 337 Z " />
<glyph glyph-name="edieresis" unicode="&#xeb;" horiz-adv-x="527" d="M385 570 C428 570 456 598 456 640 C456 683 428 711 385 711 C343 711 315 683 315 640 C315 598 343 570 385 570 L385 570 Z M185 570 C227 570 255 598 255 640 C255 683 227 711 185 711 C142 711 114 683 114 640 C114 598 142 570 185 570 L185 570 Z M478 232 L462 232 C459 132 418 65 360 65 C237 65 165 160 173 300 L477 300 C477 423 400 505 285 505 C144 505 50 395 50 229 C50 89 136 -5 264 -5 C387 -5 473 90 478 232 L478 232 Z M370 393 L370 396 C370 395 370 394 370 393 L370 393 Z M315 337 L175 322 C185 414 224 473 279 473 C334 473 370 442 370 396 C369 363 348 340 315 337 L315 337 Z " />
<glyph glyph-name="igrave" unicode="&#xec;" horiz-adv-x="311" d="M72 701 C72 693 86 676 108 654 C140 613 228 530 228 530 L241 539 C241 539 199 658 167 699 C153 729 142 749 137 749 C118 749 72 715 72 701 L72 701 Z M266 15 L258 15 C231 15 213 41 213 80 L213 500 L190 500 L45 455 L45 446 C88 430 98 418 98 359 L98 80 C98 41 80 15 53 15 L45 15 L45 0 L266 0 L266 15 L266 15 Z " />
<glyph glyph-name="iacute" unicode="&#xed;" horiz-adv-x="311" d="M80 530 C80 530 166 614 197 654 C218 677 232 694 232 701 C232 715 187 749 167 749 C163 749 152 729 138 699 C107 659 67 539 67 539 L80 530 L80 530 Z M266 15 L258 15 C231 15 213 41 213 80 L213 500 L190 500 L45 455 L45 446 C88 430 98 418 98 359 L98 80 C98 41 80 15 53 15 L45 15 L45 0 L266 0 L266 15 L266 15 Z " />
<glyph glyph-name="icircumflex" unicode="&#xee;" horiz-adv-x="311" d="M193 712 C188 722 175 744 156 744 C138 744 125 722 120 712 C120 712 32 539 34 541 L46 531 C98 593 133 629 156 649 C200 604 265 531 265 531 L277 541 C277 541 241 612 192 712 L193 712 L193 712 Z M118 676 C115 681 115 683 117 682 L118 676 L118 676 Z M264 15 L256 15 C229 15 211 41 211 80 L211 500 L188 500 L43 455 L43 446 C86 430 96 418 96 359 L96 80 C96 41 78 15 51 15 L43 15 L43 0 L264 0 L264 15 L264 15 Z " />
<glyph glyph-name="idieresis" unicode="&#xef;" horiz-adv-x="311" d="M256 570 C299 570 327 598 327 640 C327 683 299 711 256 711 C214 711 186 683 186 640 C186 598 214 570 256 570 L256 570 Z M56 570 C98 570 126 598 126 640 C126 683 98 711 56 711 C13 711 -15 683 -15 640 C-15 598 13 570 56 570 L56 570 Z M266 15 L258 15 C231 15 213 41 213 80 L213 500 L190 500 L45 455 L45 446 C88 430 98 418 98 359 L98 80 C98 41 80 15 53 15 L45 15 L45 0 L266 0 L266 15 L266 15 Z " />
<glyph glyph-name="ntilde" unicode="&#xf1;" horiz-adv-x="592" d="M159 595 C159 629 175 651 198 651 C249 651 316 588 367 588 C420 588 456 643 456 725 L437 725 C437 689 419 665 392 665 C341 665 274 727 223 727 C173 727 140 674 140 595 L159 595 L159 595 Z M331 0 L552 0 L552 15 L544 15 C517 15 499 41 499 80 L499 338 C499 438 468 505 387 505 C303 505 240 468 213 407 L213 500 L190 500 L45 455 L45 446 C88 430 98 418 98 359 L98 80 C98 41 80 15 53 15 L45 15 L45 0 L266 0 L266 15 L258 15 C231 15 213 41 213 80 L213 363 C225 403 257 428 300 428 C361 428 385 387 385 326 L385 80 C385 41 367 15 340 15 L332 15 L331 0 L331 0 Z " />
<glyph glyph-name="ograve" unicode="&#xf2;" horiz-adv-x="607" d="M178 250 C178 387 228 479 304 479 C379 479 429 387 429 250 C429 113 379 21 304 21 C228 21 178 113 178 250 L178 250 Z M50 250 C50 97 152 -5 304 -5 C456 -5 557 97 557 250 C557 403 456 505 304 505 C152 505 50 403 50 250 L50 250 Z M219 701 C219 694 234 677 256 654 C288 614 375 530 375 530 L388 539 C388 539 346 658 314 699 C300 729 290 749 285 749 C265 749 219 715 219 701 L219 701 Z " />
<glyph glyph-name="oacute" unicode="&#xf3;" horiz-adv-x="607" d="M274 530 C274 530 359 614 390 654 C412 678 426 695 426 701 C426 715 380 749 360 749 C356 749 346 729 332 699 C301 659 261 539 261 539 L274 530 L274 530 Z M178 250 C178 387 228 479 304 479 C379 479 429 387 429 250 C429 113 379 21 304 21 C228 21 178 113 178 250 L178 250 Z M50 250 C50 97 152 -5 304 -5 C456 -5 557 97 557 250 C557 403 456 505 304 505 C152 505 50 403 50 250 L50 250 Z " />
<glyph glyph-name="ocircumflex" unicode="&#xf4;" horiz-adv-x="607" d="M178 250 C178 387 228 479 304 479 C379 479 429 387 429 250 C429 113 379 21 304 21 C228 21 178 113 178 250 L178 250 Z M50 250 C50 97 152 -5 304 -5 C456 -5 557 97 557 250 C557 403 456 505 304 505 C152 505 50 403 50 250 L50 250 Z M340 712 C335 722 322 744 304 744 C285 744 272 722 267 712 C267 712 179 539 181 541 L193 531 C245 594 281 630 304 650 C348 605 414 531 414 531 L426 541 C426 541 388 614 340 712 L340 712 Z M267 676 C264 681 264 683 266 682 L267 676 L267 676 Z " />
<glyph glyph-name="otilde" unicode="&#xf5;" horiz-adv-x="607" d="M164 595 C164 629 180 651 203 651 C254 651 322 588 373 588 C426 588 462 643 462 725 L443 725 C443 689 425 665 398 665 C347 665 279 727 228 727 C178 727 145 674 145 595 L164 595 L164 595 Z M178 250 C178 387 228 479 304 479 C379 479 429 387 429 250 C429 113 379 21 304 21 C228 21 178 113 178 250 L178 250 Z M50 250 C50 97 152 -5 304 -5 C456 -5 557 97 557 250 C557 403 456 505 304 505 C152 505 50 403 50 250 L50 250 Z " />
<glyph glyph-name="odieresis" unicode="&#xf6;" horiz-adv-x="607" d="M404 570 C446 570 474 598 474 640 C474 683 446 711 404 711 C362 711 334 683 334 640 C334 598 362 570 404 570 L404 570 Z M203 570 C245 570 273 598 273 640 C273 683 245 711 203 711 C161 711 133 683 133 640 C133 598 161 570 203 570 L203 570 Z M178 250 C178 387 228 479 304 479 C379 479 429 387 429 250 C429 113 379 21 304 21 C228 21 178 113 178 250 L178 250 Z M50 250 C50 97 152 -5 304 -5 C456 -5 557 97 557 250 C557 403 456 505 304 505 C152 505 50 403 50 250 L50 250 Z " />
<glyph glyph-name="oslash" unicode="&#xf8;" horiz-adv-x="607" d="M64 -19 L134 52 C177 16 235 -4 303 -4 C455 -4 556 98 556 251 C556 320 536 378 500 421 L570 492 L542 520 L472 449 C429 485 371 505 303 505 C151 505 49 403 49 250 C49 182 69 124 105 81 L34 10 L64 -19 L64 -19 Z M407 385 L184 161 C179 188 176 218 176 251 C176 388 226 480 302 480 C349 480 386 445 407 385 L407 385 Z M419 341 C424 314 427 284 427 251 C427 114 377 22 302 22 C255 22 218 57 197 117 L419 341 L419 341 Z " />
<glyph glyph-name="ugrave" unicode="&#xf9;" horiz-adv-x="557" d="M522 54 C479 70 469 82 469 141 L469 500 L301 500 L301 485 L309 485 C336 485 354 459 354 420 L354 130 C347 94 327 71 288 71 C218 71 182 109 182 166 L182 500 L14 500 L14 485 L22 485 C49 485 67 459 67 420 L67 420 L68 154 C68 59 112 -5 198 -5 C282 -5 331 26 354 78 L354 0 L377 0 L522 45 L522 54 L522 54 Z M184 701 C184 693 198 676 220 654 C252 613 340 530 340 530 L353 539 C353 539 311 658 279 699 C265 729 254 749 249 749 C230 749 184 715 184 701 L184 701 Z " />
<glyph glyph-name="uacute" unicode="&#xfa;" horiz-adv-x="557" d="M238 530 C238 530 324 614 355 654 C376 677 390 694 390 701 C390 715 345 749 325 749 C321 749 310 729 296 699 C265 659 225 539 225 539 L238 530 L238 530 Z M522 54 C479 70 469 82 469 141 L469 500 L301 500 L301 485 L309 485 C336 485 354 459 354 420 L354 130 C347 94 327 71 288 71 C218 71 182 109 182 166 L182 500 L14 500 L14 485 L22 485 C49 485 67 459 67 420 L67 420 L68 154 C68 59 112 -5 198 -5 C282 -5 331 26 354 78 L354 0 L377 0 L522 45 L522 54 L522 54 Z " />
<glyph glyph-name="ucircumflex" unicode="&#xfb;" horiz-adv-x="557" d="M522 54 C479 70 469 82 469 141 L469 500 L301 500 L301 485 L309 485 C336 485 354 459 354 420 L354 130 C347 94 327 71 288 71 C218 71 182 109 182 166 L182 500 L14 500 L14 485 L22 485 C49 485 67 459 67 420 L67 420 L68 154 C68 59 112 -5 198 -5 C282 -5 331 26 354 78 L354 0 L377 0 L522 45 L522 54 L522 54 Z M305 712 C300 722 287 744 268 744 C250 744 237 722 232 712 C232 712 144 539 146 541 L158 531 C210 593 245 629 268 649 C312 604 377 531 377 531 L389 541 C389 541 353 612 304 712 L305 712 L305 712 Z M230 676 C227 681 227 683 229 682 L230 676 L230 676 Z " />
<glyph glyph-name="udieresis" unicode="&#xfc;" horiz-adv-x="557" d="M368 570 C411 570 439 598 439 640 C439 683 411 711 368 711 C326 711 298 683 298 640 C298 598 326 570 368 570 L368 570 Z M168 570 C210 570 238 598 238 640 C238 683 210 711 168 711 C125 711 97 683 97 640 C97 598 125 570 168 570 L168 570 Z M522 54 C479 70 469 82 469 141 L469 500 L301 500 L301 485 L309 485 C336 485 354 459 354 420 L354 130 C347 94 327 71 288 71 C218 71 182 109 182 166 L182 500 L14 500 L14 485 L22 485 C49 485 67 459 67 420 L67 420 L68 154 C68 59 112 -5 198 -5 C282 -5 331 26 354 78 L354 0 L377 0 L522 45 L522 54 L522 54 Z " />
<glyph glyph-name="ydieresis" unicode="&#xff;" horiz-adv-x="493" d="M367 570 C409 570 437 598 437 640 C437 683 409 711 367 711 C325 711 297 683 297 640 C297 598 325 570 367 570 L367 570 Z M166 570 C208 570 236 598 236 640 C236 683 208 711 166 711 C124 711 96 683 96 640 C96 598 124 570 166 570 L166 570 Z M216 500 L-15 500 L-15 485 C20 485 47 464 67 420 L67 420 L254 6 C247 -8 236 -31 223 -62 C194 -128 169 -154 134 -154 C134 -154 72 -129 46 -129 C11 -129 -12 -149 -12 -178 C-12 -209 18 -230 63 -230 C151 -230 204 -186 253 -72 C270 -32 280 -10 280 -10 L470 429 C490 467 514 485 548 485 L548 500 L409 500 L409 485 L416 485 C440 485 445 459 430 420 L430 420 L318 136 L187 439 C178 472 188 485 214 485 L216 500 L216 500 Z " />
<glyph glyph-name="Amacron" unicode="&#x100;" horiz-adv-x="674" d="M162 761 C162 761 370 764 462 761 L462 825 C369 822 162 825 162 825 L162 761 L162 761 Z M414 0 L666 0 L666 15 C637 15 615 31 596 65 L328 675 L296 675 L73 67 C56 31 32 15 0 15 L0 0 L168 0 L168 15 L157 15 C125 15 109 39 116 76 L171 232 L386 232 C407 181 429 130 450 80 C467 41 455 15 422 15 L413 15 L414 0 L414 0 Z M372 264 L182 264 L268 509 L372 264 L372 264 Z " />
<glyph glyph-name="amacron" unicode="&#x101;" horiz-adv-x="512" d="M82 601 L382 601 L382 665 L82 665 L82 601 L82 601 Z M490 64 C482 53 470 45 444 45 C414 45 405 72 405 112 L405 352 C405 444 350 505 267 505 C92 505 9 413 59 276 L174 276 C131 394 158 473 241 473 C266 473 283 435 283 378 L283 264 C261 261 237 257 218 252 C109 225 37 166 37 105 C37 39 84 -5 155 -5 C207 -5 256 11 293 37 C304 7 326 -11 367 -11 C443 -11 481 12 504 47 L490 64 L490 64 Z M284 231 L284 99 C284 92 284 85 284 79 C263 74 239 71 212 71 C175 71 150 97 150 137 C150 174 177 205 217 215 C241 221 263 226 282 230 L284 231 L284 231 Z " />
<glyph glyph-name="Abreve" unicode="&#x102;" horiz-adv-x="674" d="M180 870 C214 790 265 739 312 736 C357 736 410 790 444 870 L425 878 C408 838 363 812 312 812 C258 809 216 838 199 878 L180 870 L180 870 Z M414 0 L666 0 L666 15 C637 15 615 31 596 65 L328 675 L296 675 L73 67 C56 31 32 15 0 15 L0 0 L168 0 L168 15 L157 15 C125 15 109 39 116 76 L171 232 L386 232 C407 181 429 130 450 80 C467 41 455 15 422 15 L413 15 L414 0 L414 0 Z M372 264 L182 264 L268 509 L372 264 L372 264 Z " />
<glyph glyph-name="abreve" unicode="&#x103;" horiz-adv-x="512" d="M100 680 C134 600 187 546 232 546 C277 546 330 600 364 680 L345 688 C328 648 283 622 232 622 C181 622 136 648 119 688 L100 680 L100 680 Z M490 64 C482 53 470 45 444 45 C414 45 405 72 405 112 L405 352 C405 444 350 505 267 505 C92 505 9 413 59 276 L174 276 C131 394 158 473 241 473 C266 473 283 435 283 378 L283 264 C261 261 237 257 218 252 C109 225 37 166 37 105 C37 39 84 -5 155 -5 C207 -5 256 11 293 37 C304 7 326 -11 367 -11 C443 -11 481 12 504 47 L490 64 L490 64 Z M284 231 L284 99 C284 92 284 85 284 79 C263 74 239 71 212 71 C175 71 150 97 150 137 C150 174 177 205 217 215 C241 221 263 226 282 230 L284 231 L284 231 Z " />
<glyph glyph-name="Aogonek" unicode="&#x104;" horiz-adv-x="674" d="M666 15 C637 15 615 31 596 65 L328 675 L296 675 L73 67 C56 31 32 15 0 15 L0 0 L168 0 L168 15 L157 15 C125 15 109 39 116 76 L171 232 L386 232 C407 181 429 130 450 80 C467 41 455 15 422 15 L413 15 L413 0 L436 0 C379 -37 309 -103 311 -154 C311 -203 367 -236 450 -236 C486 -236 521 -224 536 -206 L528 -196 C524 -201 503 -204 475 -204 C419 -204 382 -179 382 -142 C380 -76 453 -11 484 0 L665 0 L666 15 L666 15 Z M372 264 L182 264 L268 509 L372 264 L372 264 Z " />
<glyph glyph-name="aogonek" unicode="&#x105;" horiz-adv-x="512" d="M490 64 C482 53 470 45 444 45 C414 45 405 72 405 112 L405 352 C405 444 350 505 267 505 C92 505 9 413 59 276 L174 276 C131 394 158 473 241 473 C266 473 283 435 283 378 L283 264 C261 261 237 257 218 252 C109 225 37 166 37 105 C37 39 84 -5 155 -5 C207 -5 256 11 293 37 C307 -1 339 -14 393 -10 C346 -48 301 -100 301 -145 C301 -200 357 -237 440 -237 C476 -237 511 -225 526 -207 L518 -197 C514 -202 493 -205 465 -205 C409 -205 372 -176 372 -133 C372 -78 420 -21 454 4 C477 14 493 29 505 47 L490 64 L490 64 Z M285 231 L285 99 C285 92 285 85 285 79 C264 74 240 71 213 71 C176 71 151 97 151 137 C151 174 178 205 218 215 C242 221 264 226 283 230 L285 231 L285 231 Z " />
<glyph glyph-name="Cacute" unicode="&#x106;" horiz-adv-x="735" d="M367 690 C367 690 453 774 484 814 C505 837 519 854 519 861 C519 875 474 909 454 909 C450 909 439 889 425 859 C394 819 354 699 354 699 L367 690 L367 690 Z M675 448 L675 541 C662 615 557 665 413 665 C190 665 42 531 42 330 C42 129 190 -5 413 -5 C557 -5 662 45 675 119 L659 122 L659 122 L675 119 L675 212 L662 212 C658 202 653 188 649 178 C618 97 546 38 469 30 C469 28 419 27 412 27 C273 27 181 148 181 330 C181 512 273 633 412 633 C454 633 492 629 525 621 C574 604 622 550 647 483 C651 473 656 459 660 449 L675 448 L675 448 Z " />
<glyph glyph-name="cacute" unicode="&#x107;" horiz-adv-x="521" d="M230 530 C230 530 316 614 347 654 C368 677 382 694 382 701 C382 715 337 749 317 749 C313 749 302 729 288 699 C257 659 217 539 217 539 L230 530 L230 530 Z M472 232 L456 232 C453 132 413 65 357 65 C246 65 172 148 172 273 C172 393 220 473 293 473 C331 473 359 445 363 404 C366 370 389 348 420 348 C451 348 471 368 471 399 C465 463 399 505 306 505 C152 505 50 395 50 229 C50 89 134 -5 261 -5 C383 -5 467 90 472 232 L472 232 Z " />
<glyph glyph-name="Ccircumflex" unicode="&#x108;" horiz-adv-x="735" d="M675 448 L675 541 C662 615 557 665 413 665 C190 665 42 531 42 330 C42 129 190 -5 413 -5 C557 -5 662 45 675 119 L659 122 L659 122 L675 119 L675 212 L662 212 C658 202 653 188 649 178 C618 97 546 38 469 30 C469 28 419 27 412 27 C273 27 181 148 181 330 C181 512 273 633 412 633 C454 633 492 629 525 621 C574 604 622 550 647 483 C651 473 656 459 660 449 L675 448 L675 448 Z M448 873 C443 883 430 905 411 905 C393 905 380 883 375 873 C375 873 287 700 289 702 L301 692 C353 754 388 790 411 810 C455 765 520 692 520 692 L532 702 C532 702 496 773 447 873 L448 873 L448 873 Z M373 837 C370 842 370 844 372 843 L373 837 L373 837 Z " />
<glyph glyph-name="Cdot" unicode="&#x10a;" horiz-adv-x="735" d="M413 730 C455 730 483 758 483 800 C483 843 455 871 413 871 C371 871 343 843 343 800 C343 758 371 730 413 730 L413 730 Z M675 448 L675 541 C662 615 557 665 413 665 C190 665 42 531 42 330 C42 129 190 -5 413 -5 C557 -5 662 45 675 119 L659 122 L659 122 L675 119 L675 212 L662 212 C658 202 653 188 649 178 C618 97 546 38 469 30 C469 28 419 27 412 27 C273 27 181 148 181 330 C181 512 273 633 412 633 C454 633 492 629 525 621 C574 604 622 550 647 483 C651 473 656 459 660 449 L675 448 L675 448 Z " />
<glyph glyph-name="cdot" unicode="&#x10b;" horiz-adv-x="521" d="M306 570 C348 570 376 598 376 640 C376 683 348 711 306 711 C264 711 236 683 236 640 C236 598 264 570 306 570 L306 570 Z M472 232 L456 232 C453 132 413 65 357 65 C246 65 172 148 172 273 C172 393 220 473 293 473 C331 473 359 445 363 404 C366 370 389 348 420 348 C451 348 471 368 471 399 C465 463 399 505 306 505 C152 505 50 395 50 229 C50 89 134 -5 261 -5 C383 -5 467 90 472 232 L472 232 Z " />
<glyph glyph-name="Ccaron" unicode="&#x10c;" horiz-adv-x="735" d="M523 929 C523 929 458 856 414 811 C391 831 356 867 304 929 L292 919 L378 748 C383 738 396 716 414 716 C433 716 446 738 451 748 C500 848 536 919 536 919 L523 929 L523 929 Z M676 448 L676 541 C663 615 558 665 414 665 C191 665 43 531 43 330 C43 129 191 -5 414 -5 C558 -5 663 45 676 119 L660 122 L660 122 L676 119 L676 212 L663 212 C659 202 654 188 650 178 C619 97 547 38 470 30 C470 28 420 27 413 27 C274 27 182 148 182 330 C182 512 274 633 413 633 C455 633 493 629 526 621 C575 604 623 550 648 483 C652 473 657 459 661 449 L676 448 L676 448 Z M375 779 C373 778 373 780 376 785 L375 779 L375 779 Z " />
<glyph glyph-name="ccaron" unicode="&#x10d;" horiz-adv-x="521" d="M416 769 C416 769 351 696 307 651 C284 671 249 707 197 769 L185 759 L271 588 C276 578 289 556 307 556 C326 556 339 578 344 588 C393 688 429 759 429 759 L416 769 L416 769 Z M473 232 L457 232 C454 132 414 65 358 65 C247 65 173 148 173 273 C173 393 221 473 294 473 C332 473 360 445 364 404 C367 370 390 348 421 348 C452 348 472 368 472 399 C466 463 400 505 307 505 C153 505 51 395 51 229 C51 89 135 -5 262 -5 C384 -5 468 90 473 232 L473 232 Z M270 618 C268 617 268 619 271 624 L270 618 L270 618 Z " />
<glyph glyph-name="Dcaron" unicode="&#x10e;" horiz-adv-x="745" d="M437 929 C437 929 371 855 327 810 C304 830 268 866 216 929 L204 919 L290 748 C295 738 308 716 327 716 C345 716 358 738 363 748 C411 846 449 919 449 919 L437 929 L437 929 Z M290 778 C288 777 288 779 291 784 L290 778 L290 778 Z M34 645 L42 645 C69 645 87 619 87 580 L87 80 C87 41 69 15 42 15 L34 15 L34 0 L356 0 C560 0 696 132 696 330 C696 528 546 660 321 660 L34 660 L34 645 L34 645 Z M215 32 L215 628 L321 628 C469 628 568 509 568 330 C568 151 483 32 356 32 L215 32 L215 32 Z " />
<glyph glyph-name="dcaron" unicode="&#x10f;" horiz-adv-x="611" d="M619 751 C595 751 580 688 573 643 L547 477 L562 472 L645 616 C673 663 691 716 691 725 C691 744 641 751 619 751 L619 751 Z M333 666 C376 650 386 638 386 579 L386 457 C361 488 327 505 287 505 C147 505 54 391 54 219 C54 85 130 -5 243 -5 C309 -5 360 26 386 78 L386 0 L409 0 L554 45 L554 54 C511 70 501 82 501 141 L501 720 L478 720 L333 675 L333 666 L333 666 Z M386 124 C374 87 345 64 306 64 C227 64 174 143 174 262 C174 389 217 473 281 473 C329 473 367 441 386 388 L386 124 L386 124 Z " />
<glyph glyph-name="Emacron" unicode="&#x112;" horiz-adv-x="609" d="M150 761 C150 761 358 763 450 761 L450 825 C359 826 150 825 150 825 L150 761 L150 761 Z M451 276 L451 421 L439 421 L435 413 C423 386 382 368 331 368 L221 368 L221 628 L366 628 C426 628 481 596 503 547 L510 532 L521 532 L521 660 L40 660 L40 645 L48 645 C75 645 93 619 93 580 L93 80 C93 41 75 15 48 15 L40 15 L40 0 L520 0 L523 16 C529 50 537 94 543 128 L532 128 L522 113 C492 64 431 32 371 32 L221 32 L221 336 L331 336 C382 336 423 316 435 285 L439 276 L451 276 L451 276 Z " />
<glyph glyph-name="emacron" unicode="&#x113;" horiz-adv-x="527" d="M135 601 L435 601 L435 665 L135 665 L135 601 L135 601 Z M478 232 L462 232 C459 132 418 65 360 65 C237 65 165 160 173 300 L477 300 C477 423 400 505 285 505 C144 505 50 395 50 229 C50 89 136 -5 264 -5 C387 -5 473 90 478 232 L478 232 Z M370 393 L370 396 C370 395 370 394 370 393 L370 393 Z M315 337 L175 322 C185 414 224 473 279 473 C334 473 370 442 370 396 C369 363 348 340 315 337 L315 337 Z " />
<glyph glyph-name="Ebreve" unicode="&#x114;" horiz-adv-x="609" d="M167 870 C201 790 252 738 300 736 C345 736 398 790 432 870 L413 878 C396 838 351 812 300 812 C247 813 203 838 186 878 L167 870 L167 870 Z M451 276 L451 421 L439 421 L435 413 C423 386 382 368 331 368 L221 368 L221 628 L366 628 C426 628 481 596 503 547 L510 532 L521 532 L521 660 L40 660 L40 645 L48 645 C75 645 93 619 93 580 L93 80 C93 41 75 15 48 15 L40 15 L40 0 L520 0 L523 16 C529 50 537 94 543 128 L532 128 L522 113 C492 64 431 32 371 32 L221 32 L221 336 L331 336 C382 336 423 316 435 285 L439 276 L451 276 L451 276 Z " />
<glyph glyph-name="ebreve" unicode="&#x115;" horiz-adv-x="527" d="M153 710 C187 630 240 576 285 576 C330 576 383 630 417 710 L398 718 C381 678 336 652 285 652 C234 652 189 678 172 718 L153 710 L153 710 Z M478 232 L462 232 C459 132 418 65 360 65 C237 65 165 160 173 300 L477 300 C477 423 400 505 285 505 C144 505 50 395 50 229 C50 89 136 -5 264 -5 C387 -5 473 90 478 232 L478 232 Z M370 393 L370 396 C370 395 370 394 370 393 L370 393 Z M315 337 L175 322 C185 414 224 473 279 473 C334 473 370 442 370 396 C369 363 348 340 315 337 L315 337 Z " />
<glyph glyph-name="Edot" unicode="&#x116;" horiz-adv-x="609" d="M300 730 C342 730 370 758 370 800 C370 843 342 871 300 871 C257 871 229 843 229 800 C229 758 257 730 300 730 L300 730 Z M451 276 L451 421 L439 421 L435 413 C423 386 382 368 331 368 L221 368 L221 628 L366 628 C426 628 481 596 503 547 L510 532 L521 532 L521 660 L40 660 L40 645 L48 645 C75 645 93 619 93 580 L93 80 C93 41 75 15 48 15 L40 15 L40 0 L520 0 L523 16 C529 50 537 94 543 128 L532 128 L522 113 C492 64 431 32 371 32 L221 32 L221 336 L331 336 C382 336 423 316 435 285 L439 276 L451 276 L451 276 Z " />
<glyph glyph-name="edot" unicode="&#x117;" horiz-adv-x="527" d="M285 570 C327 570 355 598 355 640 C355 683 327 711 285 711 C243 711 215 683 215 640 C215 598 243 570 285 570 L285 570 Z M478 232 L462 232 C459 132 418 65 360 65 C237 65 165 160 173 300 L477 300 C477 423 400 505 285 505 C144 505 50 395 50 229 C50 89 136 -5 264 -5 C387 -5 473 90 478 232 L478 232 Z M370 393 L370 396 C370 395 370 394 370 393 L370 393 Z M315 337 L175 322 C185 414 224 473 279 473 C334 473 370 442 370 396 C369 363 348 340 315 337 L315 337 Z " />
<glyph glyph-name="Eogonek" unicode="&#x118;" horiz-adv-x="609" d="M451 276 L451 421 L439 421 L435 413 C423 386 382 368 331 368 L221 368 L221 628 L366 628 C426 628 481 596 503 547 L510 532 L521 532 L521 660 L40 660 L40 645 L48 645 C75 645 93 619 93 580 L93 80 C93 41 75 15 48 15 L40 15 L40 0 L467 0 C411 -37 342 -101 343 -154 C343 -203 399 -236 482 -236 C518 -236 553 -224 568 -206 L560 -196 C556 -201 535 -204 507 -204 C451 -204 414 -179 414 -142 C412 -77 485 -11 516 0 L520 0 L523 16 C529 50 537 94 543 128 L532 128 L522 113 C492 64 431 32 371 32 L221 32 L221 336 L331 336 C382 336 423 316 435 285 L439 276 L451 276 L451 276 Z " />
<glyph glyph-name="eogonek" unicode="&#x119;" horiz-adv-x="527" d="M370 393 L370 396 C370 395 370 394 370 393 L370 393 Z M408 83 C415 91 422 98 428 104 C422 96 416 89 409 83 L408 83 L408 83 Z M449 147 C422 134 382 104 348 66 C232 72 165 165 173 300 L477 300 C477 423 400 505 285 505 C144 505 50 395 50 229 C50 89 136 -5 264 -5 C277 -5 289 -4 301 -2 C290 -24 283 -47 283 -69 C283 -169 339 -235 422 -235 C458 -235 493 -223 508 -205 L500 -195 C496 -200 475 -203 447 -203 C391 -203 354 -144 354 -56 C354 -28 362 0 373 25 C409 47 438 81 456 124 L456 124 C469 155 477 191 478 230 L462 230 C461 198 456 169 448 145 L449 147 L449 147 Z M315 335 L175 320 C185 412 224 471 279 471 C334 471 370 440 370 394 C369 361 348 338 315 335 L315 335 Z " />
<glyph glyph-name="Ecaron" unicode="&#x11a;" horiz-adv-x="609" d="M410 929 C410 929 344 855 300 810 C277 830 241 866 189 929 L177 919 L263 748 C268 738 281 716 300 716 C318 716 331 738 336 748 C384 846 422 919 422 919 L410 929 L410 929 Z M263 778 C261 777 261 779 264 784 L263 778 L263 778 Z M452 276 L452 421 L440 421 L436 413 C424 386 383 368 332 368 L222 368 L222 628 L367 628 C427 628 482 596 504 547 L511 532 L522 532 L522 660 L41 660 L41 645 L49 645 C76 645 94 619 94 580 L94 80 C94 41 76 15 49 15 L41 15 L41 0 L521 0 L524 16 C530 50 538 94 544 128 L533 128 L523 113 C493 64 432 32 372 32 L222 32 L222 336 L332 336 C383 336 424 316 436 285 L440 276 L452 276 L452 276 Z " />
<glyph glyph-name="ecaron" unicode="&#x11b;" horiz-adv-x="527" d="M395 769 C395 769 330 696 286 651 C263 671 228 707 176 769 L164 759 L250 588 C255 578 268 556 286 556 C305 556 318 578 323 588 C372 688 408 759 408 759 L395 769 L395 769 Z M479 232 L463 232 C460 132 419 65 361 65 C238 65 166 160 174 300 L478 300 C478 423 401 505 286 505 C145 505 51 395 51 229 C51 89 137 -5 265 -5 C388 -5 474 90 479 232 L479 232 Z M249 618 C247 617 247 619 250 624 L249 618 L249 618 Z M372 393 L372 396 C372 395 372 394 372 393 L372 393 Z M317 337 L177 322 C187 414 226 473 281 473 C336 473 372 442 372 396 C371 363 350 340 317 337 L317 337 Z " />
<glyph glyph-name="Gcircumflex" unicode="&#x11c;" horiz-adv-x="803" d="M440 872 C435 882 422 904 403 904 C385 904 372 882 367 872 C367 872 279 699 281 701 L293 691 C345 753 380 789 403 809 C447 764 512 691 512 691 L524 701 C524 701 488 772 439 872 L440 872 L440 872 Z M365 836 C362 841 362 843 364 842 L365 836 L365 836 Z M653 448 L653 541 C640 615 539 665 401 665 C184 665 40 531 40 330 C40 129 184 -5 401 -5 C493 -5 595 18 655 53 L655 230 C655 269 673 295 700 295 L708 295 L708 310 L487 310 L487 295 L495 295 C522 295 540 269 540 230 L540 44 C496 33 447 27 401 27 C268 27 180 148 180 330 C180 512 268 633 401 633 C413 633 490 628 489 625 C543 615 599 558 627 482 C631 472 636 458 640 448 L653 448 L653 448 Z " />
<glyph glyph-name="Gbreve" unicode="&#x11e;" horiz-adv-x="803" d="M271 870 C305 790 358 736 403 736 C448 736 501 790 535 870 L516 878 C499 838 454 812 403 812 C352 812 307 838 290 878 L271 870 L271 870 Z M655 448 L655 541 C642 615 541 665 403 665 C186 665 42 531 42 330 C42 129 186 -5 403 -5 C495 -5 597 18 657 53 L657 230 C657 269 675 295 702 295 L710 295 L710 310 L489 310 L489 295 L497 295 C524 295 542 269 542 230 L542 44 C498 33 449 27 403 27 C270 27 182 148 182 330 C182 512 270 633 403 633 C415 633 492 628 491 625 C545 615 601 558 629 482 C633 472 638 458 642 448 L655 448 L655 448 Z " />
<glyph glyph-name="gbreve" unicode="&#x11f;" horiz-adv-x="479" d="M96 710 C130 630 183 576 228 576 C273 576 326 630 360 710 L341 718 C324 678 279 652 228 652 C177 652 132 678 115 718 L96 710 L96 710 Z M479 500 L341 472 C312 493 273 505 228 505 C124 505 54 441 54 346 C54 280 88 229 144 204 C81 194 41 151 41 90 C41 42 74 6 128 -10 C60 -29 16 -76 16 -134 C16 -199 79 -244 173 -244 C345 -244 459 -158 459 -29 C459 44 387 93 278 93 C259 93 189 90 189 90 C146 90 118 107 118 133 C118 165 140 186 173 186 L228 186 C333 186 403 250 403 345 C403 377 395 406 380 430 L479 436 L479 500 L479 500 Z M228 213 C188 213 162 266 162 346 C162 426 188 479 228 479 C268 479 295 426 295 346 C295 266 268 213 228 213 L228 213 Z M161 -16 C172 -17 183 -18 195 -18 L247 -15 C324 -15 376 -43 376 -86 C376 -161 300 -211 186 -211 C130 -211 93 -175 93 -120 C93 -67 120 -27 162 -16 L161 -16 L161 -16 Z " />
<glyph glyph-name="Gdot" unicode="&#x120;" horiz-adv-x="803" d="M403 730 C445 730 473 758 473 800 C473 843 445 871 403 871 C361 871 333 843 333 800 C333 758 361 730 403 730 L403 730 Z M655 448 L655 541 C642 615 541 665 403 665 C186 665 42 531 42 330 C42 129 186 -5 403 -5 C495 -5 597 18 657 53 L657 230 C657 269 675 295 702 295 L710 295 L710 310 L489 310 L489 295 L497 295 C524 295 542 269 542 230 L542 44 C498 33 449 27 403 27 C270 27 182 148 182 330 C182 512 270 633 403 633 C415 633 492 628 491 625 C545 615 601 558 629 482 C633 472 638 458 642 448 L655 448 L655 448 Z " />
<glyph glyph-name="gdot" unicode="&#x121;" horiz-adv-x="479" d="M228 570 C270 570 298 598 298 640 C298 683 270 711 228 711 C186 711 158 683 158 640 C158 598 186 570 228 570 L228 570 Z M479 500 L341 472 C312 493 273 505 228 505 C124 505 54 441 54 346 C54 280 88 229 144 204 C81 194 41 151 41 90 C41 42 74 6 128 -10 C60 -29 16 -76 16 -134 C16 -199 79 -244 173 -244 C345 -244 459 -158 459 -29 C459 44 387 93 278 93 C259 93 189 90 189 90 C146 90 118 107 118 133 C118 165 140 186 173 186 L228 186 C333 186 403 250 403 345 C403 377 395 406 380 430 L479 436 L479 500 L479 500 Z M228 213 C188 213 162 266 162 346 C162 426 188 479 228 479 C268 479 295 426 295 346 C295 266 268 213 228 213 L228 213 Z M161 -16 C172 -17 183 -18 195 -18 L247 -15 C324 -15 376 -43 376 -86 C376 -161 300 -211 186 -211 C130 -211 93 -175 93 -120 C93 -67 120 -27 162 -16 L161 -16 L161 -16 Z " />
<glyph glyph-name="Hcircumflex" unicode="&#x124;" horiz-adv-x="743" d="M408 872 C403 882 390 904 372 904 C353 904 340 882 335 872 C335 872 247 699 249 701 L261 691 C313 754 349 790 372 810 C416 765 482 691 482 691 L494 701 C494 701 456 774 408 872 L408 872 Z M335 836 C332 841 332 843 334 842 L335 836 L335 836 Z M702 15 L694 15 C667 15 649 41 649 80 L649 580 C649 619 667 645 694 645 L702 645 L702 660 L468 660 L468 645 L476 645 C503 645 521 619 521 580 L521 363 L220 363 L220 580 C220 619 238 645 265 645 L273 645 L273 660 L39 660 L39 645 L47 645 C74 645 92 619 92 580 L92 80 C92 41 74 15 47 15 L39 15 L39 0 L273 0 L273 15 L265 15 C238 15 220 41 220 80 L220 331 L521 331 L521 80 C521 41 503 15 476 15 L468 15 L468 0 L702 0 L702 15 L702 15 Z " />
<glyph glyph-name="Itilde" unicode="&#x128;" horiz-adv-x="314" d="M18 755 C18 789 34 815 57 811 C108 811 175 748 226 748 C279 748 315 803 315 885 L296 885 C296 849 278 825 251 825 C200 825 133 887 82 887 C29 876 -1 834 -1 755 L18 755 L18 755 Z M274 15 L266 15 C239 15 221 41 221 80 L221 580 C221 619 239 645 266 645 L274 645 L274 660 L40 660 L40 645 L48 645 C75 645 93 619 93 580 L93 80 C93 41 75 15 48 15 L40 15 L40 0 L274 0 L274 15 L274 15 Z " />
<glyph glyph-name="itilde" unicode="&#x129;" horiz-adv-x="311" d="M17 595 C17 629 33 651 56 651 C107 651 174 588 225 588 C278 588 314 643 314 725 L295 725 C295 689 277 665 250 665 C199 665 132 727 81 727 C31 727 -2 674 -2 595 L17 595 L17 595 Z M266 15 L258 15 C231 15 213 41 213 80 L213 500 L190 500 L45 455 L45 446 C88 430 98 418 98 359 L98 80 C98 41 80 15 53 15 L45 15 L45 0 L266 0 L266 15 L266 15 Z " />
<glyph glyph-name="Imacron" unicode="&#x12a;" horiz-adv-x="314" d="M7 761 C7 761 217 765 307 761 L307 825 C214 814 7 825 7 825 L7 761 L7 761 Z M274 15 L266 15 C239 15 221 41 221 80 L221 580 C221 619 239 645 266 645 L274 645 L274 660 L40 660 L40 645 L48 645 C75 645 93 619 93 580 L93 80 C93 41 75 15 48 15 L40 15 L40 0 L274 0 L274 15 L274 15 Z " />
<glyph glyph-name="imacron" unicode="&#x12b;" horiz-adv-x="311" d="M6 601 L306 601 L306 665 L6 665 L6 601 L6 601 Z M266 15 L258 15 C231 15 213 41 213 80 L213 500 L190 500 L45 455 L45 446 C88 430 98 418 98 359 L98 80 C98 41 80 15 53 15 L45 15 L45 0 L266 0 L266 15 L266 15 Z " />
<glyph glyph-name="Ibreve" unicode="&#x12c;" horiz-adv-x="314" d="M25 870 C59 790 112 740 157 736 C202 736 255 790 289 870 L270 878 C253 838 208 812 157 812 C103 801 61 838 44 878 L25 870 L25 870 Z M274 15 L266 15 C239 15 221 41 221 80 L221 580 C221 619 239 645 266 645 L274 645 L274 660 L40 660 L40 645 L48 645 C75 645 93 619 93 580 L93 80 C93 41 75 15 48 15 L40 15 L40 0 L274 0 L274 15 L274 15 Z " />
<glyph glyph-name="ibreve" unicode="&#x12d;" horiz-adv-x="311" d="M24 710 C58 630 111 576 156 576 C201 576 254 630 288 710 L269 718 C252 678 207 652 156 652 C105 652 60 678 43 718 L24 710 L24 710 Z M266 15 L258 15 C231 15 213 41 213 80 L213 500 L190 500 L45 455 L45 446 C88 430 98 418 98 359 L98 80 C98 41 80 15 53 15 L45 15 L45 0 L266 0 L266 15 L266 15 Z " />
<glyph glyph-name="Idot" unicode="&#x130;" horiz-adv-x="314" d="M157 730 C199 730 227 758 227 800 C227 843 199 871 157 871 C115 871 87 843 87 800 C87 758 115 730 157 730 L157 730 Z M274 15 L266 15 C239 15 221 41 221 80 L221 580 C221 619 239 645 266 645 L274 645 L274 660 L40 660 L40 645 L48 645 C75 645 93 619 93 580 L93 80 C93 41 75 15 48 15 L40 15 L40 0 L274 0 L274 15 L274 15 Z " />
<glyph glyph-name="dotlessi" unicode="&#x131;" horiz-adv-x="311" d="M266 15 L258 15 C231 15 213 41 213 80 L213 500 L190 500 L45 455 L45 446 C88 430 98 418 98 359 L98 80 C98 41 80 15 53 15 L45 15 L45 0 L266 0 L266 15 L266 15 Z " />
<glyph glyph-name="Jcircumflex" unicode="&#x134;" horiz-adv-x="422" d="M302 872 C297 882 284 904 265 904 C247 904 234 882 229 872 C229 872 141 699 143 701 L155 691 C207 753 242 789 265 809 C309 764 374 691 374 691 L386 701 C386 701 350 772 301 872 L302 872 L302 872 Z M227 836 C224 841 224 843 226 842 L227 836 L227 836 Z M380 660 L146 660 L146 645 L154 645 C181 645 199 619 199 580 L199 200 C199 68 187 16 157 16 C134 16 113 35 106 64 C98 95 76 115 49 115 C11 115 -10 95 -2 64 C9 20 60 -10 126 -10 C271 -10 327 79 327 308 L327 580 C327 619 345 645 372 645 L380 645 L380 660 L380 660 Z " />
<glyph glyph-name="Lacute" unicode="&#x139;" horiz-adv-x="609" d="M134 690 C134 690 220 774 251 814 C272 837 286 854 286 861 C286 875 241 909 221 909 C217 909 206 889 192 859 C161 819 121 699 121 699 L134 690 L134 690 Z M526 138 L517 122 C489 68 435 32 381 32 L221 32 L221 580 C221 619 239 645 266 645 L274 645 L274 660 L40 660 L40 645 L48 645 C75 645 93 619 93 580 L93 80 C93 41 75 15 48 15 L40 15 L40 0 L520 0 L523 16 C529 51 538 98 544 133 C537 135 526 138 526 138 L526 138 Z " />
<glyph glyph-name="Lcaron" unicode="&#x13d;" horiz-adv-x="609" d="M392 691 C368 691 353 628 346 583 L320 417 L335 412 L418 556 C446 603 464 656 464 665 C464 684 414 691 392 691 L392 691 Z M526 138 L517 122 C489 68 435 32 381 32 L221 32 L221 580 C221 619 239 645 266 645 L274 645 L274 660 L40 660 L40 645 L48 645 C75 645 93 619 93 580 L93 80 C93 41 75 15 48 15 L40 15 L40 0 L520 0 L523 16 C529 51 538 98 544 133 C537 135 526 138 526 138 L526 138 Z " />
<glyph glyph-name="lcaron" unicode="&#x13e;" horiz-adv-x="311" d="M331 721 C307 721 292 658 285 613 L259 447 L274 442 L357 586 C385 633 403 686 403 695 C403 714 353 721 331 721 L331 721 Z M266 15 L258 15 C231 15 213 41 213 80 L213 720 L190 720 L45 675 L45 666 C88 650 98 638 98 579 L98 80 C98 41 80 15 53 15 L45 15 L45 0 L266 0 L266 15 L266 15 Z " />
<glyph glyph-name="Lslash" unicode="&#x141;" horiz-adv-x="609" d="M40 0 L520 0 L523 16 C529 51 538 98 544 133 C537 135 526 138 526 138 L517 122 C489 68 435 32 381 32 L221 32 L221 316 L369 361 L369 399 L221 354 L221 580 C221 619 239 645 266 645 L274 645 L274 660 L40 660 L40 645 L48 645 C75 645 93 619 93 580 L93 314 L43 299 L43 261 L93 276 L93 80 C93 41 75 15 48 15 L40 15 L40 0 L40 0 Z " />
<glyph glyph-name="lslash" unicode="&#x142;" horiz-adv-x="311" d="M45 0 L266 0 L266 15 L258 15 C231 15 213 41 213 80 L213 359 L313 391 L313 429 L213 397 L213 720 L190 720 L45 675 L45 666 C88 650 98 638 98 579 L98 361 L-2 329 L-2 291 L98 323 L98 80 C98 41 80 15 53 15 L45 15 L45 0 L45 0 Z " />
<glyph glyph-name="Nacute" unicode="&#x143;" horiz-adv-x="677" d="M309 690 C309 690 394 774 425 814 C447 838 461 855 461 861 C461 875 415 909 395 909 C391 909 381 889 367 859 C336 819 296 699 296 699 L309 690 L309 690 Z M37 645 L45 645 C72 645 90 619 90 580 L90 80 C90 41 72 15 45 15 L37 15 L37 0 L182 0 L182 15 L174 15 C147 15 129 41 129 80 L129 547 C267 358 404 169 542 -20 L587 -20 L587 580 C587 619 605 645 632 645 L640 645 L640 660 L495 660 L495 645 L503 645 C530 645 548 619 548 580 L548 184 L205 660 L37 660 L37 645 L37 645 Z " />
<glyph glyph-name="nacute" unicode="&#x144;" horiz-adv-x="592" d="M222 530 C222 530 308 614 339 654 C360 677 374 694 374 701 C374 715 329 749 309 749 C305 749 294 729 280 699 C249 659 209 539 209 539 L222 530 L222 530 Z M331 0 L552 0 L552 15 L544 15 C517 15 499 41 499 80 L499 338 C499 438 468 505 387 505 C303 505 240 468 213 407 L213 500 L190 500 L45 455 L45 446 C88 430 98 418 98 359 L98 80 C98 41 80 15 53 15 L45 15 L45 0 L266 0 L266 15 L258 15 C231 15 213 41 213 80 L213 363 C225 403 257 428 300 428 C361 428 385 387 385 326 L385 80 C385 41 367 15 340 15 L332 15 L331 0 L331 0 Z " />
<glyph glyph-name="Ncaron" unicode="&#x147;" horiz-adv-x="677" d="M449 929 C449 929 383 855 339 810 C316 830 280 866 228 929 L216 919 L302 748 C307 738 320 716 339 716 C357 716 370 738 375 748 C423 846 461 919 461 919 L449 929 L449 929 Z M302 778 C300 777 300 779 303 784 L302 778 L302 778 Z M38 645 L46 645 C73 645 91 619 91 580 L91 80 C91 41 73 15 46 15 L38 15 L38 0 L183 0 L183 15 L175 15 C148 15 130 41 130 80 L130 547 C268 358 405 169 543 -20 L588 -20 L588 580 C588 619 606 645 633 645 L641 645 L641 660 L496 660 L496 645 L504 645 C531 645 549 619 549 580 L549 184 L206 660 L38 660 L38 645 L38 645 Z " />
<glyph glyph-name="ncaron" unicode="&#x148;" horiz-adv-x="592" d="M408 769 C408 769 343 696 299 651 C276 671 241 707 189 769 L177 759 L263 588 C268 578 281 556 299 556 C318 556 331 578 336 588 C385 688 421 759 421 759 L408 769 L408 769 Z M262 618 C260 617 260 619 263 624 L262 618 L262 618 Z M333 0 L554 0 L554 15 L546 15 C519 15 501 41 501 80 L501 338 C501 438 470 505 389 505 C305 505 242 468 215 407 L215 500 L192 500 L47 455 L47 446 C90 430 100 418 100 359 L100 80 C100 41 82 15 55 15 L47 15 L47 0 L268 0 L268 15 L260 15 C233 15 215 41 215 80 L215 363 C227 403 259 428 302 428 C363 428 387 387 387 326 L387 80 C387 41 369 15 342 15 L334 15 L333 0 L333 0 Z " />
<glyph glyph-name="Omacron" unicode="&#x14c;" horiz-adv-x="759" d="M226 761 L526 761 L526 825 L226 825 L226 761 L226 761 Z M182 330 C182 494 248 633 376 633 C503 633 569 494 569 330 C569 166 503 27 376 27 C248 27 182 166 182 330 L182 330 Z M42 330 C42 149 156 -5 376 -5 C596 -5 709 149 709 330 C709 511 596 665 376 665 C156 665 42 511 42 330 L42 330 Z " />
<glyph glyph-name="omacron" unicode="&#x14d;" horiz-adv-x="607" d="M154 601 L454 601 L454 665 L154 665 L154 601 L154 601 Z M178 250 C178 387 228 479 304 479 C379 479 429 387 429 250 C429 113 379 21 304 21 C228 21 178 113 178 250 L178 250 Z M50 250 C50 97 152 -5 304 -5 C456 -5 557 97 557 250 C557 403 456 505 304 505 C152 505 50 403 50 250 L50 250 Z " />
<glyph glyph-name="Obreve" unicode="&#x14e;" horiz-adv-x="759" d="M243 870 C277 790 330 736 376 736 C421 736 474 790 508 870 L489 878 C472 838 427 812 376 812 C324 812 279 838 262 878 L243 870 L243 870 Z M182 330 C182 494 248 633 376 633 C503 633 569 494 569 330 C569 166 503 27 376 27 C248 27 182 166 182 330 L182 330 Z M42 330 C42 149 156 -5 376 -5 C596 -5 709 149 709 330 C709 511 596 665 376 665 C156 665 42 511 42 330 L42 330 Z " />
<glyph glyph-name="obreve" unicode="&#x14f;" horiz-adv-x="607" d="M171 710 C205 630 258 576 304 576 C349 576 402 630 436 710 L417 718 C400 678 355 652 304 652 C252 652 207 678 190 718 L171 710 L171 710 Z M178 250 C178 387 228 479 304 479 C379 479 429 387 429 250 C429 113 379 21 304 21 C228 21 178 113 178 250 L178 250 Z M50 250 C50 97 152 -5 304 -5 C456 -5 557 97 557 250 C557 403 456 505 304 505 C152 505 50 403 50 250 L50 250 Z " />
<glyph glyph-name="Racute" unicode="&#x154;" horiz-adv-x="690" d="M258 690 C258 690 343 774 374 814 C396 838 410 855 410 861 C410 875 364 909 344 909 C340 909 330 889 316 859 C285 819 245 699 245 699 L258 690 L258 690 Z M33 645 L41 645 C68 645 86 619 86 580 L86 80 C86 41 68 15 41 15 L33 15 L33 0 L267 0 L267 15 L259 15 C232 15 214 41 214 80 L214 312 L281 312 C309 273 361 200 428 106 C500 4 509 0 647 0 L691 0 L691 25 C643 25 642 25 603 81 C518 203 454 291 428 327 C525 353 584 412 584 491 C584 593 484 661 333 661 L36 661 L33 645 L33 645 Z M217 345 L217 629 L333 629 C403 629 449 574 449 491 C449 403 393 345 310 345 L217 345 L217 345 Z " />
<glyph glyph-name="Rcaron" unicode="&#x158;" horiz-adv-x="690" d="M444 929 C444 929 378 855 334 810 C311 830 275 866 223 929 L211 919 L297 748 C302 738 315 716 334 716 C352 716 365 738 370 748 C418 846 456 919 456 919 L444 929 L444 929 Z M33 645 L41 645 C68 645 86 619 86 580 L86 80 C86 41 68 15 41 15 L33 15 L33 0 L267 0 L267 15 L259 15 C232 15 214 41 214 80 L214 312 L281 312 C309 273 361 200 428 106 C500 4 509 0 647 0 L691 0 L691 25 C643 25 642 25 603 81 C518 203 454 291 428 327 C525 353 584 412 584 491 C584 593 484 661 333 661 L36 661 L33 645 L33 645 Z M300 779 C298 778 298 780 301 785 L300 779 L300 779 Z M218 345 L218 629 L334 629 C404 629 450 574 450 491 C450 403 394 345 311 345 L218 345 L218 345 Z " />
<glyph glyph-name="rcaron" unicode="&#x159;" horiz-adv-x="415" d="M326 769 C326 769 260 695 216 650 C193 670 157 706 105 769 L93 759 L179 588 C184 578 197 556 216 556 C234 556 247 578 252 588 C300 686 338 759 338 759 L326 769 L326 769 Z M179 618 C177 617 177 619 180 624 L179 618 L179 618 Z M45 446 C88 430 98 418 98 359 L98 80 C98 41 80 15 53 15 L45 15 L45 0 L266 0 L266 15 L258 15 C231 15 213 41 213 80 L213 391 C220 409 230 420 242 420 C274 420 318 376 350 376 C383 376 405 398 405 431 C405 475 385 505 334 505 C277 505 233 467 212 405 L212 500 L189 500 L44 455 L45 446 L45 446 Z " />
<glyph glyph-name="Sacute" unicode="&#x15a;" horiz-adv-x="509" d="M206 690 C206 690 292 774 323 814 C344 837 358 854 358 861 C358 875 313 909 293 909 C289 909 278 889 264 859 C233 819 193 699 193 699 L206 690 L206 690 Z M425 456 L425 552 C413 620 346 665 258 665 C127 665 39 583 39 460 C39 384 103 312 198 280 C303 245 373 188 373 137 C373 71 321 27 242 27 C237 27 201 28 201 30 C148 37 91 94 60 172 C56 182 51 194 47 204 L34 204 L34 108 C46 40 129 -5 242 -5 C375 -5 464 73 464 189 C464 271 398 347 298 380 C195 414 127 466 127 511 C127 585 177 634 252 634 C276 634 298 630 317 622 C341 609 368 573 385 530 C394 508 404 479 413 457 L425 456 L425 456 Z " />
<glyph glyph-name="sacute" unicode="&#x15b;" horiz-adv-x="416" d="M150 530 C150 530 236 614 267 654 C288 677 302 694 302 701 C302 715 257 749 237 749 C233 749 222 729 208 699 C177 659 137 539 137 539 L150 530 L150 530 Z M349 349 L349 409 C339 467 290 505 226 505 C117 505 45 448 45 362 C45 310 100 249 183 209 C235 184 270 145 270 111 C270 57 238 21 189 21 C187 21 172 22 172 22 C135 26 91 69 62 130 C59 137 54 146 51 153 L40 153 L40 86 C50 31 106 -5 182 -5 C292 -5 366 59 366 154 C366 207 325 262 264 291 C186 328 134 372 134 401 C134 448 171 479 226 479 C246 479 264 472 278 460 C278 460 313 396 336 349 L349 349 L349 349 Z " />
<glyph glyph-name="Scircumflex" unicode="&#x15c;" horiz-adv-x="509" d="M289 872 C284 882 271 904 252 904 C234 904 221 882 216 872 C216 872 128 699 130 701 L142 691 C194 753 229 789 252 809 C296 764 361 691 361 691 L373 701 C373 701 337 772 288 872 L289 872 L289 872 Z M214 836 C211 841 211 843 213 842 L214 836 L214 836 Z M423 456 L423 552 C411 620 344 665 256 665 C125 665 37 583 37 460 C37 384 101 312 196 280 C301 245 371 188 371 137 C371 71 319 27 240 27 C235 27 199 28 199 30 C146 37 89 94 58 172 C54 182 49 194 45 204 L32 204 L32 108 C44 40 127 -5 240 -5 C373 -5 462 73 462 189 C462 271 396 347 296 380 C193 414 125 466 125 511 C125 585 175 634 250 634 C274 634 296 630 315 622 C339 609 366 573 383 530 C392 508 402 479 411 457 L423 456 L423 456 Z " />
<glyph glyph-name="Scedilla" unicode="&#x15e;" horiz-adv-x="509" d="M201 -74 L189 -94 C193 -87 197 -80 201 -74 L201 -74 Z M425 456 L425 552 C413 620 346 665 258 665 C127 665 39 583 39 460 C39 384 103 312 198 280 C303 245 373 188 373 137 C373 71 321 27 242 27 C237 27 201 28 201 30 C148 37 91 94 60 172 C56 182 51 194 47 204 L34 204 L34 108 C46 43 123 -1 229 -4 C223 -15 205 -46 181 -88 L189 -92 C205 -83 225 -77 238 -77 C267 -77 286 -99 286 -132 C286 -164 258 -185 215 -185 C188 -185 165 -179 156 -171 L149 -183 C171 -204 207 -218 238 -218 C309 -218 357 -184 357 -132 C357 -85 320 -54 265 -54 C245 -54 219 -60 202 -70 C229 -27 250 -10 261 -3 C383 4 463 80 463 190 C463 272 397 348 297 381 C194 415 126 467 126 512 C126 586 176 635 251 635 C275 635 297 631 316 623 C340 610 367 574 384 531 C393 509 403 480 412 458 L425 456 L425 456 Z " />
<glyph glyph-name="scedilla" unicode="&#x15f;" horiz-adv-x="416" d="M141 -74 L129 -94 C133 -87 137 -80 141 -74 L141 -74 Z M349 349 L349 409 C339 467 290 505 226 505 C117 505 45 448 45 362 C45 310 100 249 183 209 C235 184 270 145 270 111 C270 57 238 21 189 21 C187 21 172 22 172 22 C135 26 91 69 62 130 C59 137 54 146 51 153 L40 153 L40 86 C49 34 99 -1 169 -5 C163 -16 145 -47 121 -90 L129 -94 C145 -85 165 -79 178 -79 C207 -79 226 -101 226 -134 C226 -166 198 -187 155 -187 C128 -187 105 -181 96 -173 L89 -185 C111 -206 147 -220 178 -220 C249 -220 297 -186 297 -134 C297 -87 260 -56 205 -56 C185 -56 159 -62 142 -72 C169 -29 190 -12 201 -5 C300 2 365 64 365 153 C365 206 324 261 263 290 C185 327 133 371 133 400 C133 447 170 478 225 478 C245 478 263 471 277 459 C277 459 312 395 335 348 L349 349 L349 349 Z " />
<glyph glyph-name="Scaron" unicode="&#x160;" horiz-adv-x="509" d="M362 929 C362 929 297 856 253 811 C230 831 195 867 143 929 L131 919 L217 748 C222 738 235 716 253 716 C272 716 285 738 290 748 C339 848 375 919 375 919 L362 929 L362 929 Z M216 778 C214 777 214 779 217 784 L216 778 L216 778 Z M427 456 L427 552 C415 620 348 665 260 665 C129 665 41 583 41 460 C41 384 105 312 200 280 C305 245 375 188 375 137 C375 71 323 27 244 27 C239 27 203 28 203 30 C150 37 93 94 62 172 C58 182 53 194 49 204 L36 204 L36 108 C48 40 131 -5 244 -5 C377 -5 466 73 466 189 C466 271 400 347 300 380 C197 414 129 466 129 511 C129 585 179 634 254 634 C278 634 300 630 319 622 C343 609 370 573 387 530 C396 508 406 479 415 457 L427 456 L427 456 Z " />
<glyph glyph-name="scaron" unicode="&#x161;" horiz-adv-x="416" d="M336 769 C336 769 271 696 227 651 C204 671 169 707 117 769 L105 759 L191 588 C196 578 209 556 227 556 C246 556 259 578 264 588 C313 688 349 759 349 759 L336 769 L336 769 Z M190 618 C188 617 188 619 191 624 L190 618 L190 618 Z M351 349 L351 409 C341 467 292 505 228 505 C119 505 47 448 47 362 C47 310 102 249 185 209 C237 184 272 145 272 111 C272 57 240 21 191 21 C189 21 174 22 174 22 C137 26 93 69 64 130 C61 137 56 146 53 153 L42 153 L42 86 C52 31 108 -5 184 -5 C294 -5 368 59 368 154 C368 207 327 262 266 291 C188 328 136 372 136 401 C136 448 173 479 228 479 C248 479 266 472 280 460 C280 460 315 396 338 349 L351 349 L351 349 Z " />
<glyph glyph-name="Tcaron" unicode="&#x164;" horiz-adv-x="620" d="M420 929 C420 929 355 856 311 811 C288 831 253 867 201 929 L189 919 L275 748 C280 738 293 716 311 716 C330 716 343 738 348 748 C397 848 433 919 433 919 L420 929 L420 929 Z M274 778 C272 777 272 779 275 784 L274 778 L274 778 Z M195 0 L429 0 L429 15 L421 15 C394 15 376 41 376 80 L376 628 L476 628 C524 628 573 596 599 548 L613 522 L625 522 C622 559 618 607 614 644 L613 660 L11 660 L10 644 C6 607 2 559 -1 522 L11 522 L25 548 C51 596 100 628 148 628 L248 628 L248 80 C248 41 230 15 203 15 L195 15 L195 0 L195 0 Z " />
<glyph glyph-name="tcaron" unicode="&#x165;" horiz-adv-x="371" d="M25 468 L25 455 L88 455 L88 125 C88 24 112 -5 197 -5 C329 -5 360 80 351 208 L338 207 C345 110 328 46 253 46 C214 46 203 59 203 105 L203 455 L338 455 L338 500 L203 500 L203 640 L184 640 C136 546 71 476 25 468 L25 468 Z M456 721 C432 721 417 658 410 613 L384 447 L399 442 L482 586 C510 633 528 686 528 695 C528 714 478 721 456 721 L456 721 Z " />
<glyph glyph-name="Utilde" unicode="&#x168;" horiz-adv-x="656" d="M187 755 C187 789 203 811 226 811 C277 811 344 748 395 748 C448 748 484 803 484 885 L465 885 C465 849 447 825 420 825 C369 825 302 887 251 887 C201 887 168 834 168 755 L187 755 L187 755 Z M636 660 L473 660 L473 645 L483 645 C515 645 537 615 537 570 L537 202 C537 105 485 40 350 40 C245 40 204 102 204 194 L204 580 C204 619 222 645 249 645 L257 645 L257 660 L23 660 L23 645 L31 645 C58 645 76 619 76 580 L76 219 C76 85 147 -5 331 -5 C507 -5 576 73 576 189 L576 570 C576 615 596 645 627 645 L636 645 L636 660 L636 660 Z " />
<glyph glyph-name="utilde" unicode="&#x169;" horiz-adv-x="557" d="M129 595 C129 629 145 651 168 651 C219 651 286 588 337 588 C390 588 426 643 426 725 L407 725 C407 689 389 665 362 665 C311 665 244 727 193 727 C143 727 110 674 110 595 L129 595 L129 595 Z M522 54 C479 70 469 82 469 141 L469 500 L301 500 L301 485 L309 485 C336 485 354 459 354 420 L354 130 C347 94 327 71 288 71 C218 71 182 109 182 166 L182 500 L14 500 L14 485 L22 485 C49 485 67 459 67 420 L67 420 L68 154 C68 59 112 -5 198 -5 C282 -5 331 26 354 78 L354 0 L377 0 L522 45 L522 54 L522 54 Z " />
<glyph glyph-name="Umacron" unicode="&#x16a;" horiz-adv-x="656" d="M176 761 L476 761 L476 825 L176 825 L176 761 L176 761 Z M636 660 L473 660 L473 645 L483 645 C515 645 537 615 537 570 L537 202 C537 105 485 40 350 40 C245 40 204 102 204 194 L204 580 C204 619 222 645 249 645 L257 645 L257 660 L23 660 L23 645 L31 645 C58 645 76 619 76 580 L76 219 C76 85 147 -5 331 -5 C507 -5 576 73 576 189 L576 570 C576 615 596 645 627 645 L636 645 L636 660 L636 660 Z " />
<glyph glyph-name="umacron" unicode="&#x16b;" horiz-adv-x="557" d="M118 601 L418 601 L418 665 L118 665 L118 601 L118 601 Z M522 54 C479 70 469 82 469 141 L469 500 L301 500 L301 485 L309 485 C336 485 354 459 354 420 L354 130 C347 94 327 71 288 71 C218 71 182 109 182 166 L182 500 L14 500 L14 485 L22 485 C49 485 67 459 67 420 L67 420 L68 154 C68 59 112 -5 198 -5 C282 -5 331 26 354 78 L354 0 L377 0 L522 45 L522 54 L522 54 Z " />
<glyph glyph-name="Ubreve" unicode="&#x16c;" horiz-adv-x="656" d="M194 870 C228 790 281 736 326 736 C371 736 424 790 458 870 L439 878 C422 838 377 812 326 812 C275 812 230 838 213 878 L194 870 L194 870 Z M636 660 L473 660 L473 645 L483 645 C515 645 537 615 537 570 L537 202 C537 105 485 40 350 40 C245 40 204 102 204 194 L204 580 C204 619 222 645 249 645 L257 645 L257 660 L23 660 L23 645 L31 645 C58 645 76 619 76 580 L76 219 C76 85 147 -5 331 -5 C507 -5 576 73 576 189 L576 570 C576 615 596 645 627 645 L636 645 L636 660 L636 660 Z " />
<glyph glyph-name="ubreve" unicode="&#x16d;" horiz-adv-x="557" d="M136 710 C170 630 223 576 268 576 C313 576 366 630 400 710 L381 718 C364 678 319 652 268 652 C217 652 172 678 155 718 L136 710 L136 710 Z M522 54 C479 70 469 82 469 141 L469 500 L301 500 L301 485 L309 485 C336 485 354 459 354 420 L354 130 C347 94 327 71 288 71 C218 71 182 109 182 166 L182 500 L14 500 L14 485 L22 485 C49 485 67 459 67 420 L67 420 L68 154 C68 59 112 -5 198 -5 C282 -5 331 26 354 78 L354 0 L377 0 L522 45 L522 54 L522 54 Z " />
<glyph glyph-name="Uring" unicode="&#x16e;" horiz-adv-x="656" d="M262 788 C262 828 288 854 326 854 C364 854 390 828 390 788 C390 752 361 721 326 721 C291 721 262 752 262 788 L262 788 Z M230 788 C230 738 274 695 326 695 C378 695 422 738 422 788 C422 843 384 880 326 880 C268 880 230 843 230 788 L230 788 Z M636 660 L473 660 L473 645 L483 645 C515 645 537 615 537 570 L537 202 C537 105 485 40 350 40 C245 40 204 102 204 194 L204 580 C204 619 222 645 249 645 L257 645 L257 660 L23 660 L23 645 L31 645 C58 645 76 619 76 580 L76 219 C76 85 147 -5 331 -5 C507 -5 576 73 576 189 L576 570 C576 615 596 645 627 645 L636 645 L636 660 L636 660 Z " />
<glyph glyph-name="uring" unicode="&#x16f;" horiz-adv-x="557" d="M204 628 C204 668 230 694 268 694 C306 694 332 668 332 628 C332 592 303 561 268 561 C233 561 204 592 204 628 L204 628 Z M172 628 C172 578 216 535 268 535 C320 535 364 578 364 628 C364 683 326 720 268 720 C210 720 172 683 172 628 L172 628 Z M522 54 C479 70 469 82 469 141 L469 500 L301 500 L301 485 L309 485 C336 485 354 459 354 420 L354 130 C347 94 327 71 288 71 C218 71 182 109 182 166 L182 500 L14 500 L14 485 L22 485 C49 485 67 459 67 420 L67 420 L68 154 C68 59 112 -5 198 -5 C282 -5 331 26 354 78 L354 0 L377 0 L522 45 L522 54 L522 54 Z " />
<glyph glyph-name="Wcircumflex" unicode="&#x174;" horiz-adv-x="978" d="M972 660 L811 660 L811 645 L821 645 C857 645 873 619 861 580 L861 580 L684 -15 L716 -15 L902 589 C917 627 939 644 972 644 L972 660 L972 660 Z M244 659 L3 659 L3 644 C32 644 53 622 70 579 L70 579 L297 -16 L329 -16 L481 465 L684 -16 L741 176 L546 669 L514 669 L297 -16 L353 163 L208 579 C194 618 205 644 235 644 L244 644 L244 659 L244 659 Z M567 871 C562 881 549 903 530 903 C512 903 499 881 494 871 C494 871 406 698 408 700 L420 690 C472 752 507 788 530 808 C574 763 639 690 639 690 L651 700 C651 700 615 771 566 871 L567 871 L567 871 Z M492 835 C489 840 489 842 491 841 L492 835 L492 835 Z " />
<glyph glyph-name="Ycircumflex" unicode="&#x176;" horiz-adv-x="644" d="M356 872 C351 882 338 904 319 904 C301 904 288 882 283 872 C283 872 195 699 197 701 L209 691 C261 753 296 789 319 809 C363 764 428 691 428 691 L440 701 C440 701 404 772 355 872 L356 872 L356 872 Z M281 836 C278 841 278 843 280 842 L281 836 L281 836 Z M249 660 L2 660 L2 645 C27 645 49 628 73 592 L253 289 L253 80 C253 41 235 15 208 15 L200 15 L200 0 L434 0 L434 15 L426 15 C399 15 381 41 381 80 L381 330 L381 330 L556 590 C583 627 608 645 638 645 L638 660 L485 660 L485 645 L495 645 C528 645 531 616 505 571 L365 356 L231 584 C211 621 215 645 242 645 L251 645 L249 660 L249 660 Z " />
<glyph glyph-name="Ydieresis" unicode="&#x178;" horiz-adv-x="644" d="M419 730 C462 730 490 758 490 800 C490 843 462 871 419 871 C377 871 349 843 349 800 C349 758 377 730 419 730 L419 730 Z M219 730 C261 730 289 758 289 800 C289 843 261 871 219 871 C176 871 148 843 148 800 C148 758 176 730 219 730 L219 730 Z M251 660 L4 660 L4 645 C29 645 51 628 75 592 L255 289 L255 80 C255 41 237 15 210 15 L202 15 L202 0 L436 0 L436 15 L428 15 C401 15 383 41 383 80 L383 330 L383 330 L558 590 C585 627 610 645 640 645 L640 660 L487 660 L487 645 L497 645 C530 645 533 616 507 571 L367 356 L233 584 C213 621 217 645 244 645 L253 645 L251 660 L251 660 Z " />
<glyph glyph-name="Zacute" unicode="&#x179;" horiz-adv-x="585" d="M321 690 C321 690 406 774 437 814 C459 838 473 855 473 861 C473 875 427 909 407 909 C403 909 393 889 379 859 C348 819 308 699 308 699 L321 690 L321 690 Z M503 139 L494 123 C466 69 412 33 358 33 L193 33 L529 660 L81 660 L77 644 C69 614 58 573 50 543 L62 543 L72 556 C108 599 164 628 212 628 L367 628 L32 0 L497 0 L500 16 L500 16 C506 51 515 99 521 134 C514 136 503 139 503 139 L503 139 Z " />
<glyph glyph-name="zacute" unicode="&#x17a;" horiz-adv-x="483" d="M191 530 C191 530 277 614 308 654 C329 677 343 694 343 701 C343 715 298 749 278 749 C274 749 263 729 249 699 C218 659 178 539 178 539 L191 530 L191 530 Z M410 132 L401 116 C373 62 319 26 265 26 L187 26 L433 500 L70 500 L67 487 C60 464 52 432 46 409 L58 409 L67 419 C97 448 145 470 189 474 L287 474 L38 0 L406 0 L409 13 C415 47 423 93 429 127 C422 129 411 132 411 132 L410 132 L410 132 Z " />
<glyph glyph-name="Zdot" unicode="&#x17b;" horiz-adv-x="585" d="M321 730 C363 730 391 758 391 800 C391 843 363 871 321 871 C278 871 250 843 250 800 C250 758 278 730 321 730 L321 730 Z M503 139 L494 123 C466 69 412 33 358 33 L193 33 L529 660 L81 660 L77 644 C69 614 58 573 50 543 L62 543 L72 556 C108 599 164 628 212 628 L367 628 L32 0 L497 0 L500 16 L500 16 C506 51 515 99 521 134 C514 136 503 139 503 139 L503 139 Z " />
<glyph glyph-name="zdot" unicode="&#x17c;" horiz-adv-x="483" d="M267 570 C309 570 337 598 337 640 C337 683 309 711 267 711 C225 711 197 683 197 640 C197 598 225 570 267 570 L267 570 Z M410 132 L401 116 C373 62 319 26 265 26 L187 26 L433 500 L70 500 L67 487 C60 464 52 432 46 409 L58 409 L67 419 C97 448 145 470 189 474 L287 474 L38 0 L406 0 L409 13 C415 47 423 93 429 127 C422 129 411 132 411 132 L410 132 L410 132 Z " />
<glyph glyph-name="Zcaron" unicode="&#x17d;" horiz-adv-x="585" d="M431 929 C431 929 365 855 321 810 C298 830 262 866 210 929 L198 919 L284 748 C289 738 302 716 321 716 C339 716 352 738 357 748 C405 846 443 919 443 919 L431 929 L431 929 Z M284 778 C282 777 282 779 285 784 L284 778 L284 778 Z M504 139 L495 123 C467 69 413 33 359 33 L194 33 L530 660 L82 660 L78 644 C70 614 59 573 51 543 L63 543 L73 556 C109 599 165 628 213 628 L368 628 L33 0 L498 0 L501 16 L501 16 C507 51 516 99 522 134 C515 136 504 139 504 139 L504 139 Z " />
<glyph glyph-name="zcaron" unicode="&#x17e;" horiz-adv-x="483" d="M377 769 C377 769 312 696 268 651 C245 671 210 707 158 769 L146 759 L232 588 C237 578 250 556 268 556 C287 556 300 578 305 588 C354 688 390 759 390 759 L377 769 L377 769 Z M231 618 C229 617 229 619 232 624 L231 618 L231 618 Z M412 132 L403 116 C375 62 321 26 267 26 L189 26 L435 500 L72 500 L69 487 C62 464 54 432 48 409 L60 409 L69 419 C99 448 147 470 191 474 L289 474 L40 0 L408 0 L411 13 C417 47 425 93 431 127 C424 129 413 132 413 132 L412 132 L412 132 Z " />
<glyph glyph-name="oogonek" unicode="&#x1eb;" horiz-adv-x="699" d="M715 -39 L704 -31 C690 -50 636 -63 567 -63 C471 -63 404 -40 359 -4 C550 1 649 129 649 278 C649 430 546 559 347 559 C148 559 45 430 45 278 C45 134 138 10 318 -2 C402 -83 485 -136 556 -136 C610 -136 674 -96 716 -37 L715 -39 L715 -39 Z M173 279 C173 416 233 532 348 532 C464 532 523 416 523 279 C523 142 464 26 348 26 C233 26 173 142 173 279 L173 279 Z " />
<glyph glyph-name="Adotabove" unicode="&#x226;" horiz-adv-x="674" d="M312 730 C354 730 382 758 382 800 C382 843 354 871 312 871 C270 871 242 843 242 800 C242 758 270 730 312 730 L312 730 Z M414 0 L666 0 L666 15 C637 15 615 31 596 65 L328 675 L296 675 L73 67 C56 31 32 15 0 15 L0 0 L168 0 L168 15 L157 15 C125 15 109 39 116 76 L171 232 L386 232 C407 181 429 130 450 80 C467 41 455 15 422 15 L413 15 L414 0 L414 0 Z M372 264 L182 264 L268 509 L372 264 L372 264 Z " />
<glyph glyph-name="G_sc" unicode="&#x262;" horiz-adv-x="732" d="M584 341 L584 435 L570 432 L570 432 L584 435 C571 509 483 558 364 558 C173 558 45 446 45 277 C45 108 173 -5 364 -5 C436 -5 525 19 586 54 L586 180 C586 219 604 245 631 245 L639 245 L639 260 L430 260 L430 245 L438 245 C465 245 483 219 483 180 L483 42 C443 30 401 23 364 23 C249 23 172 124 172 276 C172 428 249 529 364 529 C386 529 407 527 426 524 C479 510 530 453 557 376 C561 365 566 351 570 340 L584 341 L584 341 Z " />
<glyph glyph-name="I_sc" unicode="&#x26a;" horiz-adv-x="307" d="M267 15 L259 15 C232 15 214 41 214 80 L214 473 C214 512 232 538 259 538 L267 538 L267 553 L46 553 L46 538 L54 538 C81 538 99 512 99 473 L99 80 C99 41 81 15 54 15 L46 15 L46 0 L267 0 L267 15 L267 15 Z " />
<glyph glyph-name="N_sc" unicode="&#x274;" horiz-adv-x="613" d="M38 538 L46 538 C73 538 91 512 91 473 L91 80 C91 41 73 15 46 15 L38 15 L38 0 L179 0 L179 15 L171 15 C144 15 126 41 126 80 L126 453 C246 295 366 138 486 -20 L523 -20 L523 473 C523 512 541 538 568 538 L576 538 L576 553 L435 553 L435 538 L443 538 C470 538 488 512 488 473 L488 164 L194 553 L38 553 L38 538 L38 538 Z " />
<glyph glyph-name="R_sc" unicode="&#x280;" horiz-adv-x="615" d="M36 538 L44 538 C71 538 89 512 89 473 L89 80 C89 41 71 15 44 15 L36 15 L36 0 L257 0 L257 15 L249 15 C222 15 204 41 204 80 L204 261 L241 261 C265 230 308 175 362 106 C442 4 450 0 574 0 L614 0 L614 23 C567 23 566 23 518 84 C446 176 392 244 369 273 C451 295 501 345 501 411 C501 496 412 552 278 552 L36 552 L36 538 L36 538 Z M204 289 L204 523 L278 524 C339 524 380 479 380 411 C380 338 333 289 263 289 L204 289 L204 289 Z " />
<glyph glyph-name="Y_sc" unicode="&#x28f;" horiz-adv-x="571" d="M174 0 L395 0 L395 15 L387 15 C360 15 342 41 342 80 L342 279 C342 279 464 457 476 473 C506 516 536 538 567 538 L567 553 L418 553 L418 538 L428 538 C461 538 463 509 436 464 L323 296 C289 355 254 415 221 474 C199 513 202 539 230 539 L239 539 L239 554 L7 554 L7 539 C34 539 60 517 86 474 L86 474 L227 245 L227 81 C227 42 209 16 182 16 L174 16 L174 0 L174 0 Z " />
<glyph glyph-name="B_sc" unicode="&#x299;" horiz-adv-x="571" d="M36 538 L44 538 C71 538 89 512 89 473 L89 80 C89 41 71 15 44 15 L36 15 L36 0 L299 0 C450 0 551 62 551 155 C551 230 479 284 364 299 C445 318 495 361 495 419 C495 499 408 552 278 552 L36 552 L36 538 L36 538 Z M204 305 L204 523 C204 523 256 524 278 524 C339 524 380 482 380 419 C380 351 333 305 263 305 L204 305 L204 305 Z M204 280 L261 280 C362 280 430 230 430 154 C430 78 373 28 287 28 L204 28 L204 280 L204 280 Z " />
<glyph glyph-name="H_sc" unicode="&#x29c;" horiz-adv-x="683" d="M643 15 L635 15 C608 15 590 41 590 80 L590 473 C590 512 608 538 635 538 L643 538 L643 553 L422 553 L422 538 L430 538 C457 538 475 512 475 473 L475 307 L211 307 L211 473 C211 512 229 538 256 538 L264 538 L264 553 L43 553 L43 538 L51 538 C78 538 96 512 96 473 L96 80 C96 41 78 15 51 15 L43 15 L43 0 L264 0 L264 15 L256 15 C229 15 211 41 211 80 L211 278 L475 278 L475 80 C475 41 457 15 430 15 L422 15 L422 0 L643 0 L643 15 L643 15 Z " />
<glyph glyph-name="L_sc" unicode="&#x29f;" horiz-adv-x="554" d="M470 135 L461 119 C433 65 379 29 325 29 L211 29 L211 473 C211 512 229 538 256 538 L264 538 L264 553 L43 553 L43 538 L51 538 C78 538 96 512 96 473 L96 80 C96 41 78 15 51 15 L43 15 L43 0 L465 0 L468 15 L467 15 C474 50 482 95 488 130 C481 132 470 135 470 135 L470 135 Z " />
<glyph glyph-name="circumflex" unicode="&#x2c6;" horiz-adv-x="340" d="M207 712 C202 722 189 744 170 744 C152 744 139 722 134 712 C134 712 46 539 48 541 L60 531 C112 593 147 629 170 649 C214 604 279 531 279 531 L291 541 C291 541 255 612 206 712 L207 712 L207 712 Z M132 676 C129 681 129 683 131 682 L132 676 L132 676 Z " />
<glyph glyph-name="caron" unicode="&#x2c7;" horiz-adv-x="340" d="M280 769 C280 769 215 696 171 651 C148 671 113 707 61 769 L49 759 L135 588 C140 578 153 556 171 556 C190 556 203 578 208 588 C257 688 293 759 293 759 L280 769 L280 769 Z M134 618 C132 617 132 619 135 624 L134 618 L134 618 Z " />
<glyph glyph-name="firsttonechinese" unicode="&#x2c9;" horiz-adv-x="340" d="M20 601 L320 601 L320 665 L20 665 L20 601 L20 601 Z " />
<glyph glyph-name="breve" unicode="&#x2d8;" horiz-adv-x="340" d="M38 710 C72 630 125 576 170 576 C215 576 268 630 302 710 L283 718 C266 678 221 652 170 652 C119 652 74 678 57 718 L38 710 L38 710 Z " />
<glyph glyph-name="dotaccent" unicode="&#x2d9;" horiz-adv-x="340" d="M170 570 C212 570 240 598 240 640 C240 683 212 711 170 711 C128 711 100 683 100 640 C100 598 128 570 170 570 L170 570 Z " />
<glyph glyph-name="ring" unicode="&#x2da;" horiz-adv-x="340" d="M106 628 C106 668 132 694 170 694 C208 694 234 668 234 628 C234 592 205 561 170 561 C135 561 106 592 106 628 L106 628 Z M74 628 C74 578 118 535 170 535 C222 535 266 578 266 628 C266 683 228 720 170 720 C112 720 74 683 74 628 L74 628 Z " />
<glyph glyph-name="A_sc" unicode="&#x1d00;" horiz-adv-x="601" d="M355 0 L593 0 L593 15 C563 15 540 32 520 69 L293 566 L264 566 L75 68 C57 31 34 14 2 14 L2 -1 L165 -1 L165 14 L154 14 C120 14 106 41 117 83 L157 193 L339 193 C356 155 374 116 390 79 C407 40 397 14 364 14 L355 14 L355 0 L355 0 Z M327 221 L168 222 L240 419 L327 221 L327 221 Z " />
<glyph glyph-name="C_sc" unicode="&#x1d04;" horiz-adv-x="664" d="M604 119 L590 121 L590 121 L604 119 L604 119 Z M591 211 C587 200 582 186 578 175 C548 92 480 33 405 24 C395 23 385 23 374 23 C253 23 172 124 172 276 C172 428 253 529 374 529 C401 529 426 527 449 523 C501 508 552 451 579 377 C583 366 588 352 592 341 L605 341 L605 435 L591 432 L591 432 L605 435 C592 509 500 558 375 558 C178 558 46 446 46 277 C46 108 178 -5 375 -5 C500 -5 592 45 605 119 L605 212 L591 211 L591 211 Z " />
<glyph glyph-name="D_sc" unicode="&#x1d05;" horiz-adv-x="665" d="M36 538 L44 538 C71 538 89 512 89 473 L89 80 C89 41 71 15 44 15 L36 15 L36 0 L303 0 C490 0 615 111 615 277 C615 443 480 553 278 553 L36 553 L36 538 L36 538 Z M204 29 L204 524 C226 524 256 525 278 525 C411 525 500 426 500 277 C500 128 421 29 303 29 L204 29 L204 29 Z " />
<glyph glyph-name="E_sc" unicode="&#x1d07;" horiz-adv-x="554" d="M396 221 L396 362 L384 362 L380 354 C368 327 327 309 276 309 L211 309 L211 524 C245 524 284 524 323 524 C378 520 427 489 447 444 L454 429 L465 429 L465 553 L43 553 L43 538 L51 538 C78 538 96 512 96 473 L96 80 C96 41 78 15 51 15 L43 15 L43 0 L465 0 L468 15 L467 15 C473 48 481 92 487 125 L476 125 L466 110 C436 61 375 29 315 29 L211 29 L211 281 L276 281 C327 281 368 261 380 230 L384 221 L396 221 L396 221 Z " />
<glyph glyph-name="J_sc" unicode="&#x1d0a;" horiz-adv-x="371" d="M331 553 L110 553 L110 538 L118 538 C145 538 163 512 163 473 L163 168 C163 56 155 13 136 13 C117 13 101 31 97 57 C93 85 72 104 46 104 C14 104 -4 86 0 58 C29 58 97 57 97 57 L0 58 C6 17 49 -10 107 -10 C230 -10 278 67 278 265 L278 473 C278 512 296 538 323 538 L331 538 L331 553 L331 553 Z " />
<glyph glyph-name="K_sc" unicode="&#x1d0b;" horiz-adv-x="592" d="M257 553 L36 553 L36 538 L44 538 C71 538 89 512 89 473 L89 80 C89 41 71 15 44 15 L36 15 L36 0 L257 0 L257 15 L249 15 C222 15 204 41 204 80 L204 298 C204 298 249 228 316 123 C375 31 438 -5 542 -5 L582 -5 L582 18 C530 18 481 69 391 210 C348 277 314 330 295 359 L397 478 C434 518 467 538 502 538 L502 553 L374 553 L374 538 L380 538 C400 538 391 512 357 473 L279 384 L279 384 L204 297 L204 472 C204 511 222 537 249 537 L257 537 L257 553 L257 553 Z " />
<glyph glyph-name="M_sc" unicode="&#x1d0d;" horiz-adv-x="775" d="M737 554 L634 554 L634 553 L582 553 L405 127 L403 130 L199 553 L57 553 L57 538 L65 538 C91 538 108 512 106 473 L106 473 L88 71 C83 32 65 15 33 15 L33 0 L197 0 L197 15 L185 15 C151 15 127 40 123 78 L138 418 C209 277 279 135 350 -5 L378 -5 L585 468 L598 69 C595 31 577 15 547 15 L547 0 L767 0 L767 15 L759 15 C732 15 713 41 711 80 L711 80 L689 491 C692 525 708 539 737 539 L737 554 L737 554 Z " />
<glyph glyph-name="O_sc" unicode="&#x1d0f;" horiz-adv-x="699" d="M172 277 C172 414 232 530 347 530 C463 530 522 414 522 277 C522 140 463 24 347 24 C232 24 172 140 172 277 L172 277 Z M45 277 C45 125 148 -5 347 -5 C546 -5 649 125 649 277 C649 429 546 558 347 558 C148 558 45 429 45 277 L45 277 Z " />
<glyph glyph-name="P_sc" unicode="&#x1d18;" horiz-adv-x="520" d="M257 15 L249 15 C222 15 204 41 204 80 L204 246 L263 246 C405 246 500 308 500 400 C500 492 411 553 277 553 L36 553 L36 538 L44 538 C71 538 89 512 89 473 L89 80 C89 41 71 15 44 15 L36 15 L36 0 L257 0 L257 15 L257 15 Z M204 275 L204 524 C226 524 255 525 277 525 C338 525 379 475 379 400 C379 325 333 275 263 275 L204 275 L204 275 Z " />
<glyph glyph-name="T_sc" unicode="&#x1d1b;" horiz-adv-x="560" d="M170 0 L391 0 L391 15 L383 15 C356 15 338 41 338 80 L338 525 L410 525 C458 525 507 493 533 445 L548 419 L560 419 C557 455 552 503 549 539 L548 553 L12 553 L11 539 C8 503 3 455 0 419 L12 419 L27 445 C53 493 102 525 150 525 L223 525 L223 80 C223 41 205 15 178 15 L170 15 L170 0 L170 0 Z " />
<glyph glyph-name="U_sc" unicode="&#x1d1c;" horiz-adv-x="585" d="M565 553 L406 553 L406 538 L416 538 C448 538 470 508 470 463 L470 164 C470 87 426 35 313 35 C227 35 194 83 194 155 L194 473 C194 512 212 538 239 538 L247 538 L247 553 L26 553 L26 538 L34 538 C61 538 79 512 79 473 L79 178 C79 68 140 -5 296 -5 C446 -5 505 58 505 153 L505 463 C505 508 525 538 556 538 L565 538 L565 553 L565 553 Z " />
<glyph glyph-name="V_sc" unicode="&#x1d20;" horiz-adv-x="591" d="M588 553 L420 553 L420 538 L432 538 C468 538 483 509 473 463 L352 125 C301 241 248 358 198 473 C181 512 191 538 223 538 L233 538 L233 553 L1 553 L1 538 C29 538 53 516 73 473 L73 473 L302 -15 L331 -15 C391 148 450 311 511 473 C527 517 553 538 588 538 L588 553 L588 553 Z " />
<glyph glyph-name="W_sc" unicode="&#x1d21;" horiz-adv-x="842" d="M836 553 L679 553 L679 538 L689 538 C725 538 741 512 729 473 L631 145 L471 563 L442 563 L260 -15 L289 -15 L417 392 L583 -15 L612 -15 L766 480 C781 519 804 537 837 537 L836 553 L836 553 Z M231 552 L4 552 L4 537 C32 537 54 517 71 475 L261 -16 L308 135 L193 475 C181 512 192 537 221 537 L230 537 L231 552 L231 552 Z " />
<glyph glyph-name="Z_sc" unicode="&#x1d22;" horiz-adv-x="526" d="M446 136 L437 120 C409 66 355 30 301 30 L182 30 L470 553 L88 553 L84 539 C76 509 66 470 58 440 L70 440 L80 453 C116 496 172 525 220 525 L324 525 L36 0 L441 0 L443 15 C450 50 458 96 464 131 C457 133 446 136 446 136 L446 136 Z " />
<glyph glyph-name="Wgrave" unicode="&#x1e80;" horiz-adv-x="978" d="M972 660 L811 660 L811 645 L821 645 C857 645 873 619 861 580 L861 580 L684 -15 L716 -15 L902 589 C917 627 939 644 972 644 L972 660 L972 660 Z M244 659 L3 659 L3 644 C32 644 53 622 70 579 L70 579 L297 -16 L329 -16 L481 465 L684 -16 L741 176 L546 669 L514 669 L297 -16 L353 163 L208 579 C194 618 205 644 235 644 L244 644 L244 659 L244 659 Z M446 860 C446 852 460 835 482 813 C514 772 602 689 602 689 L615 698 C615 698 573 817 541 858 C527 888 516 908 511 908 C492 908 446 874 446 860 L446 860 Z " />
<glyph glyph-name="Wacute" unicode="&#x1e82;" horiz-adv-x="978" d="M469 690 C469 690 555 774 586 814 C607 837 621 854 621 861 C621 875 576 909 556 909 C552 909 541 889 527 859 C496 819 456 699 456 699 L469 690 L469 690 Z M972 660 L811 660 L811 645 L821 645 C857 645 873 619 861 580 L861 580 L684 -15 L716 -15 L902 589 C917 627 939 644 972 644 L972 660 L972 660 Z M244 659 L3 659 L3 644 C32 644 53 622 70 579 L70 579 L297 -16 L329 -16 L481 465 L684 -16 L741 176 L546 669 L514 669 L297 -16 L353 163 L208 579 C194 618 205 644 235 644 L244 644 L244 659 L244 659 Z " />
<glyph glyph-name="Wdieresis" unicode="&#x1e84;" horiz-adv-x="978" d="M630 730 C673 730 701 758 701 800 C701 843 673 871 630 871 C588 871 560 843 560 800 C560 758 588 730 630 730 L630 730 Z M430 730 C472 730 500 758 500 800 C500 843 472 871 430 871 C387 871 359 843 359 800 C359 758 387 730 430 730 L430 730 Z M972 660 L811 660 L811 645 L821 645 C857 645 873 619 861 580 L861 580 L684 -15 L716 -15 L902 589 C917 627 939 644 972 644 L972 660 L972 660 Z M244 659 L3 659 L3 644 C32 644 53 622 70 579 L70 579 L297 -16 L329 -16 L481 465 L684 -16 L741 176 L546 669 L514 669 L297 -16 L353 163 L208 579 C194 618 205 644 235 644 L244 644 L244 659 L244 659 Z " />
<glyph glyph-name="Etilde" unicode="&#x1ebc;" horiz-adv-x="609" d="M160 755 C160 789 174 813 199 811 C250 811 318 748 369 748 C422 748 458 803 458 885 L439 885 C439 849 421 825 394 825 C343 825 275 887 224 887 C173 888 141 834 141 755 L160 755 L160 755 Z M451 276 L451 421 L439 421 L435 413 C423 386 382 368 331 368 L221 368 L221 628 L366 628 C426 628 481 596 503 547 L510 532 L521 532 L521 660 L40 660 L40 645 L48 645 C75 645 93 619 93 580 L93 80 C93 41 75 15 48 15 L40 15 L40 0 L520 0 L523 16 C529 50 537 94 543 128 L532 128 L522 113 C492 64 431 32 371 32 L221 32 L221 336 L331 336 C382 336 423 316 435 285 L439 276 L451 276 L451 276 Z " />
<glyph glyph-name="Ygrave" unicode="&#x1ef2;" horiz-adv-x="644" d="M235 861 C235 853 249 836 271 814 C303 773 391 690 391 690 L404 699 C404 699 362 818 330 859 C316 889 305 909 300 909 C281 909 235 875 235 861 L235 861 Z M251 660 L4 660 L4 645 C29 645 51 628 75 592 L255 289 L255 80 C255 41 237 15 210 15 L202 15 L202 0 L436 0 L436 15 L428 15 C401 15 383 41 383 80 L383 330 L383 330 L558 590 C585 627 610 645 640 645 L640 660 L487 660 L487 645 L497 645 C530 645 533 616 507 571 L367 356 L233 584 C213 621 217 645 244 645 L253 645 L251 660 L251 660 Z " />
<glyph glyph-name="quoteleft" unicode="&#x2018;" horiz-adv-x="283" d="M139 342 C186 342 218 374 218 421 C218 477 170 515 111 497 C104 570 143 634 194 653 L188 670 C102 637 44 551 44 454 C44 399 78 342 138 342 L139 342 L139 342 Z " />
<glyph glyph-name="quoteright" unicode="&#x2019;" horiz-adv-x="283" d="M139 665 C92 665 60 633 60 586 C60 530 108 492 167 510 C174 437 135 373 84 354 L90 337 C176 370 234 456 234 553 C234 608 200 665 140 665 L139 665 L139 665 Z " />
<glyph glyph-name="quotedblleft" unicode="&#x201c;" horiz-adv-x="506" d="M362 342 C409 342 441 374 441 421 C441 477 393 515 334 497 C327 570 366 634 417 653 L411 670 C325 637 267 551 267 454 C267 399 301 342 361 342 L362 342 L362 342 Z M138 342 C185 342 217 374 217 421 C217 477 169 515 110 497 C103 570 142 634 193 653 L187 670 C101 637 43 551 43 454 C43 399 77 342 137 342 L138 342 L138 342 Z " />
<glyph glyph-name="quotedblright" unicode="&#x201d;" horiz-adv-x="506" d="M362 665 C315 665 283 633 283 586 C283 530 331 492 390 510 C397 437 358 373 307 354 L313 337 C399 370 457 456 457 553 C457 608 423 665 363 665 L362 665 L362 665 Z M140 665 C93 665 61 633 61 586 C61 530 109 492 168 510 C175 437 136 373 85 354 L91 337 C177 370 235 456 235 553 C235 608 201 665 141 665 L140 665 L140 665 Z " />
<glyph glyph-name="ellipsis" unicode="&#x2026;" horiz-adv-x="645" d="M538 0 C586 0 618 32 618 80 C618 128 586 160 538 160 C490 160 458 128 458 80 C458 32 490 0 538 0 L538 0 Z M323 0 C371 0 403 32 403 80 C403 128 371 160 323 160 C275 160 243 128 243 80 C243 32 275 0 323 0 L323 0 Z M108 0 C156 0 188 32 188 80 C188 128 156 160 108 160 C60 160 28 128 28 80 C28 32 60 0 108 0 L108 0 Z " />
<glyph glyph-name="perthousand" unicode="&#x2030;" horiz-adv-x="1152" d="M942 200 C942 285 953 341 970 341 C1007 341 1032 267 1032 155 C1032 81 1018 32 996 32 C964 32 942 99 942 200 L942 200 Z M830 179 C830 69 892 -5 986 -5 C1078 -5 1140 75 1140 194 C1140 303 1078 375 986 375 C892 375 830 297 830 179 L830 179 Z M143 552 C143 635 154 691 171 691 C208 691 233 617 233 506 C233 432 219 383 197 383 C165 383 143 451 143 552 L143 552 Z M31 530 C31 419 93 345 187 345 C279 345 341 425 341 545 C341 653 279 725 187 725 C93 725 31 647 31 530 L31 530 Z M574 200 C574 285 588 341 610 341 C656 341 686 266 686 154 C686 81 666 32 636 32 C599 32 574 99 574 200 L574 200 Z M461 178 C461 68 527 -5 626 -5 C727 -5 794 75 794 194 C794 303 727 375 626 375 C527 375 461 296 461 178 L461 178 Z M212 -16 L677 704 L626 736 L161 16 L212 -16 L212 -16 Z " />
<glyph glyph-name="guilsinglleft" unicode="&#x2039;" horiz-adv-x="300" d="M134 252 L251 454 L239 466 L20 258 L20 245 L242 37 L255 50 L134 252 L134 252 Z " />
<glyph glyph-name="guilsinglright" unicode="&#x203a;" horiz-adv-x="300" d="M58 37 L280 245 L280 258 L61 466 L49 454 L166 252 L45 50 L58 37 L58 37 Z " />
<glyph glyph-name="fraction" unicode="&#x2044;" horiz-adv-x="482" d="M55 -16 L520 704 L470 736 L5 16 L55 -16 L55 -16 Z " />
<glyph glyph-name="Euro" unicode="&#x20ac;" horiz-adv-x="793" d="M733 448 L733 541 C720 615 615 665 471 665 C290 665 158 577 114 437 L61 437 L49 355 L99 355 C98 339 98 322 99 306 L49 306 L37 224 L114 224 C158 84 290 -4 471 -4 C615 -4 720 46 733 120 L717 123 L717 123 L733 120 L733 213 L720 213 C716 203 711 189 707 179 C676 98 604 39 527 31 C527 29 477 28 470 28 C360 28 280 103 251 224 L511 224 L522 306 L240 306 C239 322 239 339 240 355 L522 355 L534 437 L251 437 C280 558 360 633 470 633 C506 633 539 630 568 624 C622 613 677 556 705 482 C709 472 714 458 718 448 L733 448 L733 448 Z " />
<glyph glyph-name="F_sc" unicode="&#xa730;" horiz-adv-x="491" d="M43 538 L51 538 C78 538 96 512 96 473 L96 80 C96 41 78 15 51 15 L43 15 L43 0 L274 0 L274 15 L265 15 C233 15 211 41 211 80 L211 277 L266 277 C317 277 358 257 370 226 L374 217 L386 217 L386 358 L374 358 L370 350 C358 323 317 305 266 305 L211 305 L211 524 C253 524 303 524 352 524 C407 520 456 489 476 443 L483 428 L494 428 L494 552 L42 552 L43 538 L43 538 Z " />
<glyph glyph-name="S_sc" unicode="&#xa731;" horiz-adv-x="447" d="M365 350 L365 445 C353 513 298 558 227 558 C115 558 41 489 41 385 C41 321 94 261 173 234 C262 204 321 155 321 112 C321 59 277 24 210 24 C152 24 94 82 61 169 C57 179 52 193 48 203 L35 203 L35 108 C47 40 117 -5 210 -5 C325 -5 402 61 402 159 C402 226 344 290 258 319 C176 347 121 391 121 431 C121 490 161 530 222 530 C231 530 239 529 247 527 C276 521 305 482 323 432 C332 407 344 375 353 350 L365 350 L365 350 Z " />
<glyph glyph-name="X_sc" unicode="&#xf078;" horiz-adv-x="602" d="M35 0 L192 0 L192 15 L182 15 C148 15 144 45 170 90 L263 237 C297 185 331 132 364 80 C389 41 385 15 354 15 L345 15 L345 0 L577 0 L577 15 C553 15 532 30 507 62 L338 323 L443 482 C471 520 499 538 533 538 L533 553 L375 553 L375 538 L385 538 C416 538 426 517 410 485 L323 345 L240 473 C215 512 219 538 250 538 L259 538 L259 553 L28 553 L28 538 C51 538 71 524 95 493 C145 415 196 337 245 260 L116 65 C88 31 62 16 30 16 L35 0 L35 0 Z " />
</font>
</svg>
