<?xml version="1.0" encoding="UTF-8"?>
<svg xmlns="http://www.w3.org/2000/svg" xmlns:xlink="http://www.w3.org/1999/xlink" version="1.2" >
<font id="Maiah Regular">
<font-face  font-family="Maiah" units-per-em="1024" ascent="936" descent="-280" font-style="normal" font-weight="400" font-stretch="" cap-height="928" x-height="468" underline-position="-125" underline-thickness="50" />
<missing-glyph  horiz-adv-x="100" d="" />
<glyph glyph-name="NULL" d="" />
<glyph glyph-name="CR" unicode="&#xd;" horiz-adv-x="256" d="" />
<glyph glyph-name="space" unicode="&#x20;" horiz-adv-x="250" d="" />
<glyph glyph-name="exclam" unicode="&#x21;" horiz-adv-x="221" d="M118 -5 C153 -5 176 18 176 53 C176 88 153 111 118 111 C83 111 60 88 60 53 C60 18 83 -5 118 -5 L118 -5 Z M161 607 C164 642 145 665 112 665 C79 665 59 642 63 607 C63 481 112 186 112 186 L123 186 C123 186 161 481 161 607 L161 607 Z " />
<glyph glyph-name="quotedbl" unicode="&#x22;" horiz-adv-x="314" d="M172 660 L216 418 L230 418 L274 660 L172 660 L172 660 Z M40 660 L84 418 L97 418 L142 660 L40 660 L40 660 Z " />
<glyph glyph-name="numbersign" unicode="&#x23;" horiz-adv-x="544" d="M391 669 L365 491 L226 491 L252 669 L220 669 L194 491 L68 491 L59 429 L184 429 L155 231 L26 231 L18 169 L146 169 L121 0 L153 0 L178 169 L317 169 L292 0 L324 0 L349 169 L469 169 L477 231 L358 231 L387 429 L516 429 L524 491 L397 491 L423 669 L391 669 L391 669 Z M216 429 L355 429 L326 231 L187 231 L216 429 L216 429 Z " />
<glyph glyph-name="dollar" unicode="&#x24;" horiz-adv-x="505" d="M37 202 L37 109 C47 54 106 13 191 -1 L191 -76 L217 -76 L217 -4 C234 -6 253 -7 271 -6 L271 -76 L297 -76 L297 -3 C396 12 460 80 460 177 C460 253 396 325 297 360 L297 636 C336 626 364 593 382 543 C391 517 403 483 412 457 L425 457 L425 550 C415 606 366 647 297 660 L297 734 L271 734 L271 663 C253 664 234 664 217 662 L217 734 L191 734 L191 658 C102 637 46 567 46 470 C46 402 103 337 191 302 L191 22 C140 37 90 92 64 166 C60 177 55 190 51 201 L37 202 L37 202 Z M218 390 L218 640 C235 643 255 643 272 641 L272 369 C253 376 235 383 218 391 L218 390 L218 390 Z M192 405 C140 436 108 473 108 508 C108 571 140 617 192 635 L192 405 L192 405 Z M218 295 C237 289 255 282 272 274 L272 18 C254 17 235 18 218 20 L218 295 L218 295 Z M298 262 C360 228 398 185 398 143 C398 81 360 36 298 22 L298 262 L298 262 Z " />
<glyph glyph-name="percent" unicode="&#x25;" horiz-adv-x="801" d="M109 547 C109 639 134 701 171 701 C223 701 257 627 257 515 C257 429 230 371 189 371 C141 371 109 441 109 547 L109 547 Z M30 531 C30 419 91 345 182 345 C272 345 332 424 332 542 C332 652 272 725 182 725 C91 725 30 647 30 531 L30 531 Z M551 195 C551 289 578 351 618 351 C676 351 714 276 714 163 C714 78 683 21 636 21 C585 21 551 91 551 195 L551 195 Z M472 180 C472 69 535 -5 629 -5 C725 -5 789 73 789 191 C789 301 725 375 629 375 C535 375 472 297 472 180 L472 180 Z M199 -11 L664 709 L629 731 L164 11 L199 -11 L199 -11 Z " />
<glyph glyph-name="ampersand" unicode="&#x26;" horiz-adv-x="716" d="M607 300 L484 300 L484 285 L492 285 C519 285 537 259 537 220 L537 190 C537 161 528 135 511 113 C450 174 348 296 296 373 C394 397 459 465 459 548 C459 619 399 667 310 667 C221 667 162 601 162 503 C162 464 183 413 219 354 C116 309 50 235 50 158 C50 61 133 -3 257 -3 C350 -3 427 18 479 55 C569 -12 638 -12 717 2 L717 15 C668 6 620 12 527 100 C546 127 556 158 556 192 L556 222 C556 261 574 287 601 287 L609 287 L607 300 L607 300 Z M225 539 C225 606 258 650 307 650 C362 650 398 608 398 544 C398 467 356 405 290 384 C249 447 225 500 225 539 L225 539 Z M462 69 C422 46 368 33 304 33 C199 33 129 95 129 188 C129 249 168 306 231 341 C284 259 390 129 463 70 L462 69 L462 69 Z " />
<glyph glyph-name="quotesingle" unicode="&#x27;" horiz-adv-x="182" d="M40 660 L84 418 L97 418 L142 660 L40 660 L40 660 Z " />
<glyph glyph-name="parenleft" unicode="&#x28;" horiz-adv-x="239" d="M219 690 C124 576 60 450 60 270 C60 90 124 -36 219 -150 L229 -141 C165 -64 122 49 122 270 C122 491 165 604 229 681 L219 690 L219 690 Z " />
<glyph glyph-name="parenright" unicode="&#x29;" horiz-adv-x="239" d="M10 -150 C105 -36 169 90 169 270 C169 450 105 576 10 690 L0 681 C64 604 107 491 107 270 C107 49 64 -64 0 -141 L10 -150 L10 -150 Z " />
<glyph glyph-name="asterisk" unicode="&#x2a;" horiz-adv-x="292" d="M266 579 C284 586 290 600 281 616 C272 631 257 633 242 621 L153 545 L174 660 C177 679 168 691 150 691 C132 691 123 679 126 660 L147 545 L58 621 C43 633 28 631 19 616 C10 600 16 586 34 579 L143 540 L34 501 C16 494 10 480 19 465 C28 449 43 447 58 459 L147 535 L126 420 C123 401 132 389 150 389 C168 389 177 401 174 420 L153 535 L242 459 C257 447 272 449 281 465 C290 480 284 494 266 501 L157 540 L266 579 L266 579 Z " />
<glyph glyph-name="plus" unicode="&#x2b;" horiz-adv-x="555" d="M255 450 L255 268 L75 268 L75 232 L255 232 L255 50 L295 50 L295 232 L475 232 L475 268 L295 268 L295 450 L255 450 L255 450 Z " />
<glyph glyph-name="comma" unicode="&#x2c;" horiz-adv-x="236" d="M118 111 C83 111 60 88 60 53 C60 18 83 -5 118 -5 C126 -5 132 -3 137 1 C144 -53 117 -104 80 -122 L80 -135 C144 -104 186 -40 186 26 C186 69 163 112 118 112 L118 111 L118 111 Z " />
<glyph glyph-name="hyphen" unicode="&#x2d;" horiz-adv-x="280" d="M20 204 L260 204 L260 266 L20 266 L20 204 L20 204 Z " />
<glyph glyph-name="period" unicode="&#x2e;" horiz-adv-x="243" d="M125 -5 C160 -5 183 18 183 53 C183 88 160 111 125 111 C90 111 67 88 67 53 C67 18 90 -5 125 -5 L125 -5 Z " />
<glyph glyph-name="slash" unicode="&#x2f;" horiz-adv-x="346" d="M0 -145 L36 -145 L346 710 L310 710 L0 -145 L0 -145 Z " />
<glyph glyph-name="zero" unicode="0" horiz-adv-x="607" d="M139 250 C139 392 205 487 304 487 C402 487 468 392 468 250 C468 108 402 13 304 13 C205 13 139 108 139 250 L139 250 Z M50 250 C50 97 152 -5 304 -5 C456 -5 557 97 557 250 C557 403 456 505 304 505 C152 505 50 403 50 250 L50 250 Z " />
<glyph glyph-name="one" unicode="1" horiz-adv-x="296" d="M241 15 L233 15 C206 15 188 41 188 80 L188 420 C188 459 206 485 233 485 L241 485 L241 500 L55 500 L55 485 L63 485 C90 485 108 459 108 420 L108 80 C108 41 90 15 63 15 L55 15 L55 0 L241 0 L241 15 L241 15 Z " />
<glyph glyph-name="two" unicode="2" horiz-adv-x="484" d="M449 50 C452 77 454 109 457 134 L442 134 L441 126 C439 99 411 81 372 81 L151 81 C324 190 433 259 433 354 C433 446 368 507 271 507 C187 507 107 449 72 361 L81 354 C104 410 164 448 231 448 C299 448 344 400 344 327 C344 194 217 144 26 20 L26 2 L446 2 L449 50 L449 50 Z " />
<glyph glyph-name="three" unicode="3" horiz-adv-x="463" d="M164 179 C263 179 329 122 329 37 C329 -97 207 -192 24 -202 L25 -215 C258 -203 413 -100 413 41 C413 137 334 203 214 210 C314 258 375 319 375 376 C375 453 317 505 229 505 C149 505 62 454 10 377 L19 370 C50 416 118 447 188 447 C252 447 295 408 295 350 C295 292 238 233 148 196 C135 192 120 187 103 181 L103 168 C120 173 146 180 162 180 L164 179 L164 179 Z " />
<glyph glyph-name="four" unicode="4" horiz-adv-x="490" d="M12 14 L12 0 L290 0 L290 -150 L370 -150 L370 0 L480 0 L480 36 L370 36 L370 505 L357 505 C356 504 12 14 12 14 L12 14 Z M57 36 C106 105 215 259 290 366 L290 35 L57 36 L57 36 Z " />
<glyph glyph-name="five" unicode="5" horiz-adv-x="448" d="M309 500 L86 500 C86 410 66 199 66 199 L121 199 C239 199 318 140 318 51 C318 -74 203 -161 30 -167 L31 -182 C251 -174 398 -70 398 78 C398 198 303 278 161 278 L94 278 C98 319 103 370 106 416 L362 416 L389 500 C389 500 405 551 406 553 L391 553 C383 520 353 500 309 500 L309 500 Z " />
<glyph glyph-name="six" unicode="6" horiz-adv-x="570" d="M499 715 C237 706 63 538 63 296 C63 115 155 -5 292 -5 C436 -5 527 83 520 216 C520 344 440 430 320 430 C244 430 185 388 156 319 C157 541 290 694 499 701 L499 715 L499 715 Z M307 406 C384 406 436 328 436 211 C442 94 388 16 301 16 C212 16 153 97 153 219 C153 331 217 406 307 406 L307 406 Z " />
<glyph glyph-name="seven" unicode="7" horiz-adv-x="441" d="M23 418 C21 400 19 381 17 365 L32 365 L33 373 C35 400 63 418 102 418 L391 418 L122 -140 L211 -140 C284 71 356 282 430 492 L424 500 L29 500 L23 418 L23 418 Z " />
<glyph glyph-name="eight" unicode="8" horiz-adv-x="540" d="M334 353 C410 378 458 441 458 518 C458 606 383 665 271 665 C159 665 84 596 84 492 C84 420 132 353 208 314 C115 297 56 240 56 162 C56 62 143 -5 273 -5 C403 -5 489 68 489 177 C489 243 429 309 333 353 L334 353 L334 353 Z M323 357 C309 363 294 369 278 374 C201 399 150 458 150 523 C150 598 196 648 266 648 C340 648 390 591 390 505 C390 435 364 380 323 358 L323 357 L323 357 Z M131 176 C131 242 165 291 219 309 C230 304 241 300 253 296 C350 265 414 207 414 150 C414 68 359 13 277 13 C189 13 131 78 131 176 L131 176 Z " />
<glyph glyph-name="nine" unicode="9" horiz-adv-x="570" d="M71 -215 C333 -206 507 -38 507 204 C507 385 415 505 278 505 C134 505 43 417 50 284 C50 156 130 70 250 70 C326 70 385 112 414 181 C413 -41 280 -194 71 -201 L71 -215 L71 -215 Z M263 94 C186 94 134 172 134 289 C128 406 182 484 269 484 C358 484 417 403 417 281 C417 169 353 94 263 94 L263 94 Z " />
<glyph glyph-name="colon" unicode="&#x3a;" horiz-adv-x="243" d="M125 387 C160 387 183 410 183 445 C183 480 160 503 125 503 C90 503 67 480 67 445 C67 410 90 387 125 387 L125 387 Z M125 -5 C160 -5 183 18 183 53 C183 88 160 111 125 111 C90 111 67 88 67 53 C67 18 90 -5 125 -5 L125 -5 Z " />
<glyph glyph-name="semicolon" unicode="&#x3b;" horiz-adv-x="236" d="M118 388 C153 388 176 411 176 445 C176 480 153 503 118 503 C83 503 60 480 60 445 C60 411 83 388 118 388 L118 388 Z M118 111 C83 111 60 88 60 53 C60 18 83 -5 118 -5 C126 -5 132 -3 137 1 C144 -53 117 -104 80 -122 L80 -135 C144 -104 186 -40 186 26 C186 69 163 112 118 112 L118 111 L118 111 Z " />
<glyph glyph-name="less" unicode="&#x3c;" horiz-adv-x="539" d="M464 500 L49 298 C42 295 42 295 40 294 L40 256 L49 252 L464 50 L464 90 L74 275 L464 460 L464 500 L464 500 Z " />
<glyph glyph-name="equal" unicode="&#x3d;" horiz-adv-x="532" d="M82 218 L82 182 L462 182 L462 218 L82 218 L82 218 Z M82 318 L82 282 L462 282 L462 318 L82 318 L82 318 Z " />
<glyph glyph-name="greater" unicode="&#x3e;" horiz-adv-x="530" d="M490 257 L490 293 C352 362 214 431 76 500 L76 460 L456 275 L76 90 L76 50 C214 119 352 188 490 257 L490 257 Z " />
<glyph glyph-name="question" unicode="&#x3f;" horiz-adv-x="370" d="M140 -5 C175 -5 198 18 198 53 C198 88 175 111 140 111 C105 111 82 88 82 53 C82 18 105 -5 140 -5 L140 -5 Z M122 665 C72 665 39 640 39 603 C39 584 54 571 76 571 C97 571 126 602 147 602 C248 602 316 537 316 440 C316 416 292 372 166 372 L131 372 C122 372 116 367 117 360 L135 191 L145 191 L158 311 L193 311 C312 311 335 388 335 431 C335 571 250 665 122 665 L122 665 Z " />
<glyph glyph-name="at" unicode="&#x40;" horiz-adv-x="1157" d="M1041 0 C975 -142 796 -236 593 -236 C308 -236 118 -38 118 259 C118 556 302 754 579 754 C855 754 1039 590 1039 343 C1039 141 965 7 855 7 C756 7 710 84 739 200 L809 480 L733 480 L713 401 C697 455 649 489 583 489 C407 489 289 370 289 192 C289 82 359 8 465 8 C546 8 616 50 655 118 C664 32 731 -21 839 -21 C996 -21 1101 125 1101 343 C1101 603 892 777 578 777 C264 777 54 570 54 259 C54 -52 269 -259 592 -259 C805 -259 995 -155 1067 0 L1041 0 L1041 0 Z M701 356 L662 200 C640 112 578 53 506 53 C429 53 377 115 377 208 C377 364 459 468 581 468 C653 468 701 423 701 356 L701 356 Z " />
<glyph glyph-name="A" unicode="A" horiz-adv-x="633" d="M414 0 L625 0 L625 15 C596 15 574 31 556 67 L311 675 L289 675 L75 67 C58 31 35 15 3 15 L3 0 L158 0 L158 15 L147 15 C113 15 98 42 109 84 L160 234 L395 234 L455 80 C470 41 458 15 424 15 L414 15 L414 0 L414 0 Z M387 257 L168 257 L271 557 L387 257 L387 257 Z " />
<glyph glyph-name="B" unicode="B" horiz-adv-x="599" d="M43 645 L51 645 C78 645 96 619 96 580 L96 80 C96 41 78 15 51 15 L43 15 L43 0 L336 0 C482 0 579 73 579 182 C579 273 497 338 368 354 C465 374 525 430 525 506 C525 598 439 659 311 659 L43 659 L43 645 L43 645 Z M185 359 L185 637 L311 637 C386 637 436 585 436 506 C436 418 376 359 285 359 L185 359 L185 359 Z M185 341 L275 341 C402 341 486 277 486 181 C486 85 422 21 327 21 L185 21 L185 341 L185 341 Z " />
<glyph glyph-name="C" unicode="C" horiz-adv-x="714" d="M654 119 L643 121 L654 119 L654 119 Z M641 211 C637 200 632 186 628 175 C600 94 534 34 461 20 C440 17 417 16 393 16 C248 16 151 141 151 329 C151 517 248 642 393 642 C433 642 470 638 502 631 C554 615 603 558 629 485 C633 474 638 460 642 449 L655 449 L655 541 L644 539 L655 541 C642 615 537 665 393 665 C190 665 54 531 54 330 C54 129 190 -5 393 -5 C537 -5 642 45 655 119 L655 211 L641 211 L641 211 Z " />
<glyph glyph-name="D" unicode="D" horiz-adv-x="695" d="M43 645 L51 645 C78 645 96 619 96 580 L96 80 C96 41 78 15 51 15 L43 15 L43 0 L333 0 C520 0 645 132 645 330 C645 528 505 660 296 660 L43 660 L43 645 L43 645 Z M185 22 L185 638 L296 638 C452 638 556 515 556 330 C556 145 467 22 333 22 L185 22 L185 22 Z " />
<glyph glyph-name="E" unicode="E" horiz-adv-x="570" d="M412 281 L412 416 L400 416 L396 408 C384 381 343 363 292 363 L182 363 L182 638 L323 638 C383 638 438 606 460 557 L467 542 L478 542 L478 660 L40 660 L40 645 L48 645 C75 645 93 619 93 580 L93 80 C93 41 75 15 48 15 L40 15 L40 0 L480 0 L482 11 C488 43 495 86 501 118 L490 118 L480 103 C450 54 389 22 329 22 L182 22 L182 341 L292 341 C343 341 384 321 396 290 L400 281 L412 281 L412 281 Z " />
<glyph glyph-name="F" unicode="F" horiz-adv-x="507" d="M40 645 L48 645 C75 645 93 619 93 580 L93 80 C93 41 75 15 48 15 L40 15 L40 0 L245 0 L245 15 L236 15 C204 15 182 41 182 80 L182 336 L282 336 C333 336 374 316 386 285 L390 276 L402 276 L402 411 L390 411 L386 403 C374 376 333 358 282 358 L182 358 L182 638 L353 638 C413 638 468 606 490 557 L497 542 L508 542 L508 660 L40 660 L40 645 L40 645 Z " />
<glyph glyph-name="G" unicode="G" horiz-adv-x="782" d="M634 449 L634 541 L623 539 L634 541 C621 615 520 665 381 665 C184 665 53 531 53 330 C53 129 184 -5 381 -5 C472 -5 574 19 636 55 L636 230 C636 269 654 295 681 295 L689 295 L689 310 L503 310 L503 295 L511 295 C538 295 556 269 556 230 L556 45 C503 28 440 17 382 17 C243 17 151 142 151 330 C151 518 243 643 382 643 C418 643 451 640 480 634 C532 619 583 562 609 487 C613 476 618 461 622 450 L634 449 L634 449 Z " />
<glyph glyph-name="H" unicode="H" horiz-adv-x="733" d="M693 15 L685 15 C658 15 640 41 640 80 L640 580 C640 619 658 645 685 645 L693 645 L693 660 L498 660 L498 645 L506 645 C533 645 551 619 551 580 L551 358 L182 358 L182 580 C182 619 200 645 227 645 L235 645 L235 660 L40 660 L40 645 L48 645 C75 645 93 619 93 580 L93 80 C93 41 75 15 48 15 L40 15 L40 0 L235 0 L235 15 L227 15 C200 15 182 41 182 80 L182 336 L551 336 L551 80 C551 41 533 15 506 15 L498 15 L498 0 L693 0 L693 15 L693 15 Z " />
<glyph glyph-name="I" unicode="I" horiz-adv-x="275" d="M235 15 L227 15 C200 15 182 41 182 80 L182 580 C182 619 200 645 227 645 L235 645 L235 660 L40 660 L40 645 L48 645 C75 645 93 619 93 580 L93 80 C93 41 75 15 48 15 L40 15 L40 0 L235 0 L235 15 L235 15 Z " />
<glyph glyph-name="J" unicode="J" horiz-adv-x="370" d="M330 660 L135 660 L135 645 L143 645 C170 645 188 619 188 580 L188 200 C188 62 171 8 129 8 C103 8 81 25 75 50 C70 71 54 85 35 85 C9 85 -5 71 0 50 C9 14 52 -10 107 -10 C229 -10 277 70 277 275 L277 580 C277 619 295 645 322 645 L330 645 L330 660 L330 660 Z " />
<glyph glyph-name="K" unicode="K" horiz-adv-x="642" d="M558 660 L435 660 L435 645 L441 645 C459 645 451 625 422 594 L185 355 L185 580 C185 619 203 645 230 645 L238 645 L238 660 L43 660 L43 645 L51 645 C78 645 96 619 96 580 L96 80 C96 41 78 15 51 15 L43 15 L43 0 L238 0 L238 15 L230 15 C203 15 185 41 185 80 L185 355 L199 337 C199 337 297 215 352 147 C440 38 509 -5 600 -5 L632 -5 L632 12 C587 12 532 64 415 210 C342 301 287 370 262 401 L451 591 C491 628 524 646 558 646 L558 660 L558 660 Z " />
<glyph glyph-name="L" unicode="L" horiz-adv-x="570" d="M484 128 L475 112 C447 58 393 22 339 22 L182 22 L182 580 C182 619 200 645 227 645 L235 645 L235 660 L40 660 L40 645 L48 645 C75 645 93 619 93 580 L93 80 C93 41 75 15 48 15 L40 15 L40 0 L480 0 L482 11 C488 45 496 89 502 123 C495 125 484 128 484 128 L484 128 Z " />
<glyph glyph-name="M" unicode="M" horiz-adv-x="811" d="M609 0 L803 0 L803 15 C771 15 753 32 748 71 L724 592 C726 628 744 644 773 644 L773 659 L641 659 L421 100 L181 659 L59 659 L59 644 L67 644 C94 644 110 619 109 581 L90 79 C89 40 69 14 42 14 L34 14 L34 -1 L192 -1 L192 14 L180 14 C144 14 119 41 116 82 L134 548 C215 364 296 179 378 -5 L400 -5 L642 589 L659 69 C656 31 638 15 608 15 L609 0 L609 0 Z M420 100 L420 101 L420 100 L420 100 Z " />
<glyph glyph-name="N" unicode="N" horiz-adv-x="665" d="M40 645 L48 645 C75 645 93 619 93 580 L93 80 C93 41 75 15 48 15 L40 15 L40 0 L173 0 L173 15 L165 15 C138 15 120 41 120 80 L120 581 C261 381 403 182 543 -19 L574 -19 L574 579 C574 618 592 644 619 644 L627 644 L627 659 L494 659 L494 644 L502 644 C529 644 547 618 547 579 L547 127 L172 659 L39 659 L40 645 L40 645 Z M119 622 L119 622 L119 622 Z " />
<glyph glyph-name="O" unicode="O" horiz-adv-x="759" d="M150 330 C150 499 229 643 381 643 C533 643 612 499 612 330 C612 161 533 17 381 17 C229 17 150 161 150 330 L150 330 Z M53 330 C53 149 165 -5 381 -5 C597 -5 709 149 709 330 C709 511 597 665 381 665 C165 665 53 511 53 330 L53 330 Z " />
<glyph glyph-name="P" unicode="P" horiz-adv-x="566" d="M238 15 L230 15 C203 15 185 41 185 80 L185 295 L292 295 C444 295 546 368 546 478 C546 587 455 660 319 660 L43 660 L43 645 L51 645 C78 645 96 619 96 580 L96 80 C96 41 78 15 51 15 L43 15 L43 0 L238 0 L238 15 L238 15 Z M185 317 L185 638 L319 638 C399 638 453 574 453 478 C453 382 389 318 292 318 C292 318 217 317 185 317 L185 317 Z " />
<glyph glyph-name="Q" unicode="Q" horiz-adv-x="759" d="M802 -52 L794 -45 C778 -64 715 -76 636 -76 C519 -76 440 -48 390 -5 C600 -1 709 151 709 330 C709 511 597 665 381 665 C165 665 53 511 53 330 C53 156 157 7 358 -4 C438 -81 529 -132 627 -132 C691 -132 761 -100 802 -51 L802 -52 L802 -52 Z M150 331 C150 500 229 644 381 644 C533 644 612 500 612 331 C612 162 533 18 381 18 C229 18 150 162 150 331 L150 331 Z " />
<glyph glyph-name="R" unicode="R" horiz-adv-x="635" d="M43 645 L51 645 C78 645 96 619 96 580 L96 80 C96 41 78 15 51 15 L43 15 L43 0 L238 0 L238 15 L230 15 C203 15 185 41 185 80 L185 314 L265 314 C292 279 349 205 423 106 C500 4 507 0 603 0 L635 0 L635 17 C598 17 598 17 544 89 C457 205 392 290 367 323 C467 344 530 406 530 491 C530 593 443 661 312 661 L44 661 L43 645 L43 645 Z M186 337 L186 639 L312 639 C387 639 437 580 437 491 C437 399 377 338 286 338 L186 337 L186 337 Z " />
<glyph glyph-name="S" unicode="S" horiz-adv-x="505" d="M425 458 L425 551 C413 619 342 665 248 665 C127 665 46 587 46 471 C46 397 114 327 215 295 C324 261 397 200 397 142 C397 67 341 17 256 17 C235 17 215 19 197 22 C144 34 90 90 62 167 C58 178 53 191 49 202 L36 202 L36 109 C48 41 136 -5 255 -5 C377 -5 459 68 459 178 C459 257 389 332 283 365 C177 398 106 455 106 507 C106 589 161 643 243 643 C267 643 290 639 310 632 C338 621 366 586 381 543 C390 517 402 483 411 457 L425 458 L425 458 Z " />
<glyph glyph-name="T" unicode="T" horiz-adv-x="620" d="M213 0 L407 0 L407 15 L399 15 C372 15 354 41 354 80 L354 638 L463 638 C511 638 560 606 586 558 L600 532 L612 532 C609 567 605 614 602 649 L601 660 L19 660 L18 649 C15 614 11 567 8 532 L20 532 L34 558 C60 606 109 638 157 638 L266 638 L266 80 C266 41 248 15 221 15 L213 15 L213 0 L213 0 Z " />
<glyph glyph-name="U" unicode="U" horiz-adv-x="646" d="M615 660 L464 660 L464 645 L474 645 C506 645 528 615 528 570 L528 192 C528 92 475 26 338 26 C221 26 175 94 175 196 L175 580 C175 619 193 645 220 645 L228 645 L228 660 L33 660 L33 645 L41 645 C68 645 86 619 86 580 L86 213 C86 82 153 -5 325 -5 C491 -5 555 70 555 183 L555 570 C555 615 575 645 606 645 L615 645 L615 660 L615 660 Z " />
<glyph glyph-name="V" unicode="V" horiz-adv-x="694" d="M223 660 L18 660 L18 645 C44 645 64 628 82 593 L337 -15 L359 -15 C426 183 493 382 561 580 C576 624 602 645 637 645 L637 660 L477 660 L477 645 L489 645 C527 645 543 613 530 563 L378 104 L182 588 C171 622 184 644 214 644 L224 644 L223 660 L223 660 Z " />
<glyph glyph-name="W" unicode="W" horiz-adv-x="942" d="M926 660 L776 660 L776 645 L786 645 C820 645 836 622 828 586 L693 122 L501 670 L478 670 L314 114 C264 269 213 424 163 579 C150 618 162 644 192 644 L201 644 L201 659 L2 659 L2 644 C31 644 52 622 67 579 L276 -16 L298 -16 L458 524 L653 -16 L675 -16 L854 585 C868 626 891 645 925 645 L926 660 L926 660 Z " />
<glyph glyph-name="X" unicode="X" horiz-adv-x="644" d="M42 0 L197 0 L197 15 L187 15 C153 15 148 45 174 90 L300 296 L443 73 C463 38 458 15 428 15 L419 15 L419 0 L621 0 L621 15 C597 15 575 32 550 67 L355 371 L495 587 C523 626 552 645 586 645 L586 660 L431 660 L431 645 L441 645 C473 645 483 624 467 591 L343 391 L216 589 C197 623 203 645 232 645 L241 645 L241 660 L40 660 L40 645 C64 645 86 629 111 595 L289 317 L133 70 C106 33 78 16 45 16 L42 0 L42 0 Z " />
<glyph glyph-name="Y" unicode="Y" horiz-adv-x="606" d="M216 660 L14 660 L14 645 C40 645 62 626 85 588 L260 275 L260 81 C260 42 242 16 215 16 L207 16 L207 1 L402 1 L402 16 L394 16 C367 16 349 42 349 81 L349 309 C349 309 502 558 516 581 C542 624 571 646 602 646 L602 661 L460 661 L460 646 L470 646 C504 646 509 616 484 570 L336 324 L195 580 C174 619 178 645 206 645 L215 645 L216 660 L216 660 Z " />
<glyph glyph-name="Z" unicode="Z" horiz-adv-x="585" d="M511 129 L502 113 C474 59 420 23 366 23 L156 23 L529 660 L102 660 L99 649 C91 620 81 582 73 553 L85 553 L96 566 C131 609 188 638 236 638 L415 638 L43 0 L507 0 L509 11 L509 11 C515 45 523 90 529 124 C522 126 511 129 511 129 L511 129 Z " />
<glyph glyph-name="bracketleft" unicode="&#x5b;" horiz-adv-x="249" d="M134 642 L239 642 L239 660 L71 660 L71 -120 L239 -120 L239 -102 L134 -102 L134 642 L134 642 Z " />
<glyph glyph-name="backslash" unicode="&#x5c;" horiz-adv-x="246" d="M218 -145 L246 -145 L-32 710 L-60 710 L218 -145 L218 -145 Z " />
<glyph glyph-name="bracketright" unicode="&#x5d;" horiz-adv-x="242" d="M110 642 L110 -102 L5 -102 L5 -120 L172 -120 L172 660 L5 660 L5 642 L110 642 L110 642 Z " />
<glyph glyph-name="asciicircum" unicode="&#x5e;" horiz-adv-x="340" d="M196 721 C192 728 183 744 170 744 C158 744 148 729 145 722 C145 722 53 542 50 539 L58 532 C106 589 145 637 169 666 C209 618 281 532 281 532 L289 539 C289 539 244 621 195 721 L196 721 L196 721 Z " />
<glyph glyph-name="underscore" unicode="&#x5f;" horiz-adv-x="455" d="M5 -50 L5 -94 L450 -94 L450 -50 L5 -50 L5 -50 Z " />
<glyph glyph-name="grave" unicode="&#x60;" horiz-adv-x="340" d="M87 708 C87 702 103 683 127 657 C162 619 243 530 243 530 L252 537 C252 537 192 646 168 689 C151 721 138 742 133 742 C119 742 87 718 87 708 L87 708 Z " />
<glyph glyph-name="a" unicode="a" horiz-adv-x="496" d="M474 43 C465 34 452 28 425 28 C395 28 386 53 386 91 L386 356 C386 445 335 505 259 505 C99 505 22 421 68 296 L148 296 C107 408 144 483 241 483 C278 483 302 439 302 374 L302 257 C273 253 235 248 209 241 C105 215 36 160 36 102 C36 37 83 -6 153 -6 C204 -6 259 16 303 52 C308 13 326 -12 370 -12 C424 -12 456 5 482 31 L474 43 L474 43 Z M301 235 L301 80 C301 77 301 74 301 71 C271 55 232 45 192 45 C145 45 114 76 114 123 C114 164 152 200 208 214 C241 222 275 229 301 234 L301 235 L301 235 Z " />
<glyph glyph-name="b" unicode="b" horiz-adv-x="578" d="M283 -5 C427 -5 523 97 523 249 C523 403 440 505 315 505 C236 505 177 470 155 413 L155 719 L139 719 L22 683 L22 674 C65 658 75 646 75 588 L75 -1 L84 -1 C92 16 113 27 137 27 C181 27 227 -6 283 -6 L283 -5 L283 -5 Z M283 16 C206 16 155 70 155 152 L155 349 C155 420 195 468 254 468 C365 468 439 366 439 213 C439 95 377 16 283 16 L283 16 Z " />
<glyph glyph-name="c" unicode="c" horiz-adv-x="497" d="M447 210 L435 211 C432 111 384 44 315 44 C207 44 135 132 135 263 C135 395 197 483 291 483 C335 483 367 451 371 404 C373 380 389 364 411 364 C433 364 447 378 447 400 C441 463 383 505 300 505 C150 505 50 396 50 232 C50 90 130 -5 249 -5 C363 -5 442 81 447 210 L447 210 Z " />
<glyph glyph-name="d" unicode="d" horiz-adv-x="603" d="M360 675 C403 659 413 647 413 589 L413 430 C384 478 338 506 281 506 C145 506 55 393 55 223 C55 87 133 -4 250 -4 C329 -4 388 33 413 92 L413 1 L429 1 L546 37 L546 46 C503 62 493 74 493 132 L493 721 L477 721 L360 685 L360 675 L360 675 Z M413 127 C400 76 356 44 294 44 C200 44 138 128 138 253 C138 391 194 483 277 483 C343 483 392 441 412 373 L413 127 L413 127 Z " />
<glyph glyph-name="e" unicode="e" horiz-adv-x="503" d="M453 210 L441 211 C438 111 388 44 318 44 C190 44 119 162 139 317 L454 317 C454 430 382 505 275 505 C141 505 51 396 51 232 C51 90 132 -5 253 -5 C369 -5 449 81 454 210 L453 210 L453 210 Z M340 344 L142 332 C158 425 206 483 271 483 C336 483 380 444 380 385 C380 362 364 345 341 344 L340 344 L340 344 Z " />
<glyph glyph-name="f" unicode="f" horiz-adv-x="396" d="M233 15 L225 15 C198 15 180 41 180 80 L180 469 L315 469 L315 500 L180 500 L180 533 C180 634 252 702 283 702 C313 702 335 685 337 660 C339 638 355 624 377 624 C399 624 413 638 413 660 C410 696 367 720 305 720 C185 720 104 652 104 551 C102 551 100 500 100 500 L23 500 L23 469 L100 469 L100 80 C100 41 82 15 55 15 L47 15 L47 0 L233 0 L233 15 L233 15 Z " />
<glyph glyph-name="g" unicode="g" horiz-adv-x="472" d="M472 500 L337 482 C310 497 277 505 239 505 C133 505 63 442 63 348 C63 278 101 225 164 202 C93 196 48 157 48 100 C48 53 86 18 147 6 C71 -20 23 -70 23 -122 C23 -193 84 -242 175 -242 C342 -242 453 -162 453 -41 C453 32 381 80 274 80 C259 80 191 77 191 77 C137 77 101 99 101 131 C101 166 134 190 184 190 L239 190 C345 190 415 253 415 347 C415 389 401 425 376 452 L473 456 L472 500 L472 500 Z M239 209 C179 209 139 265 139 348 C139 431 179 487 239 487 C299 487 339 431 339 348 C339 265 299 209 239 209 L239 209 Z M169 3 C177 2 186 2 195 2 L252 5 C338 5 396 -29 396 -80 C396 -163 311 -218 184 -218 C119 -218 76 -176 76 -112 C76 -61 113 -15 169 3 L169 3 Z " />
<glyph glyph-name="h" unicode="h" horiz-adv-x="584" d="M358 0 L544 0 L544 15 L536 15 C509 15 491 41 491 80 L491 337 C491 438 457 505 371 505 C275 505 204 463 178 395 L178 721 L162 721 L45 685 L45 676 C88 660 98 648 98 590 L98 81 C98 42 80 16 53 16 L45 16 L45 1 L231 1 L231 16 L223 16 C196 16 178 42 178 81 L178 362 C192 417 241 452 309 452 C382 452 411 403 411 330 L411 81 C411 42 393 16 366 16 L358 16 L358 0 L358 0 Z " />
<glyph glyph-name="i" unicode="i" horiz-adv-x="276" d="M134 570 C166 570 187 591 187 623 C187 655 166 677 134 677 C102 677 80 655 80 623 C80 591 102 570 134 570 L134 570 Z M231 15 L223 15 C196 15 178 41 178 80 L178 500 L162 500 L45 464 L45 455 C88 439 98 427 98 369 L98 80 C98 41 80 15 53 15 L45 15 L45 0 L231 0 L231 15 L231 15 Z " />
<glyph glyph-name="j" unicode="j" horiz-adv-x="276" d="M134 570 C166 570 187 591 187 623 C187 655 166 677 134 677 C102 677 80 655 80 623 C80 591 102 570 134 570 L134 570 Z M45 455 C88 439 98 427 98 369 L98 4 C98 -130 71 -172 -12 -224 L-4 -235 C133 -149 179 -97 179 26 C178 28 178 479 178 479 L178 500 L162 500 L45 464 L45 455 L45 455 Z " />
<glyph glyph-name="k" unicode="k" horiz-adv-x="518" d="M546 15 C511 15 478 35 443 76 L247 317 L368 426 C413 465 450 484 485 484 L485 499 L360 499 L360 484 L366 484 C383 484 373 462 340 429 L179 274 L179 719 L163 719 L46 683 L46 674 C89 658 99 646 99 588 L99 79 C99 40 81 14 54 14 L46 14 L46 -1 L232 -1 L232 14 L224 14 C197 14 179 40 179 79 L179 274 C232 209 286 144 339 79 C371 40 379 14 358 14 L352 14 L352 -1 L546 -1 L546 15 L546 15 Z " />
<glyph glyph-name="l" unicode="l" horiz-adv-x="276" d="M231 15 L223 15 C196 15 178 41 178 80 L178 720 L162 720 L45 684 L45 675 C88 659 98 647 98 589 L98 80 C98 41 80 15 53 15 L45 15 L45 0 L231 0 L231 15 L231 15 Z " />
<glyph glyph-name="m" unicode="m" horiz-adv-x="917" d="M691 0 L877 0 L877 15 L869 15 C842 15 824 41 824 80 L824 337 C824 438 769 505 696 505 C588 505 519 466 492 403 C474 466 430 505 376 505 C269 505 202 464 177 398 L177 500 L161 500 L44 464 L44 455 C87 439 97 427 97 369 L97 80 C97 41 79 15 52 15 L44 15 L44 0 L230 0 L230 15 L222 15 C195 15 177 41 177 80 L177 364 C190 420 236 455 313 455 C373 455 419 404 419 328 L419 79 C419 40 401 14 374 14 L366 14 L366 -1 L552 -1 L552 14 L544 14 C517 14 499 40 499 79 L499 336 C499 349 498 362 496 374 C513 421 559 450 633 450 C695 450 742 401 742 328 L742 79 C742 40 724 14 697 14 L689 14 L691 0 L691 0 Z " />
<glyph glyph-name="n" unicode="n" horiz-adv-x="584" d="M358 0 L544 0 L544 15 L536 15 C509 15 491 41 491 80 L491 337 C491 438 457 505 371 505 C275 505 204 463 178 395 L178 501 L162 501 L45 465 L45 456 C88 440 98 428 98 370 L98 81 C98 42 80 16 53 16 L45 16 L45 1 L231 1 L231 16 L223 16 C196 16 178 42 178 81 L178 362 C192 417 241 452 309 452 C382 452 411 403 411 330 L411 81 C411 42 393 16 366 16 L358 16 L358 0 L358 0 Z " />
<glyph glyph-name="o" unicode="o" horiz-adv-x="597" d="M139 250 C139 392 203 487 299 487 C394 487 458 392 458 250 C458 108 394 13 299 13 C203 13 139 108 139 250 L139 250 Z M50 250 C50 97 150 -5 299 -5 C448 -5 547 97 547 250 C547 403 448 505 299 505 C150 505 50 403 50 250 L50 250 Z " />
<glyph glyph-name="p" unicode="p" horiz-adv-x="619" d="M231 -215 L223 -215 C196 -215 178 -189 178 -150 L178 64 C207 20 255 -6 315 -6 C464 -6 563 102 563 263 C563 408 484 504 365 504 C272 504 203 458 177 383 L177 500 L161 500 L44 464 L44 455 C87 439 97 427 97 369 L97 -150 C97 -189 79 -215 52 -215 L44 -215 L44 -230 L230 -230 L231 -215 L231 -215 Z M177 175 L177 327 C184 402 233 451 303 451 C412 451 484 351 484 201 C484 91 416 17 315 17 C232 17 177 80 177 175 L177 175 Z " />
<glyph glyph-name="q" unicode="q" horiz-adv-x="592" d="M547 -215 L539 -215 C512 -215 494 -189 494 -150 L494 500 L485 500 C477 478 456 463 433 463 C389 463 346 505 286 505 C149 505 57 392 57 222 C57 86 131 -5 242 -5 C326 -5 389 33 414 96 L414 -150 C414 -189 396 -215 369 -215 L361 -215 L361 -230 L547 -230 L547 -215 L547 -215 Z M414 145 C406 84 356 44 285 44 C198 44 140 128 140 253 C140 391 198 483 285 483 C362 483 413 409 413 297 L414 145 L414 145 Z " />
<glyph glyph-name="r" unicode="r" horiz-adv-x="404" d="M45 455 C88 439 98 427 98 369 L98 80 C98 41 80 15 53 15 L45 15 L45 0 L231 0 L231 15 L223 15 C196 15 178 41 178 80 L178 376 C191 420 217 446 251 446 C283 446 325 414 356 414 C379 414 395 429 395 452 C395 484 373 505 315 505 C248 505 198 461 179 389 L179 500 L163 500 L46 464 L45 455 L45 455 Z " />
<glyph glyph-name="s" unicode="s" horiz-adv-x="419" d="M349 350 L349 408 C339 466 286 505 218 505 C120 505 55 451 55 371 C55 319 112 259 197 222 C260 194 302 151 302 114 C302 53 264 13 206 13 C203 13 177 14 177 15 C135 20 91 65 65 126 C62 134 57 144 54 152 L43 152 L43 87 C53 32 116 -5 201 -5 C302 -5 369 55 369 144 C369 194 323 248 253 278 C171 314 116 362 116 398 C116 451 157 487 218 487 C236 487 253 483 267 476 C293 461 322 403 337 350 L349 350 L349 350 Z " />
<glyph glyph-name="t" unicode="t" horiz-adv-x="352" d="M320 500 L177 500 L177 640 L164 640 L148 599 C117 532 69 485 25 479 L25 470 L97 470 L97 114 C97 22 118 -4 192 -4 C312 -4 340 75 332 193 L323 192 C330 96 311 32 231 32 C189 32 177 47 177 99 L177 470 L320 470 L320 500 L320 500 Z M155 615 L156 619 C156 618 156 617 156 616 L155 615 L155 615 Z " />
<glyph glyph-name="u" unicode="u" horiz-adv-x="549" d="M15 485 L23 485 C50 485 68 459 68 420 L68 155 C68 59 116 -5 210 -5 C307 -5 360 31 381 90 L381 0 L397 0 L514 36 L514 45 C471 61 461 73 461 131 L461 500 L328 500 L328 485 L336 485 C363 485 381 459 381 420 L381 133 C373 81 340 48 272 48 C190 48 147 94 147 163 L148 500 L15 500 L15 485 L15 485 Z " />
<glyph glyph-name="v" unicode="v" horiz-adv-x="530" d="M186 500 L-6 500 L-6 485 C27 485 52 467 71 428 L250 -9 L263 -9 C321 134 378 278 436 421 C454 465 480 486 515 486 L515 501 L388 501 L388 486 L395 486 C418 486 426 463 414 428 L288 94 L158 434 C147 471 157 487 184 487 L186 500 L186 500 Z " />
<glyph glyph-name="w" unicode="w" horiz-adv-x="862" d="M527 500 L335 500 L335 485 C357 485 374 466 391 429 C401 404 412 378 422 353 L321 90 L192 429 C182 463 193 485 220 485 L229 485 L229 500 L37 500 L37 485 C64 485 85 466 103 428 L283 -10 L296 -10 L431 331 L571 -10 L584 -10 C642 133 699 277 757 420 C775 464 801 485 836 485 L836 500 L688 500 L688 485 L698 485 C731 485 745 461 733 425 L608 92 L477 436 C471 472 491 485 526 485 L527 500 L527 500 Z " />
<glyph glyph-name="x" unicode="x" horiz-adv-x="579" d="M523 500 L383 500 L383 485 L392 485 C421 485 425 462 403 427 L319 310 L237 431 C218 464 221 485 246 485 L254 485 L254 500 L61 500 L61 485 C90 485 119 462 147 420 L147 420 L267 243 L149 71 C119 33 88 15 50 15 L50 0 L212 0 L212 15 L201 15 C164 15 155 39 177 75 L278 227 L382 74 C404 39 405 16 384 16 L378 16 L378 1 L554 1 L554 16 C530 16 504 39 475 81 L475 81 L327 299 L420 421 C453 464 487 486 523 486 L523 500 L523 500 Z " />
<glyph glyph-name="y" unicode="y" horiz-adv-x="541" d="M552 500 L425 500 L425 485 L432 485 C455 485 463 462 451 427 L325 93 L195 433 C184 470 194 486 221 486 L221 501 L29 501 L29 486 C62 486 87 468 106 429 L281 3 C276 -9 267 -31 253 -63 C220 -144 194 -175 160 -175 C160 -175 107 -151 84 -151 C60 -151 44 -165 44 -185 C44 -211 71 -228 111 -228 C182 -228 228 -184 274 -70 C343 97 405 256 473 422 C491 466 517 487 552 487 L552 500 L552 500 Z " />
<glyph glyph-name="z" unicode="z" horiz-adv-x="483" d="M417 124 L408 108 C380 54 326 18 272 18 L152 18 L433 500 L70 500 C64 474 55 442 48 417 L60 417 L69 427 C99 456 147 478 191 482 L331 482 L48 0 L415 0 L416 9 L436 119 C429 121 418 124 418 124 L417 124 L417 124 Z " />
<glyph glyph-name="braceleft" unicode="&#x7b;" horiz-adv-x="248" d="M233 -120 L233 -107 L211 -107 C158 -107 123 -60 123 10 L122 159 C122 219 93 261 48 270 C93 280 122 323 122 383 L122 531 C122 601 158 648 211 648 L233 648 L233 661 L193 661 C113 661 60 609 60 531 L60 339 C60 299 39 278 5 278 L5 264 C39 264 60 243 60 204 L60 11 C60 -67 113 -119 193 -119 L233 -120 L233 -120 Z " />
<glyph glyph-name="bar" unicode="&#x7c;" horiz-adv-x="182" d="M60 770 L60 -234 L122 -234 L122 770 L60 770 L60 770 Z " />
<glyph glyph-name="braceright" unicode="&#x7d;" horiz-adv-x="248" d="M5 660 L5 647 L27 647 C80 647 115 600 115 530 L116 381 C116 321 145 279 190 270 C145 260 116 217 116 157 L116 9 C116 -61 80 -108 27 -108 L5 -108 L5 -121 L45 -121 C125 -121 178 -69 178 9 L178 201 C178 241 199 262 233 262 L233 276 C199 276 178 297 178 336 L178 529 C178 607 125 659 45 659 L5 660 L5 660 Z " />
<glyph glyph-name="asciitilde" unicode="&#x7e;" horiz-adv-x="340" d="M29 310 C29 347 46 372 72 372 C125 372 195 309 247 309 C293 309 324 355 324 423 L311 423 C311 386 292 362 264 362 C212 362 142 425 89 425 C45 425 16 379 16 310 L29 310 L29 310 Z " />
<glyph glyph-name="nbspace" unicode="&#xa0;" horiz-adv-x="220" d="" />
<glyph glyph-name="exclamdown" unicode="&#xa1;" horiz-adv-x="221" d="M103 505 C68 505 45 482 45 447 C45 412 68 389 103 389 C138 389 161 412 161 447 C161 482 138 505 103 505 L103 505 Z M60 -107 C61 -143 76 -165 109 -165 C142 -165 159 -143 158 -107 C158 146 109 314 109 314 L98 314 C98 314 60 146 60 -107 L60 -107 Z " />
<glyph glyph-name="cent" unicode="&#xa2;" horiz-adv-x="497" d="M272 575 L272 504 C138 491 50 386 50 232 C50 84 137 -18 272 -4 L272 -75 L298 -75 L298 1 C385 22 443 101 447 211 L435 212 C432 105 381 39 298 46 L298 484 C338 481 367 450 371 406 C373 382 389 366 411 366 C433 366 447 380 447 402 C441 466 382 508 298 507 L298 577 L272 575 L272 575 Z M272 51 C188 71 135 152 135 265 C135 388 189 473 272 484 L272 51 L272 51 Z " />
<glyph glyph-name="guillemotleft" unicode="&#xab;" horiz-adv-x="459" d="M186 246 L186 246 C186 246 186 246 187 246 C200 237 405 35 405 35 L414 44 C414 44 306 174 264 249 C291 294 359 403 412 456 L403 465 C270 332 186 255 186 255 L186 246 L186 246 Z M20 246 L20 246 C20 246 20 246 21 246 C35 237 240 36 240 36 L249 45 C249 45 140 175 98 249 C125 294 193 403 247 457 L238 466 C104 332 20 256 20 256 L20 246 L20 246 Z " />
<glyph glyph-name="acute" unicode="&#xb4;" horiz-adv-x="340" d="M93 530 C93 530 172 618 206 657 C229 684 245 703 245 708 C245 718 213 742 199 742 C195 742 182 721 165 689 C141 643 84 537 84 537 L93 530 L93 530 Z " />
<glyph glyph-name="guillemotright" unicode="&#xbb;" horiz-adv-x="459" d="M54 35 C54 35 259 238 273 246 L273 246 L273 255 C273 255 189 332 56 465 L47 456 C100 403 168 294 195 249 C153 174 45 44 45 44 L54 35 L54 35 Z M219 35 C219 35 424 237 439 246 L439 246 L439 255 C439 255 355 331 221 465 L212 456 C266 402 334 293 361 248 C319 174 210 44 210 44 L219 35 L219 35 Z " />
<glyph glyph-name="onequarter" unicode="&#xbc;" horiz-adv-x="758" d="M115 -20 L677 650 L643 680 L81 10 L115 -20 L115 -20 Z M434 62 L434 50 L552 50 L552 -2 L620 -2 L620 50 L675 50 L675 80 L620 80 L620 303 L608 303 C603 300 434 62 434 62 L434 62 Z M471 80 C491 108 523 152 552 192 C552 191 552 190 552 189 L552 80 L471 80 L471 80 Z M262 423 C245 423 235 433 235 455 L235 625 C235 648 245 658 262 658 L262 665 L141 665 L141 658 C158 658 167 648 167 625 L167 455 C167 433 157 423 141 423 L141 415 L262 415 L262 423 L262 423 Z " />
<glyph glyph-name="onehalf" unicode="&#xbd;" horiz-adv-x="758" d="M115 -20 L677 650 L643 680 L81 10 L115 -20 L115 -20 Z M662 34 C664 52 666 77 668 95 L660 95 C660 77 647 68 625 68 L556 68 C622 110 662 141 662 179 C662 223 628 253 576 253 C532 253 490 223 472 179 L481 174 C488 191 513 203 543 203 C569 203 586 184 586 155 C586 87 532 68 450 15 L450 0 L660 0 L662 34 L662 34 Z M263 423 C246 423 236 433 236 455 L236 625 C236 648 246 658 263 658 L263 665 L142 665 L142 658 C159 658 168 648 168 625 L168 455 C168 433 158 423 142 423 L142 415 L263 415 L263 423 L263 423 Z " />
<glyph glyph-name="threequarters" unicode="&#xbe;" horiz-adv-x="758" d="M173 497 C209 497 233 480 233 454 C233 397 181 356 103 352 L104 340 C225 347 305 393 305 457 C305 495 283 523 235 531 C271 553 292 578 292 602 C292 641 261 667 213 667 C172 667 125 637 95 593 L103 588 C115 605 145 617 179 617 C206 617 224 602 224 580 C224 552 198 524 158 508 C153 506 148 504 142 502 L142 490 C150 493 163 496 172 496 L173 497 L173 497 Z M114 -21 L676 649 L642 679 L80 9 L114 -21 L114 -21 Z M433 61 L433 49 L551 49 L551 -3 L619 -3 L619 49 L674 49 L674 79 L619 79 L619 302 L607 302 C602 299 433 61 433 61 L433 61 Z M470 79 C490 107 522 151 551 191 C551 190 551 189 551 188 L551 79 L470 79 L470 79 Z " />
<glyph glyph-name="questiondown" unicode="&#xbf;" horiz-adv-x="370" d="M230 505 C195 505 172 482 172 447 C172 412 195 389 230 389 C265 389 288 412 288 447 C288 482 265 505 230 505 L230 505 Z M248 -165 C298 -165 331 -140 331 -103 C331 -84 316 -71 294 -71 C273 -71 244 -102 223 -102 C122 -102 54 -37 54 60 C54 84 78 128 204 128 L239 128 C248 128 254 133 253 140 L235 309 L225 309 L212 189 L177 189 C58 189 35 112 35 69 C35 -71 120 -165 248 -165 L248 -165 Z " />
<glyph glyph-name="Agrave" unicode="&#xc0;" horiz-adv-x="633" d="M217 868 C217 862 233 843 257 817 C287 779 373 690 373 690 L382 697 C382 697 327 805 298 849 C281 881 268 902 263 902 C249 902 217 878 217 868 L217 868 Z M414 0 L625 0 L625 15 C596 15 574 31 556 67 L311 675 L289 675 L75 67 C58 31 35 15 3 15 L3 0 L158 0 L158 15 L147 15 C113 15 98 42 109 84 L160 234 L395 234 L455 80 C470 41 458 15 424 15 L414 15 L414 0 L414 0 Z M387 257 L168 257 L271 557 L387 257 L387 257 Z " />
<glyph glyph-name="Aacute" unicode="&#xc1;" horiz-adv-x="633" d="M238 690 C238 690 318 780 351 817 C374 844 390 863 390 868 C390 878 358 902 344 902 C340 902 327 881 310 849 C277 806 229 697 229 697 L238 690 L238 690 Z M414 0 L625 0 L625 15 C596 15 574 31 556 67 L311 675 L289 675 L75 67 C58 31 35 15 3 15 L3 0 L158 0 L158 15 L147 15 C113 15 98 42 109 84 L160 234 L395 234 L455 80 C470 41 458 15 424 15 L414 15 L414 0 L414 0 Z M387 257 L168 257 L271 557 L387 257 L387 257 Z " />
<glyph glyph-name="Acircumflex" unicode="&#xc2;" horiz-adv-x="633" d="M326 881 C322 888 313 904 300 904 C288 904 278 889 275 882 L180 699 L188 692 C235 751 275 798 299 827 C339 779 412 692 412 692 L420 699 C420 699 375 781 326 881 L326 881 Z M414 0 L625 0 L625 15 C596 15 574 31 556 67 L311 675 L289 675 L75 67 C58 31 35 15 3 15 L3 0 L158 0 L158 15 L147 15 C113 15 98 42 109 84 L160 234 L395 234 L455 80 C470 41 458 15 424 15 L414 15 L414 0 L414 0 Z M387 257 L168 257 L271 557 L387 257 L387 257 Z " />
<glyph glyph-name="Atilde" unicode="&#xc3;" horiz-adv-x="633" d="M159 755 C159 792 174 820 202 817 C255 817 325 754 377 754 C423 754 454 800 454 868 L441 868 C441 831 422 807 394 807 C342 807 272 870 219 870 C172 867 146 824 146 755 L159 755 L159 755 Z M414 0 L625 0 L625 15 C596 15 574 31 556 67 L311 675 L289 675 L75 67 C58 31 35 15 3 15 L3 0 L158 0 L158 15 L147 15 C113 15 98 42 109 84 L160 234 L395 234 L455 80 C470 41 458 15 424 15 L414 15 L414 0 L414 0 Z M387 257 L168 257 L271 557 L387 257 L387 257 Z " />
<glyph glyph-name="Adieresis" unicode="&#xc4;" horiz-adv-x="633" d="M394 730 C423 730 443 750 443 779 C443 808 423 828 394 828 C365 828 345 808 345 779 C345 750 365 730 394 730 L394 730 Z M206 730 C235 730 255 750 255 779 C255 808 235 828 206 828 C177 828 157 808 157 779 C157 750 177 730 206 730 L206 730 Z M414 0 L625 0 L625 15 C596 15 574 31 556 67 L311 675 L289 675 L75 67 C58 31 35 15 3 15 L3 0 L158 0 L158 15 L147 15 C113 15 98 42 109 84 L160 234 L395 234 L455 80 C470 41 458 15 424 15 L414 15 L414 0 L414 0 Z M387 257 L168 257 L271 557 L387 257 L387 257 Z " />
<glyph glyph-name="Aring" unicode="&#xc5;" horiz-adv-x="633" d="M228 788 C228 832 254 859 300 862 C343 862 372 832 372 788 C372 748 339 713 300 713 C261 713 228 748 228 788 L228 788 Z M205 788 C205 738 249 695 300 695 C351 695 395 738 395 788 C395 843 357 880 300 880 C241 883 205 843 205 788 L205 788 Z M414 0 L625 0 L625 15 C596 15 574 31 556 67 L311 675 L289 675 L75 67 C58 31 35 15 3 15 L3 0 L158 0 L158 15 L147 15 C113 15 98 42 109 84 L160 234 L395 234 L455 80 C470 41 458 15 424 15 L414 15 L414 0 L414 0 Z M387 257 L168 257 L271 557 L387 257 L387 257 Z " />
<glyph glyph-name="Ccedilla" unicode="&#xc7;" horiz-adv-x="714" d="M641 211 C637 200 632 186 628 175 C600 94 534 34 461 20 C440 17 417 16 393 16 C248 16 151 141 151 329 C151 517 248 642 393 642 C433 642 470 638 502 631 C554 615 603 558 629 485 C633 474 638 460 642 449 L655 449 L655 541 L644 539 L655 541 C642 615 537 665 393 665 C190 665 54 531 54 330 C54 132 186 -1 384 -5 L346 -91 L352 -94 C370 -85 393 -79 409 -79 C443 -79 465 -101 465 -134 C465 -172 436 -197 393 -197 C358 -197 329 -192 319 -185 L315 -194 C336 -210 373 -220 409 -220 C472 -220 514 -186 514 -134 C514 -91 480 -63 428 -63 C404 -63 377 -69 359 -78 C382 -31 399 -12 407 -5 C543 -2 641 47 654 118 L643 120 L654 118 L654 210 L641 211 L641 211 Z " />
<glyph glyph-name="Egrave" unicode="&#xc8;" horiz-adv-x="570" d="M181 868 C181 862 197 843 221 817 C251 778 337 690 337 690 L346 697 C346 697 293 809 262 849 C245 881 232 902 227 902 C213 902 181 878 181 868 L181 868 Z M412 281 L412 416 L400 416 L396 408 C384 381 343 363 292 363 L182 363 L182 638 L323 638 C383 638 438 606 460 557 L467 542 L478 542 L478 660 L40 660 L40 645 L48 645 C75 645 93 619 93 580 L93 80 C93 41 75 15 48 15 L40 15 L40 0 L480 0 L482 11 C488 43 495 86 501 118 L490 118 L480 103 C450 54 389 22 329 22 L182 22 L182 341 L292 341 C343 341 384 321 396 290 L400 281 L412 281 L412 281 Z " />
<glyph glyph-name="Eacute" unicode="&#xc9;" horiz-adv-x="570" d="M249 690 C249 690 328 779 362 817 C385 844 401 863 401 868 C401 878 369 902 355 902 C351 902 338 881 321 849 C288 810 240 697 240 697 L249 690 L249 690 Z M412 281 L412 416 L400 416 L396 408 C384 381 343 363 292 363 L182 363 L182 638 L323 638 C383 638 438 606 460 557 L467 542 L478 542 L478 660 L40 660 L40 645 L48 645 C75 645 93 619 93 580 L93 80 C93 41 75 15 48 15 L40 15 L40 0 L480 0 L482 11 C488 43 495 86 501 118 L490 118 L480 103 C450 54 389 22 329 22 L182 22 L182 341 L292 341 C343 341 384 321 396 290 L400 281 L412 281 L412 281 Z " />
<glyph glyph-name="Ecircumflex" unicode="&#xca;" horiz-adv-x="570" d="M306 881 C302 888 293 904 280 904 C268 904 258 889 255 882 C255 882 162 703 160 699 L168 692 C215 750 255 797 279 826 C319 778 392 691 392 691 L400 698 C400 698 355 780 306 880 L306 881 L306 881 Z M412 280 L412 415 L400 415 L396 407 C384 380 343 362 292 362 L182 362 L182 637 L323 637 C383 637 438 605 460 556 L467 541 L478 541 L478 659 L40 659 L40 644 L48 644 C75 644 93 618 93 579 L93 79 C93 40 75 14 48 14 L40 14 L40 -1 L480 -1 L482 10 C488 42 495 85 501 117 L490 117 L480 102 C450 53 389 21 329 21 L182 21 L182 340 L292 340 C343 340 384 320 396 289 L400 280 L412 280 L412 280 Z " />
<glyph glyph-name="Edieresis" unicode="&#xcb;" horiz-adv-x="570" d="M374 730 C403 730 423 750 423 779 C423 808 403 828 374 828 C345 828 325 808 325 779 C325 750 345 730 374 730 L374 730 Z M186 730 C215 730 235 750 235 779 C235 808 215 828 186 828 C157 828 137 808 137 779 C137 750 157 730 186 730 L186 730 Z M412 281 L412 416 L400 416 L396 408 C384 381 343 363 292 363 L182 363 L182 638 L323 638 C383 638 438 606 460 557 L467 542 L478 542 L478 660 L40 660 L40 645 L48 645 C75 645 93 619 93 580 L93 80 C93 41 75 15 48 15 L40 15 L40 0 L480 0 L482 11 C488 43 495 86 501 118 L490 118 L480 103 C450 54 389 22 329 22 L182 22 L182 341 L292 341 C343 341 384 321 396 290 L400 281 L412 281 L412 281 Z " />
<glyph glyph-name="Igrave" unicode="&#xcc;" horiz-adv-x="275" d="M55 868 C55 862 71 843 95 817 C127 780 211 690 211 690 L220 697 C220 697 165 797 136 849 C119 881 106 902 101 902 C87 902 55 878 55 868 L55 868 Z M235 15 L227 15 C200 15 182 41 182 80 L182 580 C182 619 200 645 227 645 L235 645 L235 660 L40 660 L40 645 L48 645 C75 645 93 619 93 580 L93 80 C93 41 75 15 48 15 L40 15 L40 0 L235 0 L235 15 L235 15 Z " />
<glyph glyph-name="Iacute" unicode="&#xcd;" horiz-adv-x="275" d="M76 690 C76 690 158 781 189 817 C212 844 228 863 228 868 C228 878 196 902 182 902 C178 902 165 881 148 849 C114 798 67 697 67 697 L76 690 L76 690 Z M235 15 L227 15 C200 15 182 41 182 80 L182 580 C182 619 200 645 227 645 L235 645 L235 660 L40 660 L40 645 L48 645 C75 645 93 619 93 580 L93 80 C93 41 75 15 48 15 L40 15 L40 0 L235 0 L235 15 L235 15 Z " />
<glyph glyph-name="Icircumflex" unicode="&#xce;" horiz-adv-x="275" d="M164 881 C160 888 151 904 138 904 C126 904 116 889 113 882 C113 882 23 702 18 699 L26 692 C74 751 113 798 137 826 C177 778 250 691 250 691 L258 698 C258 698 213 780 164 880 L164 881 L164 881 Z M18 698 L18 698 L18 698 Z M235 14 L227 14 C200 14 182 40 182 79 L182 579 C182 618 200 644 227 644 L235 644 L235 659 L40 659 L40 644 L48 644 C75 644 93 618 93 579 L93 79 C93 40 75 14 48 14 L40 14 L40 -1 L235 -1 L235 14 L235 14 Z " />
<glyph glyph-name="Idieresis" unicode="&#xcf;" horiz-adv-x="275" d="M232 730 C261 730 281 750 281 779 C281 808 261 828 232 828 C203 828 183 808 183 779 C183 750 203 730 232 730 L232 730 Z M44 730 C73 730 93 750 93 779 C93 808 73 828 44 828 C15 828 -5 808 -5 779 C-5 750 15 730 44 730 L44 730 Z M235 15 L227 15 C200 15 182 41 182 80 L182 580 C182 619 200 645 227 645 L235 645 L235 660 L40 660 L40 645 L48 645 C75 645 93 619 93 580 L93 80 C93 41 75 15 48 15 L40 15 L40 0 L235 0 L235 15 L235 15 Z " />
<glyph glyph-name="Ntilde" unicode="&#xd1;" horiz-adv-x="665" d="M193 755 C193 792 210 817 236 817 C289 817 359 754 411 754 C457 754 488 800 488 868 L475 868 C475 831 456 807 428 807 C376 807 306 870 253 870 C209 870 180 824 180 755 L193 755 L193 755 Z M40 645 L48 645 C75 645 93 619 93 580 L93 80 C93 41 75 15 48 15 L40 15 L40 0 L173 0 L173 15 L165 15 C138 15 120 41 120 80 L120 581 C261 381 403 182 543 -19 L574 -19 L574 579 C574 618 592 644 619 644 L627 644 L627 659 L494 659 L494 644 L502 644 C529 644 547 618 547 579 L547 127 L172 659 L39 659 L40 645 L40 645 Z M119 622 L119 622 L119 622 Z " />
<glyph glyph-name="Ograve" unicode="&#xd2;" horiz-adv-x="759" d="M150 330 C150 499 229 643 381 643 C533 643 612 499 612 330 C612 161 533 17 381 17 C229 17 150 161 150 330 L150 330 Z M53 330 C53 149 165 -5 381 -5 C597 -5 709 149 709 330 C709 511 597 665 381 665 C165 665 53 511 53 330 L53 330 Z M298 868 C298 862 314 843 338 817 C370 776 454 690 454 690 L463 697 C463 697 411 808 379 849 C362 881 349 902 344 902 C330 902 298 878 298 868 L298 868 Z " />
<glyph glyph-name="Oacute" unicode="&#xd3;" horiz-adv-x="759" d="M357 690 C357 690 439 777 470 817 C493 844 509 863 509 868 C509 878 477 902 463 902 C459 902 446 881 429 849 C398 809 348 697 348 697 L357 690 L357 690 Z M150 330 C150 499 229 643 381 643 C533 643 612 499 612 330 C612 161 533 17 381 17 C229 17 150 161 150 330 L150 330 Z M53 330 C53 149 165 -5 381 -5 C597 -5 709 149 709 330 C709 511 597 665 381 665 C165 665 53 511 53 330 L53 330 Z " />
<glyph glyph-name="Ocircumflex" unicode="&#xd4;" horiz-adv-x="759" d="M150 330 C150 499 229 643 381 643 C533 643 612 499 612 330 C612 161 533 17 381 17 C229 17 150 161 150 330 L150 330 Z M53 330 C53 149 165 -5 381 -5 C597 -5 709 149 709 330 C709 511 597 665 381 665 C165 665 53 511 53 330 L53 330 Z M407 881 C403 888 394 904 381 904 C369 904 359 889 356 882 C356 882 264 702 261 699 L269 692 C317 749 356 797 380 826 C420 778 492 692 492 692 L500 699 C500 699 455 781 406 881 L407 881 L407 881 Z " />
<glyph glyph-name="Otilde" unicode="&#xd5;" horiz-adv-x="759" d="M240 755 C240 792 257 817 283 817 C336 817 406 754 458 754 C504 754 535 800 535 868 L522 868 C522 831 503 807 475 807 C423 807 353 870 300 870 C256 870 227 824 227 755 L240 755 L240 755 Z M150 330 C150 499 229 643 381 643 C533 643 612 499 612 330 C612 161 533 17 381 17 C229 17 150 161 150 330 L150 330 Z M53 330 C53 149 165 -5 381 -5 C597 -5 709 149 709 330 C709 511 597 665 381 665 C165 665 53 511 53 330 L53 330 Z " />
<glyph glyph-name="Odieresis" unicode="&#xd6;" horiz-adv-x="759" d="M475 730 C504 730 524 750 524 779 C524 808 504 828 475 828 C446 828 426 808 426 779 C426 750 446 730 475 730 L475 730 Z M287 730 C316 730 336 750 336 779 C336 808 316 828 287 828 C258 828 238 808 238 779 C238 750 258 730 287 730 L287 730 Z M150 330 C150 499 229 643 381 643 C533 643 612 499 612 330 C612 161 533 17 381 17 C229 17 150 161 150 330 L150 330 Z M53 330 C53 149 165 -5 381 -5 C597 -5 709 149 709 330 C709 511 597 665 381 665 C165 665 53 511 53 330 L53 330 Z " />
<glyph glyph-name="Oslash" unicode="&#xd8;" horiz-adv-x="759" d="M67 -19 L157 73 C211 24 286 -6 381 -6 C597 -6 709 148 709 329 C709 416 683 497 632 557 L723 650 L695 678 L605 586 C551 635 476 665 381 665 C165 665 53 511 53 330 C53 243 79 162 130 102 L39 9 L67 -19 L67 -19 Z M560 541 L184 157 C162 207 151 267 151 331 C151 500 230 644 382 644 C462 644 522 604 561 542 L560 541 L560 541 Z M580 505 C602 455 613 395 613 331 C613 162 534 18 382 18 C302 18 242 58 203 120 L580 505 L580 505 Z " />
<glyph glyph-name="Ugrave" unicode="&#xd9;" horiz-adv-x="635" d="M237 868 C237 862 253 843 277 817 C309 776 393 690 393 690 L402 697 C402 697 350 808 318 849 C301 881 288 902 283 902 C269 902 237 878 237 868 L237 868 Z M615 660 L464 660 L464 645 L474 645 C506 645 528 615 528 570 L528 192 C528 92 475 26 338 26 C221 26 175 94 175 196 L175 580 C175 619 193 645 220 645 L228 645 L228 660 L33 660 L33 645 L41 645 C68 645 86 619 86 580 L86 213 C86 82 153 -5 325 -5 C491 -5 555 70 555 183 L555 570 C555 615 575 645 606 645 L615 645 L615 660 L615 660 Z " />
<glyph glyph-name="Uacute" unicode="&#xda;" horiz-adv-x="635" d="M320 690 C320 690 402 777 433 817 C456 844 472 863 472 868 C472 878 440 902 426 902 C422 902 409 881 392 849 C361 809 311 697 311 697 L320 690 L320 690 Z M615 660 L464 660 L464 645 L474 645 C506 645 528 615 528 570 L528 192 C528 92 475 26 338 26 C221 26 175 94 175 196 L175 580 C175 619 193 645 220 645 L228 645 L228 660 L33 660 L33 645 L41 645 C68 645 86 619 86 580 L86 213 C86 82 153 -5 325 -5 C491 -5 555 70 555 183 L555 570 C555 615 575 645 606 645 L615 645 L615 660 L615 660 Z " />
<glyph glyph-name="Ucircumflex" unicode="&#xdb;" horiz-adv-x="635" d="M346 881 C342 888 333 904 321 904 C308 904 298 889 295 882 C295 882 202 700 201 699 L209 692 C257 749 296 797 320 826 C360 778 432 692 432 692 L440 699 C440 699 395 781 346 881 L346 881 Z M615 660 L464 660 L464 645 L474 645 C506 645 528 615 528 570 L528 192 C528 92 475 26 338 26 C221 26 175 94 175 196 L175 580 C175 619 193 645 220 645 L228 645 L228 660 L33 660 L33 645 L41 645 C68 645 86 619 86 580 L86 213 C86 82 153 -5 325 -5 C491 -5 555 70 555 183 L555 570 C555 615 575 645 606 645 L615 645 L615 660 L615 660 Z " />
<glyph glyph-name="Udieresis" unicode="&#xdc;" horiz-adv-x="635" d="M415 730 C444 730 464 750 464 779 C464 808 444 828 415 828 C386 828 366 808 366 779 C366 750 386 730 415 730 L415 730 Z M226 730 C255 730 275 750 275 779 C275 808 255 828 226 828 C197 828 177 808 177 779 C177 750 197 730 226 730 L226 730 Z M615 660 L464 660 L464 645 L474 645 C506 645 528 615 528 570 L528 192 C528 92 475 26 338 26 C221 26 175 94 175 196 L175 580 C175 619 193 645 220 645 L228 645 L228 660 L33 660 L33 645 L41 645 C68 645 86 619 86 580 L86 213 C86 82 153 -5 325 -5 C491 -5 555 70 555 183 L555 570 C555 615 575 645 606 645 L615 645 L615 660 L615 660 Z " />
<glyph glyph-name="Yacute" unicode="&#xdd;" horiz-adv-x="606" d="M305 690 C305 690 387 777 418 817 C441 844 457 863 457 868 C457 878 425 902 411 902 C407 902 394 881 377 849 C346 809 296 697 296 697 L305 690 L305 690 Z M216 660 L14 660 L14 645 C40 645 62 626 85 588 L260 275 L260 81 C260 42 242 16 215 16 L207 16 L207 1 L402 1 L402 16 L394 16 C367 16 349 42 349 81 L349 309 C349 309 502 558 516 581 C542 624 571 646 602 646 L602 661 L460 661 L460 646 L470 646 C504 646 509 616 484 570 L336 324 L195 580 C174 619 178 645 206 645 L215 645 L216 660 L216 660 Z " />
<glyph glyph-name="agrave" unicode="&#xe0;" horiz-adv-x="496" d="M474 43 C465 34 452 28 425 28 C395 28 386 53 386 91 L386 356 C386 445 335 505 259 505 C99 505 22 421 68 296 L148 296 C107 408 144 483 241 483 C278 483 302 439 302 374 L302 257 C273 253 235 248 209 241 C105 215 36 160 36 102 C36 37 83 -6 153 -6 C204 -6 259 16 303 52 C308 13 326 -12 370 -12 C424 -12 456 5 482 31 L474 43 L474 43 Z M143 706 C143 700 159 681 183 655 C215 614 299 528 299 528 L308 535 C308 535 256 646 224 687 C207 719 194 740 189 740 C175 740 143 716 143 706 L143 706 Z M301 235 L301 80 C301 77 301 74 301 71 C271 55 232 45 192 45 C145 45 114 76 114 123 C114 164 152 200 208 214 C241 222 275 229 301 234 L301 235 L301 235 Z " />
<glyph glyph-name="aacute" unicode="&#xe1;" horiz-adv-x="496" d="M196 530 C196 530 278 617 309 657 C332 684 348 703 348 708 C348 718 316 742 302 742 C298 742 285 721 268 689 C237 649 187 537 187 537 L196 530 L196 530 Z M474 43 C465 34 452 28 425 28 C395 28 386 53 386 91 L386 356 C386 445 335 505 259 505 C99 505 22 421 68 296 L148 296 C107 408 144 483 241 483 C278 483 302 439 302 374 L302 257 C273 253 235 248 209 241 C105 215 36 160 36 102 C36 37 83 -6 153 -6 C204 -6 259 16 303 52 C308 13 326 -12 370 -12 C424 -12 456 5 482 31 L474 43 L474 43 Z M301 235 L301 80 C301 77 301 74 301 71 C271 55 232 45 192 45 C145 45 114 76 114 123 C114 164 152 200 208 214 C241 222 275 229 301 234 L301 235 L301 235 Z " />
<glyph glyph-name="acircumflex" unicode="&#xe2;" horiz-adv-x="496" d="M474 43 C465 34 452 28 425 28 C395 28 386 53 386 91 L386 356 C386 445 335 505 259 505 C99 505 22 421 68 296 L148 296 C107 408 144 483 241 483 C278 483 302 439 302 374 L302 257 C273 253 235 248 209 241 C105 215 36 160 36 102 C36 37 83 -6 153 -6 C204 -6 259 16 303 52 C308 13 326 -12 370 -12 C424 -12 456 5 482 31 L474 43 L474 43 Z M252 719 C248 726 239 742 226 742 C214 742 204 727 201 720 C201 720 109 540 106 537 L114 530 C162 587 201 635 225 664 C265 616 337 530 337 530 L345 537 C345 537 300 619 251 719 L252 719 L252 719 Z M300 235 L300 80 C300 77 300 74 300 71 C270 55 231 45 191 45 C144 45 113 76 113 123 C113 164 151 200 207 214 C240 222 274 229 300 234 L300 235 L300 235 Z " />
<glyph glyph-name="atilde" unicode="&#xe3;" horiz-adv-x="496" d="M86 595 C86 632 103 657 129 657 C182 657 252 594 304 594 C350 594 381 640 381 708 L368 708 C368 671 349 647 321 647 C269 647 199 710 146 710 C102 710 73 664 73 595 L86 595 L86 595 Z M474 43 C465 34 452 28 425 28 C395 28 386 53 386 91 L386 356 C386 445 335 505 259 505 C99 505 22 421 68 296 L148 296 C107 408 144 483 241 483 C278 483 302 439 302 374 L302 257 C273 253 235 248 209 241 C105 215 36 160 36 102 C36 37 83 -6 153 -6 C204 -6 259 16 303 52 C308 13 326 -12 370 -12 C424 -12 456 5 482 31 L474 43 L474 43 Z M301 235 L301 80 C301 77 301 74 301 71 C271 55 232 45 192 45 C145 45 114 76 114 123 C114 164 152 200 208 214 C241 222 275 229 301 234 L301 235 L301 235 Z " />
<glyph glyph-name="adieresis" unicode="&#xe4;" horiz-adv-x="496" d="M321 570 C350 570 370 590 370 619 C370 648 350 668 321 668 C292 668 272 648 272 619 C272 590 292 570 321 570 L321 570 Z M133 570 C162 570 182 590 182 619 C182 648 162 668 133 668 C104 668 84 648 84 619 C84 590 104 570 133 570 L133 570 Z M474 43 C465 34 452 28 425 28 C395 28 386 53 386 91 L386 356 C386 445 335 505 259 505 C99 505 22 421 68 296 L148 296 C107 408 144 483 241 483 C278 483 302 439 302 374 L302 257 C273 253 235 248 209 241 C105 215 36 160 36 102 C36 37 83 -6 153 -6 C204 -6 259 16 303 52 C308 13 326 -12 370 -12 C424 -12 456 5 482 31 L474 43 L474 43 Z M301 235 L301 80 C301 77 301 74 301 71 C271 55 232 45 192 45 C145 45 114 76 114 123 C114 164 152 200 208 214 C241 222 275 229 301 234 L301 235 L301 235 Z " />
<glyph glyph-name="aring" unicode="&#xe5;" horiz-adv-x="496" d="M155 628 C155 672 184 702 227 702 C270 702 299 672 299 628 C299 588 266 553 227 553 C188 553 155 588 155 628 L155 628 Z M132 628 C132 578 176 535 227 535 C278 535 322 578 322 628 C322 683 284 720 227 720 C170 720 132 683 132 628 L132 628 Z M474 43 C465 34 452 28 425 28 C395 28 386 53 386 91 L386 356 C386 445 335 505 259 505 C99 505 22 421 68 296 L148 296 C107 408 144 483 241 483 C278 483 302 439 302 374 L302 257 C273 253 235 248 209 241 C105 215 36 160 36 102 C36 37 83 -6 153 -6 C204 -6 259 16 303 52 C308 13 326 -12 370 -12 C424 -12 456 5 482 31 L474 43 L474 43 Z M301 235 L301 80 C301 77 301 74 301 71 C271 55 232 45 192 45 C145 45 114 76 114 123 C114 164 152 200 208 214 C241 222 275 229 301 234 L301 235 L301 235 Z " />
<glyph glyph-name="ccedilla" unicode="&#xe7;" horiz-adv-x="497" d="M216 -78 C239 -30 256 -11 264 -4 C370 3 442 87 447 210 L435 211 C432 111 384 44 315 44 C207 44 135 132 135 263 C135 395 197 483 291 483 C335 483 367 451 371 404 C373 380 389 364 411 364 C433 364 447 378 447 400 C441 463 383 505 300 505 C150 505 50 396 50 232 C50 93 126 -1 240 -6 L202 -92 L208 -95 C226 -86 249 -80 265 -80 C299 -80 321 -102 321 -135 C321 -173 292 -198 249 -198 C214 -198 185 -193 175 -186 L171 -195 C192 -211 229 -221 265 -221 C328 -221 370 -187 370 -135 C370 -92 336 -64 284 -64 C260 -64 233 -70 215 -79 L216 -78 L216 -78 Z " />
<glyph glyph-name="egrave" unicode="&#xe8;" horiz-adv-x="503" d="M453 210 L441 211 C438 111 388 44 318 44 C190 44 119 162 139 317 L454 317 C454 430 382 505 275 505 C141 505 51 396 51 232 C51 90 132 -5 253 -5 C369 -5 449 81 454 210 L453 210 L453 210 Z M192 708 C192 702 208 683 232 657 C264 616 348 530 348 530 L357 537 C357 537 305 648 273 689 C256 721 243 742 238 742 C224 742 192 718 192 708 L192 708 Z M340 344 L142 332 C158 425 206 483 271 483 C336 483 380 444 380 385 C380 362 364 345 341 344 L340 344 L340 344 Z " />
<glyph glyph-name="eacute" unicode="&#xe9;" horiz-adv-x="503" d="M243 530 C243 530 325 617 356 657 C379 684 395 703 395 708 C395 718 363 742 349 742 C345 742 332 721 315 689 C284 649 234 537 234 537 L243 530 L243 530 Z M453 210 L441 211 C438 111 388 44 318 44 C190 44 119 162 139 317 L454 317 C454 430 382 505 275 505 C141 505 51 396 51 232 C51 90 132 -5 253 -5 C369 -5 449 81 454 210 L453 210 L453 210 Z M340 344 L142 332 C158 425 206 483 271 483 C336 483 380 444 380 385 C380 362 364 345 341 344 L340 344 L340 344 Z " />
<glyph glyph-name="ecircumflex" unicode="&#xea;" horiz-adv-x="503" d="M453 210 L441 211 C438 111 388 44 318 44 C190 44 119 162 139 317 L454 317 C454 430 382 505 275 505 C141 505 51 396 51 232 C51 90 132 -5 253 -5 C369 -5 449 81 454 210 L453 210 L453 210 Z M301 721 C297 728 288 744 275 744 C263 744 253 729 250 722 C250 722 158 542 155 539 L163 532 C211 589 250 637 274 666 C314 618 386 532 386 532 L394 539 C394 539 349 621 300 721 L301 721 L301 721 Z M339 344 L141 332 C157 425 205 483 270 483 C335 483 379 444 379 385 C379 362 363 345 340 344 L339 344 L339 344 Z " />
<glyph glyph-name="edieresis" unicode="&#xeb;" horiz-adv-x="503" d="M368 570 C397 570 417 590 417 619 C417 648 397 668 368 668 C339 668 319 648 319 619 C319 590 339 570 368 570 L368 570 Z M180 570 C209 570 229 590 229 619 C229 648 209 668 180 668 C151 668 131 648 131 619 C131 590 151 570 180 570 L180 570 Z M453 210 L441 211 C438 111 388 44 318 44 C190 44 119 162 139 317 L454 317 C454 430 382 505 275 505 C141 505 51 396 51 232 C51 90 132 -5 253 -5 C369 -5 449 81 454 210 L453 210 L453 210 Z M340 344 L142 332 C158 425 206 483 271 483 C336 483 380 444 380 385 C380 362 364 345 341 344 L340 344 L340 344 Z " />
<glyph glyph-name="igrave" unicode="&#xec;" horiz-adv-x="276" d="M55 708 C55 702 71 683 95 657 C127 616 211 530 211 530 L220 537 C220 537 168 648 136 689 C119 721 106 742 101 742 C87 742 55 718 55 708 L55 708 Z M231 15 L223 15 C196 15 178 41 178 80 L178 500 L162 500 L45 464 L45 455 C88 439 98 427 98 369 L98 80 C98 41 80 15 53 15 L45 15 L45 0 L231 0 L231 15 L231 15 Z " />
<glyph glyph-name="iacute" unicode="&#xed;" horiz-adv-x="276" d="M61 530 C61 530 143 617 174 657 C197 684 213 703 213 708 C213 718 181 742 167 742 C163 742 150 721 133 689 C102 649 52 537 52 537 L61 530 L61 530 Z M231 15 L223 15 C196 15 178 41 178 80 L178 500 L162 500 L45 464 L45 455 C88 439 98 427 98 369 L98 80 C98 41 80 15 53 15 L45 15 L45 0 L231 0 L231 15 L231 15 Z " />
<glyph glyph-name="icircumflex" unicode="&#xee;" horiz-adv-x="276" d="M164 721 C160 728 151 744 138 744 C126 744 116 729 113 722 C113 722 21 542 18 539 L26 532 C74 589 113 637 137 666 C177 618 249 532 249 532 L257 539 C257 539 212 621 163 721 L164 721 L164 721 Z M230 15 L222 15 C195 15 177 41 177 80 L177 500 L161 500 L44 464 L44 455 C87 439 97 427 97 369 L97 80 C97 41 79 15 52 15 L44 15 L44 0 L230 0 L230 15 L230 15 Z " />
<glyph glyph-name="idieresis" unicode="&#xef;" horiz-adv-x="276" d="M232 570 C261 570 281 590 281 619 C281 648 261 668 232 668 C203 668 183 648 183 619 C183 590 203 570 232 570 L232 570 Z M44 570 C73 570 93 590 93 619 C93 648 73 668 44 668 C15 668 -5 648 -5 619 C-5 590 15 570 44 570 L44 570 Z M231 15 L223 15 C196 15 178 41 178 80 L178 500 L162 500 L45 464 L45 455 C88 439 98 427 98 369 L98 80 C98 41 80 15 53 15 L45 15 L45 0 L231 0 L231 15 L231 15 Z " />
<glyph glyph-name="ntilde" unicode="&#xf1;" horiz-adv-x="584" d="M154 595 C154 632 171 657 196 657 C249 657 320 594 373 594 C419 594 449 640 449 708 L435 708 C435 671 417 647 390 647 C337 647 266 710 213 710 C170 710 141 664 141 595 L154 595 L154 595 Z M358 0 L544 0 L544 15 L536 15 C509 15 491 41 491 80 L491 337 C491 438 457 505 371 505 C275 505 204 463 178 395 L178 501 L162 501 L45 465 L45 456 C88 440 98 428 98 370 L98 81 C98 42 80 16 53 16 L45 16 L45 1 L231 1 L231 16 L223 16 C196 16 178 42 178 81 L178 362 C192 417 241 452 309 452 C382 452 411 403 411 330 L411 81 C411 42 393 16 366 16 L358 16 L358 0 L358 0 Z " />
<glyph glyph-name="ograve" unicode="&#xf2;" horiz-adv-x="597" d="M139 250 C139 392 203 487 299 487 C394 487 458 392 458 250 C458 108 394 13 299 13 C203 13 139 108 139 250 L139 250 Z M50 250 C50 97 150 -5 299 -5 C448 -5 547 97 547 250 C547 403 448 505 299 505 C150 505 50 403 50 250 L50 250 Z M215 708 C215 702 231 683 255 657 C287 616 371 530 371 530 L380 537 C380 537 328 648 296 689 C279 721 266 742 261 742 C247 742 215 718 215 708 L215 708 Z " />
<glyph glyph-name="oacute" unicode="&#xf3;" horiz-adv-x="597" d="M268 530 C268 530 350 617 381 657 C404 684 420 703 420 708 C420 718 388 742 374 742 C370 742 357 721 340 689 C309 649 259 537 259 537 L268 530 L268 530 Z M139 250 C139 392 203 487 299 487 C394 487 458 392 458 250 C458 108 394 13 299 13 C203 13 139 108 139 250 L139 250 Z M50 250 C50 97 150 -5 299 -5 C448 -5 547 97 547 250 C547 403 448 505 299 505 C150 505 50 403 50 250 L50 250 Z " />
<glyph glyph-name="ocircumflex" unicode="&#xf4;" horiz-adv-x="597" d="M139 250 C139 392 203 487 299 487 C394 487 458 392 458 250 C458 108 394 13 299 13 C203 13 139 108 139 250 L139 250 Z M50 250 C50 97 150 -5 299 -5 C448 -5 547 97 547 250 C547 403 448 505 299 505 C150 505 50 403 50 250 L50 250 Z M324 721 C320 728 311 744 299 744 C286 744 276 729 273 722 C273 722 180 540 179 539 L187 532 C235 589 274 637 298 666 C338 618 410 532 410 532 L418 539 C418 539 373 621 324 721 L324 721 Z " />
<glyph glyph-name="otilde" unicode="&#xf5;" horiz-adv-x="597" d="M158 595 C158 632 175 657 200 657 C253 657 324 594 377 594 C423 594 453 640 453 708 L439 708 C439 671 421 647 394 647 C341 647 270 710 217 710 C174 710 145 664 145 595 L158 595 L158 595 Z M139 250 C139 392 203 487 299 487 C394 487 458 392 458 250 C458 108 394 13 299 13 C203 13 139 108 139 250 L139 250 Z M50 250 C50 97 150 -5 299 -5 C448 -5 547 97 547 250 C547 403 448 505 299 505 C150 505 50 403 50 250 L50 250 Z " />
<glyph glyph-name="odieresis" unicode="&#xf6;" horiz-adv-x="597" d="M393 570 C422 570 442 590 442 619 C442 648 422 668 393 668 C364 668 344 648 344 619 C344 590 364 570 393 570 L393 570 Z M204 570 C233 570 253 590 253 619 C253 648 233 668 204 668 C175 668 155 648 155 619 C155 590 175 570 204 570 L204 570 Z M139 250 C139 392 203 487 299 487 C394 487 458 392 458 250 C458 108 394 13 299 13 C203 13 139 108 139 250 L139 250 Z M50 250 C50 97 150 -5 299 -5 C448 -5 547 97 547 250 C547 403 448 505 299 505 C150 505 50 403 50 250 L50 250 Z " />
<glyph glyph-name="oslash" unicode="&#xf8;" horiz-adv-x="597" d="M60 -14 L128 56 C171 17 230 -5 299 -5 C448 -5 547 97 547 250 C547 321 526 381 488 425 L557 496 L537 514 L469 444 C426 483 368 505 299 505 C150 505 50 403 50 250 C50 179 71 119 109 75 L40 4 L60 -14 L60 -14 Z M427 401 L159 126 C146 161 139 203 139 250 C139 392 203 487 299 487 C354 487 399 455 427 401 L427 401 Z M439 374 C452 339 459 297 459 250 C459 108 395 13 300 13 C244 13 199 45 171 100 L439 374 L439 374 Z " />
<glyph glyph-name="ugrave" unicode="&#xf9;" horiz-adv-x="549" d="M181 708 C181 702 197 683 221 657 C253 616 337 530 337 530 L346 537 C346 537 294 648 262 689 C245 721 232 742 227 742 C213 742 181 718 181 708 L181 708 Z M15 485 L23 485 C50 485 68 459 68 420 L68 155 C68 59 116 -5 210 -5 C307 -5 360 31 381 90 L381 0 L397 0 L514 36 L514 45 C471 61 461 73 461 131 L461 500 L328 500 L328 485 L336 485 C363 485 381 459 381 420 L381 133 C373 81 340 48 272 48 C190 48 147 94 147 163 L148 500 L15 500 L15 485 L15 485 Z " />
<glyph glyph-name="uacute" unicode="&#xfa;" horiz-adv-x="549" d="M234 530 C234 530 316 617 347 657 C370 684 386 703 386 708 C386 718 354 742 340 742 C336 742 323 721 306 689 C275 649 225 537 225 537 L234 530 L234 530 Z M15 485 L23 485 C50 485 68 459 68 420 L68 155 C68 59 116 -5 210 -5 C307 -5 360 31 381 90 L381 0 L397 0 L514 36 L514 45 C471 61 461 73 461 131 L461 500 L328 500 L328 485 L336 485 C363 485 381 459 381 420 L381 133 C373 81 340 48 272 48 C190 48 147 94 147 163 L148 500 L15 500 L15 485 L15 485 Z " />
<glyph glyph-name="ucircumflex" unicode="&#xfb;" horiz-adv-x="549" d="M290 721 C286 728 277 744 265 744 C252 744 242 729 239 722 C239 722 146 540 145 539 L153 532 C201 589 240 637 264 666 C304 618 376 532 376 532 L384 539 C384 539 339 621 290 721 L290 721 Z M15 485 L23 485 C50 485 68 459 68 420 L68 155 C68 59 116 -5 210 -5 C307 -5 360 31 381 90 L381 0 L397 0 L514 36 L514 45 C471 61 461 73 461 131 L461 500 L328 500 L328 485 L336 485 C363 485 381 459 381 420 L381 133 C373 81 340 48 272 48 C190 48 147 94 147 163 L148 500 L15 500 L15 485 L15 485 Z " />
<glyph glyph-name="udieresis" unicode="&#xfc;" horiz-adv-x="549" d="M359 570 C388 570 408 590 408 619 C408 648 388 668 359 668 C330 668 310 648 310 619 C310 590 330 570 359 570 L359 570 Z M170 570 C199 570 219 590 219 619 C219 648 199 668 170 668 C141 668 121 648 121 619 C121 590 141 570 170 570 L170 570 Z M15 485 L23 485 C50 485 68 459 68 420 L68 155 C68 59 116 -5 210 -5 C307 -5 360 31 381 90 L381 0 L397 0 L514 36 L514 45 C471 61 461 73 461 131 L461 500 L328 500 L328 485 L336 485 C363 485 381 459 381 420 L381 133 C373 81 340 48 272 48 C190 48 147 94 147 163 L148 500 L15 500 L15 485 L15 485 Z " />
<glyph glyph-name="ydieresis" unicode="&#xff;" horiz-adv-x="460" d="M349 570 C378 570 398 590 398 619 C398 648 378 668 349 668 C320 668 300 648 300 619 C300 590 320 570 349 570 L349 570 Z M161 570 C190 570 210 590 210 619 C210 648 190 668 161 668 C132 668 112 648 112 619 C112 590 132 570 161 570 L161 570 Z M516 500 L389 500 L389 485 L396 485 C419 485 427 462 415 427 L289 93 L159 433 C148 470 158 486 185 486 L185 501 L-7 501 L-7 486 C26 486 51 468 70 429 L245 3 C240 -9 231 -31 217 -63 C184 -144 158 -175 124 -175 C124 -175 71 -151 48 -151 C24 -151 8 -165 8 -185 C8 -211 35 -228 75 -228 C146 -228 192 -184 238 -70 C307 97 369 256 437 422 C455 466 481 487 516 487 L516 500 L516 500 Z " />
<glyph glyph-name="Amacron" unicode="&#x100;" horiz-adv-x="633" d="M150 766 C150 766 358 769 450 766 L450 810 C357 807 150 810 150 810 L150 766 L150 766 Z M414 0 L625 0 L625 15 C596 15 574 31 556 67 L311 675 L289 675 L75 67 C58 31 35 15 3 15 L3 0 L158 0 L158 15 L147 15 C113 15 98 42 109 84 L160 234 L395 234 L455 80 C470 41 458 15 424 15 L414 15 L414 0 L414 0 Z M387 257 L168 257 L271 557 L387 257 L387 257 Z " />
<glyph glyph-name="amacron" unicode="&#x101;" horiz-adv-x="496" d="M77 606 L377 606 L377 650 L77 650 L77 606 L77 606 Z M474 43 C465 34 452 28 425 28 C395 28 386 53 386 91 L386 356 C386 445 335 505 259 505 C99 505 22 421 68 296 L148 296 C107 408 144 483 241 483 C278 483 302 439 302 374 L302 257 C273 253 235 248 209 241 C105 215 36 160 36 102 C36 37 83 -6 153 -6 C204 -6 259 16 303 52 C308 13 326 -12 370 -12 C424 -12 456 5 482 31 L474 43 L474 43 Z M301 235 L301 80 C301 77 301 74 301 71 C271 55 232 45 192 45 C145 45 114 76 114 123 C114 164 152 200 208 214 C241 222 275 229 301 234 L301 235 L301 235 Z " />
<glyph glyph-name="Abreve" unicode="&#x102;" horiz-adv-x="633" d="M177 871 C197 800 245 756 300 753 C354 753 404 800 424 871 L410 875 C398 834 354 806 300 806 C243 803 202 834 190 875 L177 871 L177 871 Z M414 0 L625 0 L625 15 C596 15 574 31 556 67 L311 675 L289 675 L75 67 C58 31 35 15 3 15 L3 0 L158 0 L158 15 L147 15 C113 15 98 42 109 84 L160 234 L395 234 L455 80 C470 41 458 15 424 15 L414 15 L414 0 L414 0 Z M387 257 L168 257 L271 557 L387 257 L387 257 Z " />
<glyph glyph-name="abreve" unicode="&#x103;" horiz-adv-x="496" d="M104 681 C124 610 174 563 227 563 C281 563 331 610 351 681 L337 685 C325 644 281 616 227 616 C173 616 129 644 117 685 L104 681 L104 681 Z M474 43 C465 34 452 28 425 28 C395 28 386 53 386 91 L386 356 C386 445 335 505 259 505 C99 505 22 421 68 296 L148 296 C107 408 144 483 241 483 C278 483 302 439 302 374 L302 257 C273 253 235 248 209 241 C105 215 36 160 36 102 C36 37 83 -6 153 -6 C204 -6 259 16 303 52 C308 13 326 -12 370 -12 C424 -12 456 5 482 31 L474 43 L474 43 Z M301 235 L301 80 C301 77 301 74 301 71 C271 55 232 45 192 45 C145 45 114 76 114 123 C114 164 152 200 208 214 C241 222 275 229 301 234 L301 235 L301 235 Z " />
<glyph glyph-name="Aogonek" unicode="&#x104;" horiz-adv-x="633" d="M625 15 C596 15 574 31 556 67 L311 675 L289 675 L75 67 C58 31 35 15 3 15 L3 0 L158 0 L158 15 L147 15 C113 15 98 42 109 84 L160 234 L395 234 L455 80 C470 41 458 15 424 15 L414 15 L414 0 L451 0 C398 -34 326 -102 328 -156 C328 -203 376 -235 447 -235 C481 -235 514 -222 530 -203 L525 -197 C517 -207 493 -213 465 -213 C412 -213 377 -187 377 -148 C375 -80 453 -13 485 -1 L624 -1 L625 15 L625 15 Z M386 256 L167 256 L270 556 L386 256 L386 256 Z " />
<glyph glyph-name="aogonek" unicode="&#x105;" horiz-adv-x="496" d="M445 29 C400 22 385 42 385 90 L385 355 C385 444 334 504 258 504 C98 504 21 420 67 295 L147 295 C106 407 143 482 240 482 C277 482 301 438 301 373 L301 256 C272 252 234 247 208 240 C104 214 35 159 35 101 C35 36 82 -7 152 -7 C203 -7 258 15 302 51 C307 12 325 -13 369 -13 C379 -13 388 -12 396 -11 C358 -47 324 -93 324 -135 C324 -196 372 -236 443 -236 C477 -236 510 -223 526 -204 L521 -198 C513 -208 489 -214 461 -214 C408 -214 373 -179 373 -127 C373 -79 408 -29 440 2 C456 9 469 19 481 31 L481 48 C471 44 458 37 444 27 L445 29 L445 29 Z M301 234 L301 79 C301 76 301 73 301 70 C271 54 232 44 192 44 C145 44 114 75 114 122 C114 163 152 199 208 213 C241 221 275 228 301 233 L301 234 L301 234 Z " />
<glyph glyph-name="Cacute" unicode="&#x106;" horiz-adv-x="714" d="M345 690 C345 690 427 777 458 817 C481 844 497 863 497 868 C497 878 465 902 451 902 C447 902 434 881 417 849 C386 809 336 697 336 697 L345 690 L345 690 Z M654 119 L643 121 L654 119 L654 119 Z M641 211 C637 200 632 186 628 175 C600 94 534 34 461 20 C440 17 417 16 393 16 C248 16 151 141 151 329 C151 517 248 642 393 642 C433 642 470 638 502 631 C554 615 603 558 629 485 C633 474 638 460 642 449 L655 449 L655 541 L644 539 L655 541 C642 615 537 665 393 665 C190 665 54 531 54 330 C54 129 190 -5 393 -5 C537 -5 642 45 655 119 L655 211 L641 211 L641 211 Z " />
<glyph glyph-name="cacute" unicode="&#x107;" horiz-adv-x="497" d="M223 530 C223 530 305 617 336 657 C359 684 375 703 375 708 C375 718 343 742 329 742 C325 742 312 721 295 689 C264 649 214 537 214 537 L223 530 L223 530 Z M447 210 L435 211 C432 111 384 44 315 44 C207 44 135 132 135 263 C135 395 197 483 291 483 C335 483 367 451 371 404 C373 380 389 364 411 364 C433 364 447 378 447 400 C441 463 383 505 300 505 C150 505 50 396 50 232 C50 90 130 -5 249 -5 C363 -5 442 81 447 210 L447 210 Z " />
<glyph glyph-name="Ccircumflex" unicode="&#x108;" horiz-adv-x="714" d="M418 881 C414 888 405 904 392 904 C380 904 370 889 367 882 C367 882 275 702 272 699 L280 692 C328 749 367 797 391 826 C431 778 503 692 503 692 L511 699 C511 699 466 781 417 881 L418 881 L418 881 Z M653 119 L642 121 L653 119 L653 119 Z M640 211 C636 200 631 186 627 175 C599 94 533 34 460 20 C439 17 416 16 392 16 C247 16 150 141 150 329 C150 517 247 642 392 642 C432 642 469 638 501 631 C553 615 602 558 628 485 C632 474 637 460 641 449 L654 449 L654 541 L643 539 L654 541 C641 615 536 665 392 665 C189 665 53 531 53 330 C53 129 189 -5 392 -5 C536 -5 641 45 654 119 L654 211 L640 211 L640 211 Z " />
<glyph glyph-name="Cdot" unicode="&#x10a;" horiz-adv-x="714" d="M392 730 C421 730 441 750 441 779 C441 808 421 828 392 828 C363 828 343 808 343 779 C343 750 363 730 392 730 L392 730 Z M654 119 L643 121 L654 119 L654 119 Z M641 211 C637 200 632 186 628 175 C600 94 534 34 461 20 C440 17 417 16 393 16 C248 16 151 141 151 329 C151 517 248 642 393 642 C433 642 470 638 502 631 C554 615 603 558 629 485 C633 474 638 460 642 449 L655 449 L655 541 L644 539 L655 541 C642 615 537 665 393 665 C190 665 54 531 54 330 C54 129 190 -5 393 -5 C537 -5 642 45 655 119 L655 211 L641 211 L641 211 Z " />
<glyph glyph-name="cdot" unicode="&#x10b;" horiz-adv-x="497" d="M300 570 C329 570 349 590 349 619 C349 648 329 668 300 668 C271 668 251 648 251 619 C251 590 271 570 300 570 L300 570 Z M447 210 L435 211 C432 111 384 44 315 44 C207 44 135 132 135 263 C135 395 197 483 291 483 C335 483 367 451 371 404 C373 380 389 364 411 364 C433 364 447 378 447 400 C441 463 383 505 300 505 C150 505 50 396 50 232 C50 90 130 -5 249 -5 C363 -5 442 81 447 210 L447 210 Z " />
<glyph glyph-name="Ccaron" unicode="&#x10c;" horiz-adv-x="714" d="M504 928 C504 928 432 842 392 794 C368 823 329 871 281 928 L273 921 C276 918 368 738 368 738 C371 731 381 716 393 716 C406 716 415 732 419 739 C468 839 513 921 513 921 L504 928 L504 928 Z M655 119 L644 121 L655 119 L655 119 Z M642 211 C638 200 633 186 629 175 C601 94 535 34 462 20 C441 17 418 16 394 16 C249 16 152 141 152 329 C152 517 249 642 394 642 C434 642 471 638 503 631 C555 615 604 558 630 485 C634 474 639 460 643 449 L656 449 L656 541 L645 539 L656 541 C643 615 538 665 394 665 C191 665 55 531 55 330 C55 129 191 -5 394 -5 C538 -5 643 45 656 119 L656 211 L642 211 L642 211 Z " />
<glyph glyph-name="ccaron" unicode="&#x10d;" horiz-adv-x="497" d="M412 768 C412 768 340 682 300 634 C276 663 237 711 189 768 L181 761 C184 758 276 578 276 578 C279 571 289 556 301 556 C314 556 323 572 327 579 C376 679 421 761 421 761 L412 768 L412 768 Z M448 210 L436 211 C433 111 385 44 316 44 C208 44 136 132 136 263 C136 395 198 483 292 483 C336 483 368 451 372 404 C374 380 390 364 412 364 C434 364 448 378 448 400 C442 463 384 505 301 505 C151 505 51 396 51 232 C51 90 131 -5 250 -5 C364 -5 443 81 448 210 L448 210 Z " />
<glyph glyph-name="Dcaron" unicode="&#x10e;" horiz-adv-x="695" d="M438 928 C438 928 366 842 326 794 C302 823 263 871 215 928 L207 921 C210 918 302 738 302 738 C305 731 315 716 327 716 C340 716 349 732 353 739 C402 839 447 921 447 921 L438 928 L438 928 Z M44 645 L52 645 C79 645 97 619 97 580 L97 80 C97 41 79 15 52 15 L44 15 L44 0 L334 0 C521 0 646 132 646 330 C646 528 506 660 297 660 L44 660 L44 645 L44 645 Z M186 22 L186 638 L297 638 C453 638 557 515 557 330 C557 145 468 22 334 22 L186 22 L186 22 Z " />
<glyph glyph-name="dcaron" unicode="&#x10f;" horiz-adv-x="603" d="M611 753 C593 753 578 691 570 646 L540 482 L551 479 L621 627 C645 676 661 727 661 735 C661 748 626 753 611 753 L611 753 Z M360 675 C403 659 413 647 413 589 L413 430 C384 478 338 506 281 506 C145 506 55 393 55 223 C55 87 133 -4 250 -4 C329 -4 388 33 413 92 L413 1 L429 1 L546 37 L546 46 C503 62 493 74 493 132 L493 721 L477 721 L360 685 L360 675 L360 675 Z M413 127 C400 76 356 44 294 44 C200 44 138 128 138 253 C138 391 194 483 277 483 C343 483 392 441 412 373 L413 127 L413 127 Z " />
<glyph glyph-name="Emacron" unicode="&#x112;" horiz-adv-x="570" d="M130 766 C130 766 338 768 430 766 L430 810 C339 811 130 810 130 810 L130 766 L130 766 Z M412 281 L412 416 L400 416 L396 408 C384 381 343 363 292 363 L182 363 L182 638 L323 638 C383 638 438 606 460 557 L467 542 L478 542 L478 660 L40 660 L40 645 L48 645 C75 645 93 619 93 580 L93 80 C93 41 75 15 48 15 L40 15 L40 0 L480 0 L482 11 C488 43 495 86 501 118 L490 118 L480 103 C450 54 389 22 329 22 L182 22 L182 341 L292 341 C343 341 384 321 396 290 L400 281 L412 281 L412 281 Z " />
<glyph glyph-name="emacron" unicode="&#x113;" horiz-adv-x="503" d="M124 606 L424 606 L424 650 L124 650 L124 606 L124 606 Z M453 210 L441 211 C438 111 388 44 318 44 C190 44 119 162 139 317 L454 317 C454 430 382 505 275 505 C141 505 51 396 51 232 C51 90 132 -5 253 -5 C369 -5 449 81 454 210 L453 210 L453 210 Z M340 344 L142 332 C158 425 206 483 271 483 C336 483 380 444 380 385 C380 362 364 345 341 344 L340 344 L340 344 Z " />
<glyph glyph-name="Ebreve" unicode="&#x114;" horiz-adv-x="570" d="M157 871 C177 800 225 755 280 753 C334 753 384 800 404 871 L390 875 C378 834 334 806 280 806 C225 807 182 834 170 875 L157 871 L157 871 Z M412 281 L412 416 L400 416 L396 408 C384 381 343 363 292 363 L182 363 L182 638 L323 638 C383 638 438 606 460 557 L467 542 L478 542 L478 660 L40 660 L40 645 L48 645 C75 645 93 619 93 580 L93 80 C93 41 75 15 48 15 L40 15 L40 0 L480 0 L482 11 C488 43 495 86 501 118 L490 118 L480 103 C450 54 389 22 329 22 L182 22 L182 341 L292 341 C343 341 384 321 396 290 L400 281 L412 281 L412 281 Z " />
<glyph glyph-name="ebreve" unicode="&#x115;" horiz-adv-x="503" d="M151 711 C171 640 221 593 274 593 C328 593 378 640 398 711 L384 715 C372 674 328 646 274 646 C220 646 176 674 164 715 L151 711 L151 711 Z M453 210 L441 211 C438 111 388 44 318 44 C190 44 119 162 139 317 L454 317 C454 430 382 505 275 505 C141 505 51 396 51 232 C51 90 132 -5 253 -5 C369 -5 449 81 454 210 L453 210 L453 210 Z M340 344 L142 332 C158 425 206 483 271 483 C336 483 380 444 380 385 C380 362 364 345 341 344 L340 344 L340 344 Z " />
<glyph glyph-name="Edot" unicode="&#x116;" horiz-adv-x="570" d="M280 730 C309 730 329 750 329 779 C329 808 309 828 280 828 C251 828 231 808 231 779 C231 750 251 730 280 730 L280 730 Z M412 281 L412 416 L400 416 L396 408 C384 381 343 363 292 363 L182 363 L182 638 L323 638 C383 638 438 606 460 557 L467 542 L478 542 L478 660 L40 660 L40 645 L48 645 C75 645 93 619 93 580 L93 80 C93 41 75 15 48 15 L40 15 L40 0 L480 0 L482 11 C488 43 495 86 501 118 L490 118 L480 103 C450 54 389 22 329 22 L182 22 L182 341 L292 341 C343 341 384 321 396 290 L400 281 L412 281 L412 281 Z " />
<glyph glyph-name="edot" unicode="&#x117;" horiz-adv-x="503" d="M274 570 C303 570 323 590 323 619 C323 648 303 668 274 668 C245 668 225 648 225 619 C225 590 245 570 274 570 L274 570 Z M453 210 L441 211 C438 111 388 44 318 44 C190 44 119 162 139 317 L454 317 C454 430 382 505 275 505 C141 505 51 396 51 232 C51 90 132 -5 253 -5 C369 -5 449 81 454 210 L453 210 L453 210 Z M340 344 L142 332 C158 425 206 483 271 483 C336 483 380 444 380 385 C380 362 364 345 341 344 L340 344 L340 344 Z " />
<glyph glyph-name="Eogonek" unicode="&#x118;" horiz-adv-x="570" d="M412 281 L412 416 L400 416 L396 408 C384 381 343 363 292 363 L182 363 L182 638 L323 638 C383 638 438 606 460 557 L467 542 L478 542 L478 660 L40 660 L40 645 L48 645 C75 645 93 619 93 580 L93 80 C93 41 75 15 48 15 L40 15 L40 0 L442 0 C390 -33 320 -99 321 -156 C321 -203 369 -235 440 -235 C474 -235 507 -222 523 -203 L518 -197 C510 -207 486 -213 458 -213 C405 -213 370 -187 370 -148 C368 -81 446 -13 478 -1 L481 -1 L483 10 C489 42 496 85 502 117 L491 117 L481 102 C451 53 390 21 330 21 L183 21 L183 340 L293 340 C344 340 385 320 397 289 L401 280 L412 281 L412 281 Z " />
<glyph glyph-name="eogonek" unicode="&#x119;" horiz-adv-x="503" d="M338 46 C331 45 324 44 317 44 C189 44 118 162 138 317 L453 317 C453 430 381 505 274 505 C140 505 50 396 50 232 C50 90 131 -5 252 -5 C268 -5 284 -3 299 0 C277 -31 261 -65 261 -97 C261 -179 309 -234 380 -234 C414 -234 447 -221 463 -202 L458 -196 C450 -206 426 -212 398 -212 C345 -212 310 -162 310 -88 C310 -50 326 -12 347 19 C410 53 450 122 453 212 L441 213 C440 169 429 131 412 103 C392 94 364 74 338 48 L338 46 L338 46 Z M339 346 L141 334 C157 427 205 485 270 485 C335 485 379 446 379 387 C379 364 363 347 340 346 L339 346 L339 346 Z " />
<glyph glyph-name="Ecaron" unicode="&#x11a;" horiz-adv-x="570" d="M392 928 C392 928 320 842 280 794 C256 823 217 871 169 928 L161 921 C164 918 256 738 256 738 C259 731 269 716 281 716 C294 716 303 732 307 739 C356 839 401 921 401 921 L392 928 L392 928 Z M413 281 L413 416 L401 416 L397 408 C385 381 344 363 293 363 L183 363 L183 638 L324 638 C384 638 439 606 461 557 L468 542 L479 542 L479 660 L41 660 L41 645 L49 645 C76 645 94 619 94 580 L94 80 C94 41 76 15 49 15 L41 15 L41 0 L481 0 L483 11 C489 43 496 86 502 118 L491 118 L481 103 C451 54 390 22 330 22 L183 22 L183 341 L293 341 C344 341 385 321 397 290 L401 281 L413 281 L413 281 Z " />
<glyph glyph-name="ecaron" unicode="&#x11b;" horiz-adv-x="503" d="M386 768 C386 768 314 682 274 634 C250 663 211 711 163 768 L155 761 C158 758 250 578 250 578 C253 571 263 556 275 556 C288 556 297 572 301 579 C350 679 395 761 395 761 L386 768 L386 768 Z M454 210 L442 211 C439 111 389 44 319 44 C191 44 120 162 140 317 L455 317 C455 430 383 505 276 505 C142 505 52 396 52 232 C52 90 133 -5 254 -5 C370 -5 450 81 455 210 L454 210 L454 210 Z M341 344 L143 332 C159 425 207 483 272 483 C337 483 381 444 381 385 C381 362 365 345 342 344 L341 344 L341 344 Z " />
<glyph glyph-name="Gcircumflex" unicode="&#x11c;" horiz-adv-x="782" d="M407 881 C403 888 394 904 381 904 C369 904 359 889 356 882 C356 882 264 702 261 699 L269 692 C317 749 356 797 380 826 C420 778 492 692 492 692 L500 699 C500 699 455 781 406 881 L407 881 L407 881 Z M633 449 L633 541 L622 539 L633 541 C620 615 519 665 380 665 C183 665 52 531 52 330 C52 129 183 -5 380 -5 C471 -5 573 19 635 55 L635 230 C635 269 653 295 680 295 L688 295 L688 310 L502 310 L502 295 L510 295 C537 295 555 269 555 230 L555 45 C502 28 439 17 381 17 C242 17 150 142 150 330 C150 518 242 643 381 643 C417 643 450 640 479 634 C531 619 582 562 608 487 C612 476 617 461 621 450 L633 449 L633 449 Z " />
<glyph glyph-name="Gbreve" unicode="&#x11e;" horiz-adv-x="782" d="M258 871 C278 800 328 753 381 753 C435 753 485 800 505 871 L491 875 C479 834 435 806 381 806 C327 806 283 834 271 875 L258 871 L258 871 Z M634 449 L634 541 L623 539 L634 541 C621 615 520 665 381 665 C184 665 53 531 53 330 C53 129 184 -5 381 -5 C472 -5 574 19 636 55 L636 230 C636 269 654 295 681 295 L689 295 L689 310 L503 310 L503 295 L511 295 C538 295 556 269 556 230 L556 45 C503 28 440 17 382 17 C243 17 151 142 151 330 C151 518 243 643 382 643 C418 643 451 640 480 634 C532 619 583 562 609 487 C613 476 618 461 622 450 L634 449 L634 449 Z " />
<glyph glyph-name="gbreve" unicode="&#x11f;" horiz-adv-x="472" d="M115 711 C135 640 185 593 238 593 C292 593 342 640 362 711 L348 715 C336 674 292 646 238 646 C184 646 140 674 128 715 L115 711 L115 711 Z M472 500 L337 482 C310 497 277 505 239 505 C133 505 63 442 63 348 C63 278 101 225 164 202 C93 196 48 157 48 100 C48 53 86 18 147 6 C71 -20 23 -70 23 -122 C23 -193 84 -242 175 -242 C342 -242 453 -162 453 -41 C453 32 381 80 274 80 C259 80 191 77 191 77 C137 77 101 99 101 131 C101 166 134 190 184 190 L239 190 C345 190 415 253 415 347 C415 389 401 425 376 452 L473 456 L472 500 L472 500 Z M239 209 C179 209 139 265 139 348 C139 431 179 487 239 487 C299 487 339 431 339 348 C339 265 299 209 239 209 L239 209 Z M169 3 C177 2 186 2 195 2 L252 5 C338 5 396 -29 396 -80 C396 -163 311 -218 184 -218 C119 -218 76 -176 76 -112 C76 -61 113 -15 169 3 L169 3 Z " />
<glyph glyph-name="Gdot" unicode="&#x120;" horiz-adv-x="782" d="M381 730 C410 730 430 750 430 779 C430 808 410 828 381 828 C352 828 332 808 332 779 C332 750 352 730 381 730 L381 730 Z M634 449 L634 541 L623 539 L634 541 C621 615 520 665 381 665 C184 665 53 531 53 330 C53 129 184 -5 381 -5 C472 -5 574 19 636 55 L636 230 C636 269 654 295 681 295 L689 295 L689 310 L503 310 L503 295 L511 295 C538 295 556 269 556 230 L556 45 C503 28 440 17 382 17 C243 17 151 142 151 330 C151 518 243 643 382 643 C418 643 451 640 480 634 C532 619 583 562 609 487 C613 476 618 461 622 450 L634 449 L634 449 Z " />
<glyph glyph-name="gdot" unicode="&#x121;" horiz-adv-x="472" d="M238 570 C267 570 287 590 287 619 C287 648 267 668 238 668 C209 668 189 648 189 619 C189 590 209 570 238 570 L238 570 Z M472 500 L337 482 C310 497 277 505 239 505 C133 505 63 442 63 348 C63 278 101 225 164 202 C93 196 48 157 48 100 C48 53 86 18 147 6 C71 -20 23 -70 23 -122 C23 -193 84 -242 175 -242 C342 -242 453 -162 453 -41 C453 32 381 80 274 80 C259 80 191 77 191 77 C137 77 101 99 101 131 C101 166 134 190 184 190 L239 190 C345 190 415 253 415 347 C415 389 401 425 376 452 L473 456 L472 500 L472 500 Z M239 209 C179 209 139 265 139 348 C139 431 179 487 239 487 C299 487 339 431 339 348 C339 265 299 209 239 209 L239 209 Z M169 3 C177 2 186 2 195 2 L252 5 C338 5 396 -29 396 -80 C396 -163 311 -218 184 -218 C119 -218 76 -176 76 -112 C76 -61 113 -15 169 3 L169 3 Z " />
<glyph glyph-name="Hcircumflex" unicode="&#x124;" horiz-adv-x="733" d="M392 881 C388 888 379 904 367 904 C354 904 344 889 341 882 C341 882 248 700 247 699 L255 692 C303 749 342 797 366 826 C406 778 478 692 478 692 L486 699 C486 699 441 781 392 881 L392 881 Z M693 15 L685 15 C658 15 640 41 640 80 L640 580 C640 619 658 645 685 645 L693 645 L693 660 L498 660 L498 645 L506 645 C533 645 551 619 551 580 L551 358 L182 358 L182 580 C182 619 200 645 227 645 L235 645 L235 660 L40 660 L40 645 L48 645 C75 645 93 619 93 580 L93 80 C93 41 75 15 48 15 L40 15 L40 0 L235 0 L235 15 L227 15 C200 15 182 41 182 80 L182 336 L551 336 L551 80 C551 41 533 15 506 15 L498 15 L498 0 L693 0 L693 15 L693 15 Z " />
<glyph glyph-name="Itilde" unicode="&#x128;" horiz-adv-x="275" d="M-3 755 C-3 792 14 821 40 817 C93 817 163 754 215 754 C261 754 292 800 292 868 L279 868 C279 831 260 807 232 807 C180 807 110 870 57 870 C10 859 -16 824 -16 755 L-3 755 L-3 755 Z M235 15 L227 15 C200 15 182 41 182 80 L182 580 C182 619 200 645 227 645 L235 645 L235 660 L40 660 L40 645 L48 645 C75 645 93 619 93 580 L93 80 C93 41 75 15 48 15 L40 15 L40 0 L235 0 L235 15 L235 15 Z " />
<glyph glyph-name="itilde" unicode="&#x129;" horiz-adv-x="276" d="M-3 595 C-3 632 14 657 40 657 C93 657 163 594 215 594 C261 594 292 640 292 708 L279 708 C279 671 260 647 232 647 C180 647 110 710 57 710 C13 710 -16 664 -16 595 L-3 595 L-3 595 Z M231 15 L223 15 C196 15 178 41 178 80 L178 500 L162 500 L45 464 L45 455 C88 439 98 427 98 369 L98 80 C98 41 80 15 53 15 L45 15 L45 0 L231 0 L231 15 L231 15 Z " />
<glyph glyph-name="Imacron" unicode="&#x12a;" horiz-adv-x="275" d="M-12 766 C-12 766 198 770 288 766 L288 810 C195 799 -12 810 -12 810 L-12 766 L-12 766 Z M235 15 L227 15 C200 15 182 41 182 80 L182 580 C182 619 200 645 227 645 L235 645 L235 660 L40 660 L40 645 L48 645 C75 645 93 619 93 580 L93 80 C93 41 75 15 48 15 L40 15 L40 0 L235 0 L235 15 L235 15 Z " />
<glyph glyph-name="imacron" unicode="&#x12b;" horiz-adv-x="276" d="M-12 606 L288 606 L288 650 L-12 650 L-12 606 L-12 606 Z M231 15 L223 15 C196 15 178 41 178 80 L178 500 L162 500 L45 464 L45 455 C88 439 98 427 98 369 L98 80 C98 41 80 15 53 15 L45 15 L45 0 L231 0 L231 15 L231 15 Z " />
<glyph glyph-name="Ibreve" unicode="&#x12c;" horiz-adv-x="275" d="M15 871 C35 800 85 757 138 753 C192 753 242 800 262 871 L248 875 C236 834 192 806 138 806 C81 795 40 834 28 875 L15 871 L15 871 Z M235 15 L227 15 C200 15 182 41 182 80 L182 580 C182 619 200 645 227 645 L235 645 L235 660 L40 660 L40 645 L48 645 C75 645 93 619 93 580 L93 80 C93 41 75 15 48 15 L40 15 L40 0 L235 0 L235 15 L235 15 Z " />
<glyph glyph-name="ibreve" unicode="&#x12d;" horiz-adv-x="276" d="M15 711 C35 640 85 593 138 593 C192 593 242 640 262 711 L248 715 C236 674 192 646 138 646 C84 646 40 674 28 715 L15 711 L15 711 Z M231 15 L223 15 C196 15 178 41 178 80 L178 500 L162 500 L45 464 L45 455 C88 439 98 427 98 369 L98 80 C98 41 80 15 53 15 L45 15 L45 0 L231 0 L231 15 L231 15 Z " />
<glyph glyph-name="Idot" unicode="&#x130;" horiz-adv-x="275" d="M138 730 C167 730 187 750 187 779 C187 808 167 828 138 828 C109 828 89 808 89 779 C89 750 109 730 138 730 L138 730 Z M235 15 L227 15 C200 15 182 41 182 80 L182 580 C182 619 200 645 227 645 L235 645 L235 660 L40 660 L40 645 L48 645 C75 645 93 619 93 580 L93 80 C93 41 75 15 48 15 L40 15 L40 0 L235 0 L235 15 L235 15 Z " />
<glyph glyph-name="dotlessi" unicode="&#x131;" horiz-adv-x="276" d="M231 15 L223 15 C196 15 178 41 178 80 L178 500 L162 500 L45 464 L45 455 C88 439 98 427 98 369 L98 80 C98 41 80 15 53 15 L45 15 L45 0 L231 0 L231 15 L231 15 Z " />
<glyph glyph-name="Jcircumflex" unicode="&#x134;" horiz-adv-x="370" d="M258 881 C254 888 245 904 233 904 C220 904 210 889 207 882 C207 882 114 700 113 699 L121 692 C169 749 208 797 232 826 C272 778 344 692 344 692 L352 699 C352 699 307 781 258 881 L258 881 Z M330 660 L135 660 L135 645 L143 645 C170 645 188 619 188 580 L188 200 C188 62 171 8 129 8 C103 8 81 25 75 50 C70 71 54 85 35 85 C9 85 -5 71 0 50 C9 14 52 -10 107 -10 C229 -10 277 70 277 275 L277 580 C277 619 295 645 322 645 L330 645 L330 660 L330 660 Z " />
<glyph glyph-name="Lacute" unicode="&#x139;" horiz-adv-x="570" d="M114 690 C114 690 196 777 227 817 C250 844 266 863 266 868 C266 878 234 902 220 902 C216 902 203 881 186 849 C155 809 105 697 105 697 L114 690 L114 690 Z M484 128 L475 112 C447 58 393 22 339 22 L182 22 L182 580 C182 619 200 645 227 645 L235 645 L235 660 L40 660 L40 645 L48 645 C75 645 93 619 93 580 L93 80 C93 41 75 15 48 15 L40 15 L40 0 L480 0 L482 11 C488 45 496 89 502 123 C495 125 484 128 484 128 L484 128 Z " />
<glyph glyph-name="Lcaron" unicode="&#x13d;" horiz-adv-x="570" d="M353 693 C336 693 321 631 313 586 L283 422 L293 419 L363 567 C387 616 403 667 403 675 C403 688 368 693 353 693 L353 693 Z M484 128 L475 112 C447 58 393 22 339 22 L182 22 L182 580 C182 619 200 645 227 645 L235 645 L235 660 L40 660 L40 645 L48 645 C75 645 93 619 93 580 L93 80 C93 41 75 15 48 15 L40 15 L40 0 L480 0 L482 11 C488 45 496 89 502 123 C495 125 484 128 484 128 L484 128 Z " />
<glyph glyph-name="lcaron" unicode="&#x13e;" horiz-adv-x="276" d="M296 723 C278 723 263 661 255 616 L225 452 L236 449 L306 597 C330 646 346 697 346 705 C346 718 311 723 296 723 L296 723 Z M231 15 L223 15 C196 15 178 41 178 80 L178 720 L162 720 L45 684 L45 675 C88 659 98 647 98 589 L98 80 C98 41 80 15 53 15 L45 15 L45 0 L231 0 L231 15 L231 15 Z " />
<glyph glyph-name="Lslash" unicode="&#x141;" horiz-adv-x="570" d="M40 0 L480 0 L482 11 C488 45 496 89 502 123 C495 125 484 128 484 128 L475 112 C447 58 393 22 339 22 L182 22 L182 315 L330 367 L330 393 L182 341 L182 580 C182 619 200 645 227 645 L235 645 L235 660 L40 660 L40 645 L48 645 C75 645 93 619 93 580 L93 310 L43 293 L43 267 L93 284 L93 80 C93 41 75 15 48 15 L40 15 L40 0 L40 0 Z " />
<glyph glyph-name="lslash" unicode="&#x142;" horiz-adv-x="276" d="M45 0 L231 0 L231 15 L223 15 C196 15 178 41 178 80 L178 361 L278 397 L278 423 L178 387 L178 720 L162 720 L45 684 L45 675 C88 659 98 647 98 589 L98 359 L-2 323 L-2 297 L98 333 L98 80 C98 41 80 15 53 15 L45 15 L45 0 L45 0 Z " />
<glyph glyph-name="Nacute" unicode="&#x143;" horiz-adv-x="665" d="M303 690 C303 690 385 777 416 817 C439 844 455 863 455 868 C455 878 423 902 409 902 C405 902 392 881 375 849 C344 809 294 697 294 697 L303 690 L303 690 Z M40 645 L48 645 C75 645 93 619 93 580 L93 80 C93 41 75 15 48 15 L40 15 L40 0 L173 0 L173 15 L165 15 C138 15 120 41 120 80 L120 581 C261 381 403 182 543 -19 L574 -19 L574 579 C574 618 592 644 619 644 L627 644 L627 659 L494 659 L494 644 L502 644 C529 644 547 618 547 579 L547 127 L172 659 L39 659 L40 645 L40 645 Z M119 622 L119 622 L119 622 Z " />
<glyph glyph-name="nacute" unicode="&#x144;" horiz-adv-x="584" d="M218 530 C218 530 300 617 331 657 C354 684 370 703 370 708 C370 718 338 742 324 742 C320 742 307 721 290 689 C259 649 209 537 209 537 L218 530 L218 530 Z M358 0 L544 0 L544 15 L536 15 C509 15 491 41 491 80 L491 337 C491 438 457 505 371 505 C275 505 204 463 178 395 L178 501 L162 501 L45 465 L45 456 C88 440 98 428 98 370 L98 81 C98 42 80 16 53 16 L45 16 L45 1 L231 1 L231 16 L223 16 C196 16 178 42 178 81 L178 362 C192 417 241 452 309 452 C382 452 411 403 411 330 L411 81 C411 42 393 16 366 16 L358 16 L358 0 L358 0 Z " />
<glyph glyph-name="Ncaron" unicode="&#x147;" horiz-adv-x="665" d="M446 928 C446 928 374 842 334 794 C310 823 271 871 223 928 L215 921 C218 918 310 738 310 738 C313 731 323 716 335 716 C348 716 357 732 361 739 C410 839 455 921 455 921 L446 928 L446 928 Z M41 645 L49 645 C76 645 94 619 94 580 L94 80 C94 41 76 15 49 15 L41 15 L41 0 L174 0 L174 15 L166 15 C139 15 121 41 121 80 L121 581 C262 381 404 182 544 -19 L575 -19 L575 579 C575 618 593 644 620 644 L628 644 L628 659 L495 659 L495 644 L503 644 C530 644 548 618 548 579 L548 127 L173 659 L40 659 L41 645 L41 645 Z M120 622 L120 622 L120 622 Z " />
<glyph glyph-name="ncaron" unicode="&#x148;" horiz-adv-x="584" d="M406 768 C406 768 334 682 294 634 C270 663 231 711 183 768 L175 761 C176 760 269 578 269 578 C272 571 282 556 295 556 C307 556 316 572 320 579 C369 679 414 761 414 761 L406 768 L406 768 Z M358 0 L544 0 L544 15 L536 15 C509 15 491 41 491 80 L491 337 C491 438 457 505 371 505 C275 505 204 463 178 395 L178 501 L162 501 L45 465 L45 456 C88 440 98 428 98 370 L98 81 C98 42 80 16 53 16 L45 16 L45 1 L231 1 L231 16 L223 16 C196 16 178 42 178 81 L178 362 C192 417 241 452 309 452 C382 452 411 403 411 330 L411 81 C411 42 393 16 366 16 L358 16 L358 0 L358 0 Z " />
<glyph glyph-name="Omacron" unicode="&#x14c;" horiz-adv-x="759" d="M231 766 L531 766 L531 810 L231 810 L231 766 L231 766 Z M150 330 C150 499 229 643 381 643 C533 643 612 499 612 330 C612 161 533 17 381 17 C229 17 150 161 150 330 L150 330 Z M53 330 C53 149 165 -5 381 -5 C597 -5 709 149 709 330 C709 511 597 665 381 665 C165 665 53 511 53 330 L53 330 Z " />
<glyph glyph-name="omacron" unicode="&#x14d;" horiz-adv-x="597" d="M149 606 L449 606 L449 650 L149 650 L149 606 L149 606 Z M139 250 C139 392 203 487 299 487 C394 487 458 392 458 250 C458 108 394 13 299 13 C203 13 139 108 139 250 L139 250 Z M50 250 C50 97 150 -5 299 -5 C448 -5 547 97 547 250 C547 403 448 505 299 505 C150 505 50 403 50 250 L50 250 Z " />
<glyph glyph-name="Obreve" unicode="&#x14e;" horiz-adv-x="759" d="M258 871 C278 800 328 753 381 753 C435 753 485 800 505 871 L491 875 C479 834 435 806 381 806 C327 806 283 834 271 875 L258 871 L258 871 Z M150 330 C150 499 229 643 381 643 C533 643 612 499 612 330 C612 161 533 17 381 17 C229 17 150 161 150 330 L150 330 Z M53 330 C53 149 165 -5 381 -5 C597 -5 709 149 709 330 C709 511 597 665 381 665 C165 665 53 511 53 330 L53 330 Z " />
<glyph glyph-name="obreve" unicode="&#x14f;" horiz-adv-x="597" d="M175 711 C195 640 245 593 299 593 C352 593 402 640 422 711 L408 715 C396 674 353 646 299 646 C245 646 201 674 189 715 L175 711 L175 711 Z M139 250 C139 392 203 487 299 487 C394 487 458 392 458 250 C458 108 394 13 299 13 C203 13 139 108 139 250 L139 250 Z M50 250 C50 97 150 -5 299 -5 C448 -5 547 97 547 250 C547 403 448 505 299 505 C150 505 50 403 50 250 L50 250 Z " />
<glyph glyph-name="Racute" unicode="&#x154;" horiz-adv-x="635" d="M236 690 C236 690 318 777 349 817 C372 844 388 863 388 868 C388 878 356 902 342 902 C338 902 325 881 308 849 C277 809 227 697 227 697 L236 690 L236 690 Z M43 645 L51 645 C78 645 96 619 96 580 L96 80 C96 41 78 15 51 15 L43 15 L43 0 L238 0 L238 15 L230 15 C203 15 185 41 185 80 L185 314 L265 314 C292 279 349 205 423 106 C500 4 507 0 603 0 L635 0 L635 17 C598 17 598 17 544 89 C457 205 392 290 367 323 C467 344 530 406 530 491 C530 593 443 661 312 661 L44 661 L43 645 L43 645 Z M186 337 L186 639 L312 639 C387 639 437 580 437 491 C437 399 377 338 286 338 L186 337 L186 337 Z " />
<glyph glyph-name="Rcaron" unicode="&#x158;" horiz-adv-x="635" d="M424 928 C424 928 352 842 312 794 C288 823 249 871 201 928 L193 921 C194 920 287 738 287 738 C290 731 300 716 313 716 C325 716 334 732 338 739 C387 839 432 921 432 921 L424 928 L424 928 Z M43 645 L51 645 C78 645 96 619 96 580 L96 80 C96 41 78 15 51 15 L43 15 L43 0 L238 0 L238 15 L230 15 C203 15 185 41 185 80 L185 314 L265 314 C292 279 349 205 423 106 C500 4 507 0 603 0 L635 0 L635 17 C598 17 598 17 544 89 C457 205 392 290 367 323 C467 344 530 406 530 491 C530 593 443 661 312 661 L44 661 L43 645 L43 645 Z M186 337 L186 639 L312 639 C387 639 437 580 437 491 C437 399 377 338 286 338 L186 337 L186 337 Z " />
<glyph glyph-name="rcaron" unicode="&#x159;" horiz-adv-x="404" d="M318 768 C318 768 246 682 206 634 C182 663 143 711 95 768 L87 761 C90 758 182 578 182 578 C185 571 195 556 207 556 C220 556 229 572 233 579 C282 679 327 761 327 761 L318 768 L318 768 Z M46 455 C89 439 99 427 99 369 L99 80 C99 41 81 15 54 15 L46 15 L46 0 L232 0 L232 15 L224 15 C197 15 179 41 179 80 L179 376 C192 420 218 446 252 446 C284 446 326 414 357 414 C380 414 396 429 396 452 C396 484 374 505 316 505 C249 505 199 461 180 389 L180 500 L164 500 L47 464 L46 455 L46 455 Z " />
<glyph glyph-name="Sacute" unicode="&#x15a;" horiz-adv-x="505" d="M197 690 C197 690 279 777 310 817 C333 844 349 863 349 868 C349 878 317 902 303 902 C299 902 286 881 269 849 C238 809 188 697 188 697 L197 690 L197 690 Z M425 458 L425 551 C413 619 342 665 248 665 C127 665 46 587 46 471 C46 397 114 327 215 295 C324 261 397 200 397 142 C397 67 341 17 256 17 C235 17 215 19 197 22 C144 34 90 90 62 167 C58 178 53 191 49 202 L36 202 L36 109 C48 41 136 -5 255 -5 C377 -5 459 68 459 178 C459 257 389 332 283 365 C177 398 106 455 106 507 C106 589 161 643 243 643 C267 643 290 639 310 632 C338 621 366 586 381 543 C390 517 402 483 411 457 L425 458 L425 458 Z " />
<glyph glyph-name="sacute" unicode="&#x15b;" horiz-adv-x="419" d="M141 530 C141 530 223 617 254 657 C277 684 293 703 293 708 C293 718 261 742 247 742 C243 742 230 721 213 689 C182 649 132 537 132 537 L141 530 L141 530 Z M349 350 L349 408 C339 466 286 505 218 505 C120 505 55 451 55 371 C55 319 112 259 197 222 C260 194 302 151 302 114 C302 53 264 13 206 13 C203 13 177 14 177 15 C135 20 91 65 65 126 C62 134 57 144 54 152 L43 152 L43 87 C53 32 116 -5 201 -5 C302 -5 369 55 369 144 C369 194 323 248 253 278 C171 314 116 362 116 398 C116 451 157 487 218 487 C236 487 253 483 267 476 C293 461 322 403 337 350 L349 350 L349 350 Z " />
<glyph glyph-name="Scircumflex" unicode="&#x15c;" horiz-adv-x="505" d="M270 881 C266 888 257 904 244 904 C232 904 222 889 219 882 C219 882 127 702 124 699 L132 692 C180 749 219 797 243 826 C283 778 355 692 355 692 L363 699 C363 699 318 781 269 881 L270 881 L270 881 Z M424 458 L424 551 C412 619 341 665 247 665 C126 665 45 587 45 471 C45 397 113 327 214 295 C323 261 396 200 396 142 C396 67 340 17 255 17 C234 17 214 19 196 22 C143 34 89 90 61 167 C57 178 52 191 48 202 L35 202 L35 109 C47 41 135 -5 254 -5 C376 -5 458 68 458 178 C458 257 388 332 282 365 C176 398 105 455 105 507 C105 589 160 643 242 643 C266 643 289 639 309 632 C337 621 365 586 380 543 C389 517 401 483 410 457 L424 458 L424 458 Z " />
<glyph glyph-name="Scedilla" unicode="&#x15e;" horiz-adv-x="505" d="M425 458 L425 551 C413 619 342 665 248 665 C127 665 46 587 46 471 C46 397 114 327 215 295 C324 261 397 200 397 142 C397 67 341 17 256 17 C235 17 215 19 197 22 C144 34 90 90 62 167 C58 178 53 191 49 202 L36 202 L36 109 C48 43 132 -2 247 -4 L209 -90 L215 -93 C233 -84 256 -78 272 -78 C306 -78 328 -100 328 -133 C328 -171 299 -196 256 -196 C221 -196 192 -191 182 -184 L178 -193 C199 -209 236 -219 272 -219 C335 -219 377 -185 377 -133 C377 -90 343 -62 291 -62 C267 -62 240 -68 222 -77 C245 -29 262 -10 270 -3 C384 3 459 74 459 179 C459 258 389 333 283 366 C177 399 106 456 106 508 C106 590 161 644 243 644 C267 644 290 640 310 633 C338 622 366 587 381 544 C390 518 402 484 411 458 L425 458 L425 458 Z " />
<glyph glyph-name="scedilla" unicode="&#x15f;" horiz-adv-x="419" d="M349 350 L349 408 C339 466 286 505 218 505 C120 505 55 451 55 371 C55 319 112 259 197 222 C260 194 302 151 302 114 C302 53 264 13 206 13 C203 13 177 14 177 15 C135 20 91 65 65 126 C62 134 57 144 54 152 L43 152 L43 87 C53 34 112 -2 193 -4 L155 -90 L161 -93 C179 -84 202 -78 218 -78 C252 -78 274 -100 274 -133 C274 -171 245 -196 202 -196 C167 -196 138 -191 128 -184 L124 -193 C145 -209 182 -219 218 -219 C281 -219 323 -185 323 -133 C323 -90 289 -62 237 -62 C213 -62 186 -68 168 -77 C191 -29 208 -10 216 -3 C309 3 369 61 369 146 C369 196 323 250 253 280 C171 316 116 364 116 400 C116 453 157 489 218 489 C236 489 253 485 267 478 C293 463 322 405 337 352 L349 350 L349 350 Z " />
<glyph glyph-name="Scaron" unicode="&#x160;" horiz-adv-x="505" d="M356 928 C356 928 284 842 244 794 C220 823 181 871 133 928 L125 921 C128 918 220 738 220 738 C223 731 233 716 245 716 C258 716 267 732 271 739 C320 839 365 921 365 921 L356 928 L356 928 Z M426 458 L426 551 C414 619 343 665 249 665 C128 665 47 587 47 471 C47 397 115 327 216 295 C325 261 398 200 398 142 C398 67 342 17 257 17 C236 17 216 19 198 22 C145 34 91 90 63 167 C59 178 54 191 50 202 L37 202 L37 109 C49 41 137 -5 256 -5 C378 -5 460 68 460 178 C460 257 390 332 284 365 C178 398 107 455 107 507 C107 589 162 643 244 643 C268 643 291 639 311 632 C339 621 367 586 382 543 C391 517 403 483 412 457 L426 458 L426 458 Z " />
<glyph glyph-name="scaron" unicode="&#x161;" horiz-adv-x="419" d="M330 768 C330 768 258 682 218 634 C194 663 155 711 107 768 L99 761 C102 758 194 578 194 578 C197 571 207 556 219 556 C232 556 241 572 245 579 C294 679 339 761 339 761 L330 768 L330 768 Z M350 350 L350 408 C340 466 287 505 219 505 C121 505 56 451 56 371 C56 319 113 259 198 222 C261 194 303 151 303 114 C303 53 265 13 207 13 C204 13 178 14 178 15 C136 20 92 65 66 126 C63 134 58 144 55 152 L44 152 L44 87 C54 32 117 -5 202 -5 C303 -5 370 55 370 144 C370 194 324 248 254 278 C172 314 117 362 117 398 C117 451 158 487 219 487 C237 487 254 483 268 476 C294 461 323 403 338 350 L350 350 L350 350 Z " />
<glyph glyph-name="Tcaron" unicode="&#x164;" horiz-adv-x="620" d="M422 928 C422 928 350 842 310 794 C286 823 247 871 199 928 L191 921 C194 918 286 738 286 738 C289 731 299 716 311 716 C324 716 333 732 337 739 C386 839 431 921 431 921 L422 928 L422 928 Z M214 0 L408 0 L408 15 L400 15 C373 15 355 41 355 80 L355 638 L464 638 C512 638 561 606 587 558 L601 532 L613 532 C610 567 606 614 603 649 L602 660 L20 660 L19 649 C16 614 12 567 9 532 L21 532 L35 558 C61 606 110 638 158 638 L267 638 L267 80 C267 41 249 15 222 15 L214 15 L214 0 L214 0 Z " />
<glyph glyph-name="tcaron" unicode="&#x165;" horiz-adv-x="352" d="M320 500 L177 500 L177 640 L164 640 L148 599 C117 532 69 485 25 479 L25 470 L97 470 L97 114 C97 22 118 -4 192 -4 C312 -4 340 75 332 193 L323 192 C330 96 311 32 231 32 C189 32 177 47 177 99 L177 470 L320 470 L320 500 L320 500 Z M438 724 C420 724 405 662 397 617 L367 453 L378 450 L448 598 C472 647 488 698 488 706 C488 719 453 724 438 724 L438 724 Z M155 615 L156 619 C156 618 156 617 156 616 L155 615 L155 615 Z " />
<glyph glyph-name="Utilde" unicode="&#x168;" horiz-adv-x="635" d="M180 755 C180 792 197 817 222 817 C275 817 346 754 399 754 C445 754 475 800 475 868 L461 868 C461 831 443 807 416 807 C363 807 292 870 239 870 C196 870 167 824 167 755 L180 755 L180 755 Z M615 660 L464 660 L464 645 L474 645 C506 645 528 615 528 570 L528 192 C528 92 475 26 338 26 C221 26 175 94 175 196 L175 580 C175 619 193 645 220 645 L228 645 L228 660 L33 660 L33 645 L41 645 C68 645 86 619 86 580 L86 213 C86 82 153 -5 325 -5 C491 -5 555 70 555 183 L555 570 C555 615 575 645 606 645 L615 645 L615 660 L615 660 Z " />
<glyph glyph-name="utilde" unicode="&#x169;" horiz-adv-x="549" d="M124 595 C124 632 141 657 166 657 C219 657 290 594 343 594 C389 594 419 640 419 708 L405 708 C405 671 387 647 360 647 C307 647 236 710 183 710 C140 710 111 664 111 595 L124 595 L124 595 Z M15 485 L23 485 C50 485 68 459 68 420 L68 155 C68 59 116 -5 210 -5 C307 -5 360 31 381 90 L381 0 L397 0 L514 36 L514 45 C471 61 461 73 461 131 L461 500 L328 500 L328 485 L336 485 C363 485 381 459 381 420 L381 133 C373 81 340 48 272 48 C190 48 147 94 147 163 L148 500 L15 500 L15 485 L15 485 Z " />
<glyph glyph-name="Umacron" unicode="&#x16a;" horiz-adv-x="635" d="M171 766 L471 766 L471 810 L171 810 L171 766 L171 766 Z M615 660 L464 660 L464 645 L474 645 C506 645 528 615 528 570 L528 192 C528 92 475 26 338 26 C221 26 175 94 175 196 L175 580 C175 619 193 645 220 645 L228 645 L228 660 L33 660 L33 645 L41 645 C68 645 86 619 86 580 L86 213 C86 82 153 -5 325 -5 C491 -5 555 70 555 183 L555 570 C555 615 575 645 606 645 L615 645 L615 660 L615 660 Z " />
<glyph glyph-name="umacron" unicode="&#x16b;" horiz-adv-x="549" d="M115 606 L415 606 L415 650 L115 650 L115 606 L115 606 Z M15 485 L23 485 C50 485 68 459 68 420 L68 155 C68 59 116 -5 210 -5 C307 -5 360 31 381 90 L381 0 L397 0 L514 36 L514 45 C471 61 461 73 461 131 L461 500 L328 500 L328 485 L336 485 C363 485 381 459 381 420 L381 133 C373 81 340 48 272 48 C190 48 147 94 147 163 L148 500 L15 500 L15 485 L15 485 Z " />
<glyph glyph-name="Ubreve" unicode="&#x16c;" horiz-adv-x="635" d="M197 871 C217 800 267 753 321 753 C374 753 424 800 444 871 L430 875 C418 834 375 806 321 806 C267 806 223 834 211 875 L197 871 L197 871 Z M615 660 L464 660 L464 645 L474 645 C506 645 528 615 528 570 L528 192 C528 92 475 26 338 26 C221 26 175 94 175 196 L175 580 C175 619 193 645 220 645 L228 645 L228 660 L33 660 L33 645 L41 645 C68 645 86 619 86 580 L86 213 C86 82 153 -5 325 -5 C491 -5 555 70 555 183 L555 570 C555 615 575 645 606 645 L615 645 L615 660 L615 660 Z " />
<glyph glyph-name="ubreve" unicode="&#x16d;" horiz-adv-x="549" d="M141 711 C161 640 211 593 265 593 C318 593 368 640 388 711 L374 715 C362 674 319 646 265 646 C211 646 167 674 155 715 L141 711 L141 711 Z M15 485 L23 485 C50 485 68 459 68 420 L68 155 C68 59 116 -5 210 -5 C307 -5 360 31 381 90 L381 0 L397 0 L514 36 L514 45 C471 61 461 73 461 131 L461 500 L328 500 L328 485 L336 485 C363 485 381 459 381 420 L381 133 C373 81 340 48 272 48 C190 48 147 94 147 163 L148 500 L15 500 L15 485 L15 485 Z " />
<glyph glyph-name="Uring" unicode="&#x16e;" horiz-adv-x="635" d="M248 788 C248 832 277 862 321 862 C364 862 393 832 393 788 C393 748 360 713 321 713 C282 713 248 748 248 788 L248 788 Z M226 788 C226 738 270 695 321 695 C372 695 415 738 415 788 C415 843 377 880 321 880 C264 880 226 843 226 788 L226 788 Z M615 660 L464 660 L464 645 L474 645 C506 645 528 615 528 570 L528 192 C528 92 475 26 338 26 C221 26 175 94 175 196 L175 580 C175 619 193 645 220 645 L228 645 L228 660 L33 660 L33 645 L41 645 C68 645 86 619 86 580 L86 213 C86 82 153 -5 325 -5 C491 -5 555 70 555 183 L555 570 C555 615 575 645 606 645 L615 645 L615 660 L615 660 Z " />
<glyph glyph-name="uring" unicode="&#x16f;" horiz-adv-x="549" d="M192 628 C192 672 221 702 265 702 C308 702 337 672 337 628 C337 588 304 553 265 553 C226 553 192 588 192 628 L192 628 Z M170 628 C170 578 214 535 265 535 C316 535 359 578 359 628 C359 683 321 720 265 720 C208 720 170 683 170 628 L170 628 Z M15 485 L23 485 C50 485 68 459 68 420 L68 155 C68 59 116 -5 210 -5 C307 -5 360 31 381 90 L381 0 L397 0 L514 36 L514 45 C471 61 461 73 461 131 L461 500 L328 500 L328 485 L336 485 C363 485 381 459 381 420 L381 133 C373 81 340 48 272 48 C190 48 147 94 147 163 L148 500 L15 500 L15 485 L15 485 Z " />
<glyph glyph-name="Wcircumflex" unicode="&#x174;" horiz-adv-x="931" d="M926 660 L776 660 L776 645 L786 645 C820 645 836 622 828 586 L693 122 L501 670 L478 670 L314 114 C264 269 213 424 163 579 C150 618 162 644 192 644 L201 644 L201 659 L2 659 L2 644 C31 644 52 622 67 579 L276 -16 L298 -16 L458 524 L653 -16 L675 -16 L854 585 C868 626 891 645 925 645 L926 660 L926 660 Z M515 881 C511 888 502 904 490 904 C477 904 467 889 464 882 C464 882 371 700 370 699 L378 692 C426 749 465 797 489 826 C529 778 601 692 601 692 L609 699 C609 699 564 781 515 881 L515 881 Z " />
<glyph glyph-name="Ycircumflex" unicode="&#x176;" horiz-adv-x="606" d="M332 881 C328 888 319 904 306 904 C294 904 284 889 281 882 C281 882 189 702 186 699 L194 692 C242 749 281 797 305 826 C345 778 417 692 417 692 L425 699 C425 699 380 781 331 881 L332 881 L332 881 Z M215 660 L13 660 L13 645 C39 645 61 626 84 588 L259 275 L259 81 C259 42 241 16 214 16 L206 16 L206 1 L401 1 L401 16 L393 16 C366 16 348 42 348 81 L348 309 C348 309 501 558 515 581 C541 624 570 646 601 646 L601 661 L459 661 L459 646 L469 646 C503 646 508 616 483 570 L335 324 L194 580 C173 619 177 645 205 645 L214 645 L215 660 L215 660 Z " />
<glyph glyph-name="Ydieresis" unicode="&#x178;" horiz-adv-x="606" d="M400 730 C429 730 449 750 449 779 C449 808 429 828 400 828 C371 828 351 808 351 779 C351 750 371 730 400 730 L400 730 Z M212 730 C241 730 261 750 261 779 C261 808 241 828 212 828 C183 828 163 808 163 779 C163 750 183 730 212 730 L212 730 Z M216 660 L14 660 L14 645 C40 645 62 626 85 588 L260 275 L260 81 C260 42 242 16 215 16 L207 16 L207 1 L402 1 L402 16 L394 16 C367 16 349 42 349 81 L349 309 C349 309 502 558 516 581 C542 624 571 646 602 646 L602 661 L460 661 L460 646 L470 646 C504 646 509 616 484 570 L336 324 L195 580 C174 619 178 645 206 645 L215 645 L216 660 L216 660 Z " />
<glyph glyph-name="Zacute" unicode="&#x179;" horiz-adv-x="585" d="M325 690 C325 690 407 777 438 817 C461 844 477 863 477 868 C477 878 445 902 431 902 C427 902 414 881 397 849 C366 809 316 697 316 697 L325 690 L325 690 Z M511 129 L502 113 C474 59 420 23 366 23 L156 23 L529 660 L102 660 L99 649 C91 620 81 582 73 553 L85 553 L96 566 C131 609 188 638 236 638 L415 638 L43 0 L507 0 L509 11 L509 11 C515 45 523 90 529 124 C522 126 511 129 511 129 L511 129 Z " />
<glyph glyph-name="zacute" unicode="&#x17a;" horiz-adv-x="483" d="M185 530 C185 530 267 617 298 657 C321 684 337 703 337 708 C337 718 305 742 291 742 C287 742 274 721 257 689 C226 649 176 537 176 537 L185 530 L185 530 Z M417 124 L408 108 C380 54 326 18 272 18 L152 18 L433 500 L70 500 C64 474 55 442 48 417 L60 417 L69 427 C99 456 147 478 191 482 L331 482 L48 0 L415 0 L416 9 L436 119 C429 121 418 124 418 124 L417 124 L417 124 Z " />
<glyph glyph-name="Zdot" unicode="&#x17b;" horiz-adv-x="585" d="M326 730 C355 730 375 750 375 779 C375 808 355 828 326 828 C297 828 277 808 277 779 C277 750 297 730 326 730 L326 730 Z M511 129 L502 113 C474 59 420 23 366 23 L156 23 L529 660 L102 660 L99 649 C91 620 81 582 73 553 L85 553 L96 566 C131 609 188 638 236 638 L415 638 L43 0 L507 0 L509 11 L509 11 C515 45 523 90 529 124 C522 126 511 129 511 129 L511 129 Z " />
<glyph glyph-name="zdot" unicode="&#x17c;" horiz-adv-x="483" d="M262 570 C291 570 311 590 311 619 C311 648 291 668 262 668 C233 668 213 648 213 619 C213 590 233 570 262 570 L262 570 Z M417 124 L408 108 C380 54 326 18 272 18 L152 18 L433 500 L70 500 C64 474 55 442 48 417 L60 417 L69 427 C99 456 147 478 191 482 L331 482 L48 0 L415 0 L416 9 L436 119 C429 121 418 124 418 124 L417 124 L417 124 Z " />
<glyph glyph-name="Zcaron" unicode="&#x17d;" horiz-adv-x="585" d="M438 928 C438 928 366 842 326 794 C302 823 263 871 215 928 L207 921 C210 918 302 738 302 738 C305 731 315 716 327 716 C340 716 349 732 353 739 C402 839 447 921 447 921 L438 928 L438 928 Z M512 129 L503 113 C475 59 421 23 367 23 L157 23 L530 660 L103 660 L100 649 C92 620 82 582 74 553 L86 553 L97 566 C132 609 189 638 237 638 L416 638 L44 0 L508 0 L510 11 L510 11 C516 45 524 90 530 124 C523 126 512 129 512 129 L512 129 Z " />
<glyph glyph-name="zcaron" unicode="&#x17e;" horiz-adv-x="483" d="M374 768 C374 768 302 682 262 634 C238 663 199 711 151 768 L143 761 C146 758 238 578 238 578 C241 571 251 556 263 556 C276 556 285 572 289 579 C338 679 383 761 383 761 L374 768 L374 768 Z M418 124 L409 108 C381 54 327 18 273 18 L153 18 L434 500 L71 500 C65 474 56 442 49 417 L61 417 L70 427 C100 456 148 478 192 482 L332 482 L49 0 L416 0 L417 9 L437 119 C430 121 419 124 419 124 L418 124 L418 124 Z " />
<glyph glyph-name="oogonek" unicode="&#x1eb;" horiz-adv-x="699" d="M714 -52 L707 -45 C689 -66 635 -80 571 -80 C479 -80 410 -50 360 -5 C551 -2 649 127 649 277 C649 429 548 558 352 558 C156 558 55 429 55 277 C55 131 149 5 331 -4 C410 -81 490 -132 563 -132 C613 -132 674 -100 714 -52 L714 -52 Z M143 277 C143 418 214 538 352 538 C490 538 561 418 561 277 C561 136 490 15 352 15 C214 15 143 136 143 277 L143 277 Z " />
<glyph glyph-name="Adotabove" unicode="&#x226;" horiz-adv-x="633" d="M300 730 C329 730 349 750 349 779 C349 808 329 828 300 828 C271 828 251 808 251 779 C251 750 271 730 300 730 L300 730 Z M414 0 L625 0 L625 15 C596 15 574 31 556 67 L311 675 L289 675 L75 67 C58 31 35 15 3 15 L3 0 L158 0 L158 15 L147 15 C113 15 98 42 109 84 L160 234 L395 234 L455 80 C470 41 458 15 424 15 L414 15 L414 0 L414 0 Z M387 257 L168 257 L271 557 L387 257 L387 257 Z " />
<glyph glyph-name="G_sc" unicode="&#x262;" horiz-adv-x="724" d="M575 343 L575 434 C562 508 471 558 349 558 C173 558 55 446 55 277 C55 108 173 -5 349 -5 C423 -5 515 19 578 56 L578 180 C578 219 596 245 623 245 L631 245 L631 260 L453 260 L453 245 L461 245 C488 245 506 219 506 180 L506 45 C455 26 398 15 349 15 C225 15 143 120 143 277 C143 434 225 538 349 538 C355 538 404 535 404 534 C463 526 520 465 548 383 C552 371 558 355 562 343 L575 343 L575 343 Z " />
<glyph glyph-name="I_sc" unicode="&#x26a;" horiz-adv-x="271" d="M231 15 L223 15 C196 15 178 41 178 80 L178 473 C178 512 196 538 223 538 L231 538 L231 553 L45 553 L45 538 L53 538 C80 538 98 512 98 473 L98 80 C98 41 80 15 53 15 L45 15 L45 0 L231 0 L231 15 L231 15 Z " />
<glyph glyph-name="N_sc" unicode="&#x274;" horiz-adv-x="602" d="M41 538 L49 538 C76 538 94 512 94 473 L94 80 C94 41 76 15 49 15 L41 15 L41 0 L171 0 L171 15 L163 15 C136 15 118 41 118 80 L118 483 C241 317 364 152 486 -15 L512 -15 L512 474 C512 513 530 539 557 539 L565 539 L565 554 L435 554 L435 539 L443 539 C470 539 488 513 488 474 L488 116 L166 554 L41 554 L41 538 L41 538 Z M118 521 L118 521 L118 521 Z " />
<glyph glyph-name="R_sc" unicode="&#x280;" horiz-adv-x="576" d="M45 538 L53 538 C80 538 98 512 98 473 L98 80 C98 41 80 15 53 15 L45 15 L45 0 L231 0 L231 15 L223 15 C196 15 178 41 178 80 L178 263 L228 263 C252 235 301 179 365 106 C454 4 461 0 546 0 L575 0 L575 16 C539 16 539 16 474 91 C397 178 340 243 317 269 C405 287 460 340 460 411 C460 496 380 552 260 552 L43 552 L45 538 L45 538 Z M176 282 L176 532 L260 532 C330 532 376 484 376 411 C376 334 323 282 243 282 L176 282 L176 282 Z " />
<glyph glyph-name="Y_sc" unicode="&#x28f;" horiz-adv-x="537" d="M208 553 L18 553 L18 538 C45 538 70 516 94 473 L233 232 L233 80 C233 41 215 15 188 15 L180 15 L180 0 L366 0 L366 15 L358 15 C331 15 313 41 313 80 L313 261 C358 332 402 403 447 473 C475 516 503 538 534 538 L534 553 L395 553 L395 538 L405 538 C464 538 411 453 411 453 L297 269 L183 480 C166 515 172 538 198 538 L207 538 L208 553 L208 553 Z " />
<glyph glyph-name="B_sc" unicode="&#x299;" horiz-adv-x="532" d="M45 538 L53 538 C80 538 98 512 98 473 L98 80 C98 41 80 15 53 15 L45 15 L45 0 L283 0 C420 0 512 61 512 153 C512 229 440 284 327 298 C408 316 458 362 458 424 C458 501 380 553 262 553 L45 553 L45 538 L45 538 Z M178 302 L178 533 L262 533 C332 533 378 489 378 424 C378 351 325 302 245 302 L178 302 L178 302 Z M178 286 L241 286 C353 286 428 233 428 153 C428 73 366 20 274 20 L178 20 L178 286 L178 286 Z " />
<glyph glyph-name="H_sc" unicode="&#x29c;" horiz-adv-x="673" d="M633 15 L625 15 C598 15 580 41 580 80 L580 473 C580 512 598 538 625 538 L633 538 L633 553 L447 553 L447 538 L455 538 C482 538 500 512 500 473 L500 303 L175 303 L175 473 C175 512 193 538 220 538 L228 538 L228 553 L42 553 L42 538 L50 538 C77 538 95 512 95 473 L95 80 C95 41 77 15 50 15 L42 15 L42 0 L228 0 L228 15 L220 15 C193 15 175 41 175 80 L175 283 L500 283 L500 80 C500 41 482 15 455 15 L447 15 L447 0 L633 0 L633 15 L633 15 Z " />
<glyph glyph-name="L_sc" unicode="&#x29f;" horiz-adv-x="518" d="M449 121 C442 123 431 126 431 126 L422 110 C394 56 340 20 286 20 L175 20 L175 473 C175 512 193 538 220 538 L228 538 L228 553 L42 553 L42 538 L50 538 C77 538 95 512 95 473 L95 80 C95 41 77 15 50 15 L42 15 L42 0 L427 0 C434 36 442 84 449 121 L449 121 Z " />
<glyph glyph-name="circumflex" unicode="&#x2c6;" horiz-adv-x="340" d="M196 721 C192 728 183 744 170 744 C158 744 148 729 145 722 C145 722 53 542 50 539 L58 532 C106 589 145 637 169 666 C209 618 281 532 281 532 L289 539 C289 539 244 621 195 721 L196 721 L196 721 Z " />
<glyph glyph-name="caron" unicode="&#x2c7;" horiz-adv-x="340" d="M282 768 C282 768 210 682 170 634 C146 663 107 711 59 768 L51 761 C54 758 146 578 146 578 C149 571 159 556 171 556 C184 556 193 572 197 579 C246 679 291 761 291 761 L282 768 L282 768 Z " />
<glyph glyph-name="firsttonechinese" unicode="&#x2c9;" horiz-adv-x="340" d="M20 606 L320 606 L320 650 L20 650 L20 606 L20 606 Z " />
<glyph glyph-name="breve" unicode="&#x2d8;" horiz-adv-x="340" d="M47 711 C67 640 117 593 170 593 C224 593 274 640 294 711 L280 715 C268 674 224 646 170 646 C116 646 72 674 60 715 L47 711 L47 711 Z " />
<glyph glyph-name="dotaccent" unicode="&#x2d9;" horiz-adv-x="340" d="M170 570 C199 570 219 590 219 619 C219 648 199 668 170 668 C141 668 121 648 121 619 C121 590 141 570 170 570 L170 570 Z " />
<glyph glyph-name="ring" unicode="&#x2da;" horiz-adv-x="340" d="M98 628 C98 672 127 702 170 702 C213 702 242 672 242 628 C242 588 209 553 170 553 C131 553 98 588 98 628 L98 628 Z M75 628 C75 578 119 535 170 535 C221 535 265 578 265 628 C265 683 227 720 170 720 C113 720 75 683 75 628 L75 628 Z " />
<glyph glyph-name="A_sc" unicode="&#x1d00;" horiz-adv-x="563" d="M354 0 L555 0 L555 15 C526 15 504 31 486 66 L278 567 L258 567 L76 67 C59 32 36 17 5 17 L5 2 L157 2 L157 17 L146 17 C112 17 97 44 108 85 L148 198 L348 198 L394 82 C410 43 398 17 364 17 L354 17 L354 0 L354 0 Z M340 218 L155 218 L242 464 L340 218 L340 218 Z " />
<glyph glyph-name="C_sc" unicode="&#x1d04;" horiz-adv-x="655" d="M595 343 L595 434 C582 508 487 558 359 558 C177 558 55 446 55 277 C55 108 177 -5 359 -5 C487 -5 582 45 595 119 L595 211 L582 211 C578 200 573 184 569 173 C538 83 463 20 381 16 L381 16 C374 16 367 16 360 16 C230 16 144 121 144 278 C144 435 230 539 360 539 C390 539 418 536 443 531 C495 514 544 456 569 382 C573 371 578 355 582 344 L595 343 L595 343 Z " />
<glyph glyph-name="D_sc" unicode="&#x1d05;" horiz-adv-x="628" d="M45 538 L53 538 C80 538 98 512 98 473 L98 80 C98 41 80 15 53 15 L45 15 L45 0 L285 0 C461 0 578 111 578 277 C578 443 450 553 258 553 L45 553 L45 538 L45 538 Z M178 20 L178 533 L258 533 C402 533 498 431 498 277 C498 123 413 20 285 20 L178 20 L178 20 Z " />
<glyph glyph-name="E_sc" unicode="&#x1d07;" horiz-adv-x="518" d="M448 116 L437 116 L427 101 C397 52 336 20 276 20 L175 20 L175 285 L240 285 C291 285 332 265 344 234 L348 225 L360 225 L360 358 L348 358 L344 350 C332 323 291 305 240 305 L175 305 L175 533 L270 533 C330 533 385 501 407 452 L414 437 L425 437 L425 553 L42 553 L42 538 L50 538 C77 538 95 512 95 473 L95 80 C95 41 77 15 50 15 L42 15 L42 0 L427 0 C434 35 441 80 448 116 L448 116 Z " />
<glyph glyph-name="J_sc" unicode="&#x1d0a;" horiz-adv-x="316" d="M276 553 L90 553 L90 538 L98 538 C125 538 143 512 143 473 L143 168 C143 51 132 6 105 6 C89 6 75 24 68 50 C63 69 49 82 32 82 C8 82 -5 69 0 50 C9 14 43 -10 85 -10 C184 -10 223 59 223 235 L223 473 C223 512 241 538 268 538 L276 538 L276 553 L276 553 Z " />
<glyph glyph-name="K_sc" unicode="&#x1d0b;" horiz-adv-x="573" d="M493 553 L377 553 L377 538 L383 538 C401 538 391 515 357 480 L234 356 L234 356 L178 298 L178 473 C178 512 196 538 223 538 L231 538 L231 553 L45 553 L45 538 L53 538 C80 538 98 512 98 473 L98 80 C98 41 80 15 53 15 L45 15 L45 0 L231 0 L231 15 L223 15 C196 15 178 41 178 80 L178 298 L191 281 C191 281 260 195 294 152 C384 39 451 -5 534 -5 L563 -5 L563 11 C518 11 465 64 348 210 C299 271 264 316 246 339 C289 384 332 429 376 473 C418 516 456 538 492 538 L493 553 L493 553 Z " />
<glyph glyph-name="M_sc" unicode="&#x1d0d;" horiz-adv-x="742" d="M704 554 L616 554 L616 553 L580 553 L388 89 L387 90 L175 553 L60 553 L60 538 L68 538 C94 538 111 512 109 473 L109 473 L91 71 C86 32 68 15 36 15 L36 0 L190 0 L190 15 L178 15 C144 15 120 40 116 78 L133 456 C205 302 278 149 350 -5 L370 -5 L583 493 L600 62 C596 28 579 14 550 14 L550 -1 L735 -1 L735 14 L727 14 C700 14 681 40 679 79 L679 79 L657 490 C660 524 676 538 705 538 L704 554 L704 554 Z " />
<glyph glyph-name="O_sc" unicode="&#x1d0f;" horiz-adv-x="699" d="M143 277 C143 418 214 538 352 538 C490 538 561 418 561 277 C561 136 490 15 352 15 C214 15 143 136 143 277 L143 277 Z M55 277 C55 125 156 -5 352 -5 C548 -5 649 125 649 277 C649 429 548 558 352 558 C156 558 55 429 55 277 L55 277 Z " />
<glyph glyph-name="P_sc" unicode="&#x1d18;" horiz-adv-x="501" d="M231 15 L223 15 C196 15 178 41 178 80 L178 248 L251 248 C389 248 481 309 481 400 C481 492 397 553 270 553 L45 553 L45 538 L53 538 C80 538 98 512 98 473 L98 80 C98 41 80 15 53 15 L45 15 L45 0 L231 0 L231 15 L231 15 Z M178 268 L178 533 L270 533 C346 533 397 480 397 400 C397 321 339 268 251 268 L178 268 L178 268 Z " />
<glyph glyph-name="T_sc" unicode="&#x1d1b;" horiz-adv-x="560" d="M539 553 L21 553 C17 515 13 466 10 427 L22 427 L36 453 C62 501 111 533 159 533 L240 533 L240 80 C240 41 222 15 195 15 L187 15 L187 0 L373 0 L373 15 L365 15 C338 15 320 41 320 80 L320 533 L401 533 C449 533 498 501 524 453 L538 427 L550 427 C547 466 543 515 539 553 L539 553 Z " />
<glyph glyph-name="U_sc" unicode="&#x1d1c;" horiz-adv-x="576" d="M556 553 L408 553 L408 538 L418 538 C450 538 472 508 472 463 L472 157 C472 77 426 23 308 23 C207 23 168 77 168 159 L168 473 C168 512 186 538 213 538 L221 538 L221 553 L35 553 L35 538 L43 538 C70 538 88 512 88 473 L88 175 C88 67 146 -5 296 -5 C440 -5 496 57 496 150 L496 463 C496 508 516 538 547 538 L556 538 L556 553 L556 553 Z " />
<glyph glyph-name="V_sc" unicode="&#x1d20;" horiz-adv-x="559" d="M204 553 L9 553 L9 538 C37 538 59 518 78 478 L293 -15 L313 -15 C369 148 424 311 481 473 C496 517 522 538 557 538 L557 553 L400 553 L400 538 L412 538 C449 538 465 508 454 461 L327 83 C274 213 220 343 167 473 C151 512 162 538 195 538 L205 538 L204 553 L204 553 Z " />
<glyph glyph-name="W_sc" unicode="&#x1d21;" horiz-adv-x="799" d="M794 553 L647 553 L647 538 L657 538 C691 538 707 515 699 479 L588 98 L430 563 L410 563 L272 92 L150 478 C141 514 153 538 182 538 L191 538 L191 553 L2 553 L2 538 C31 538 52 516 67 473 L67 473 L241 -15 L261 -15 L394 441 L555 -15 L575 -15 L722 479 C736 519 759 538 792 538 L794 553 L794 553 Z " />
<glyph glyph-name="Z_sc" unicode="&#x1d22;" horiz-adv-x="526" d="M453 127 L444 111 C416 57 362 21 308 21 L148 21 L470 553 L107 553 L104 543 C97 515 87 477 79 448 L91 448 L101 461 C137 504 194 533 242 533 L367 533 L46 0 L449 0 L451 10 L451 10 C457 44 465 88 471 122 C464 124 453 127 453 127 L453 127 Z " />
<glyph glyph-name="Wgrave" unicode="&#x1e80;" horiz-adv-x="931" d="M926 660 L776 660 L776 645 L786 645 C820 645 836 622 828 586 L693 122 L501 670 L478 670 L314 114 C264 269 213 424 163 579 C150 618 162 644 192 644 L201 644 L201 659 L2 659 L2 644 C31 644 52 622 67 579 L276 -16 L298 -16 L458 524 L653 -16 L675 -16 L854 585 C868 626 891 645 925 645 L926 660 L926 660 Z M406 868 C406 862 422 843 446 817 C478 776 562 690 562 690 L571 697 C571 697 519 808 487 849 C470 881 457 902 452 902 C438 902 406 878 406 868 L406 868 Z " />
<glyph glyph-name="Wacute" unicode="&#x1e82;" horiz-adv-x="931" d="M429 690 C429 690 511 777 542 817 C565 844 581 863 581 868 C581 878 549 902 535 902 C531 902 518 881 501 849 C470 809 420 697 420 697 L429 690 L429 690 Z M926 660 L776 660 L776 645 L786 645 C820 645 836 622 828 586 L693 122 L501 670 L478 670 L314 114 C264 269 213 424 163 579 C150 618 162 644 192 644 L201 644 L201 659 L2 659 L2 644 C31 644 52 622 67 579 L276 -16 L298 -16 L458 524 L653 -16 L675 -16 L854 585 C868 626 891 645 925 645 L926 660 L926 660 Z " />
<glyph glyph-name="Wdieresis" unicode="&#x1e84;" horiz-adv-x="931" d="M585 730 C614 730 634 750 634 779 C634 808 614 828 585 828 C556 828 536 808 536 779 C536 750 556 730 585 730 L585 730 Z M396 730 C425 730 445 750 445 779 C445 808 425 828 396 828 C367 828 347 808 347 779 C347 750 367 730 396 730 L396 730 Z M926 660 L776 660 L776 645 L786 645 C820 645 836 622 828 586 L693 122 L501 670 L478 670 L314 114 C264 269 213 424 163 579 C150 618 162 644 192 644 L201 644 L201 659 L2 659 L2 644 C31 644 52 622 67 579 L276 -16 L298 -16 L458 524 L653 -16 L675 -16 L854 585 C868 626 891 645 925 645 L926 660 L926 660 Z " />
<glyph glyph-name="Etilde" unicode="&#x1ebc;" horiz-adv-x="570" d="M139 755 C139 792 154 819 182 817 C235 817 305 754 357 754 C403 754 434 800 434 868 L421 868 C421 831 402 807 374 807 C322 807 252 870 199 870 C154 871 126 824 126 755 L139 755 L139 755 Z M412 281 L412 416 L400 416 L396 408 C384 381 343 363 292 363 L182 363 L182 638 L323 638 C383 638 438 606 460 557 L467 542 L478 542 L478 660 L40 660 L40 645 L48 645 C75 645 93 619 93 580 L93 80 C93 41 75 15 48 15 L40 15 L40 0 L480 0 L482 11 C488 43 495 86 501 118 L490 118 L480 103 C450 54 389 22 329 22 L182 22 L182 341 L292 341 C343 341 384 321 396 290 L400 281 L412 281 L412 281 Z " />
<glyph glyph-name="Ygrave" unicode="&#x1ef2;" horiz-adv-x="606" d="M223 868 C223 862 239 843 263 817 C295 776 379 690 379 690 L388 697 C388 697 336 808 304 849 C287 881 274 902 269 902 C255 902 223 878 223 868 L223 868 Z M216 660 L14 660 L14 645 C40 645 62 626 85 588 L260 275 L260 81 C260 42 242 16 215 16 L207 16 L207 1 L402 1 L402 16 L394 16 C367 16 349 42 349 81 L349 309 C349 309 502 558 516 581 C542 624 571 646 602 646 L602 661 L460 661 L460 646 L470 646 C504 646 509 616 484 570 L336 324 L195 580 C174 619 178 645 206 645 L215 645 L216 660 L216 660 Z " />
<glyph glyph-name="quoteleft" unicode="&#x2018;" horiz-adv-x="236" d="M118 421 C153 421 176 444 176 479 C176 519 142 547 99 534 C93 588 121 637 160 656 L154 668 C92 638 50 573 50 507 C50 464 73 421 118 421 L118 421 Z " />
<glyph glyph-name="quoteright" unicode="&#x2019;" horiz-adv-x="236" d="M118 665 C83 665 60 642 60 607 C60 567 94 539 137 552 C143 498 115 449 76 430 L82 418 C144 448 186 513 186 579 C186 622 163 665 118 665 L118 665 Z " />
<glyph glyph-name="quotedblleft" unicode="&#x201c;" horiz-adv-x="406" d="M288 421 C323 421 346 444 346 479 C346 519 312 547 269 534 C263 588 291 637 330 656 L324 668 C262 638 220 573 220 507 C220 464 243 421 288 421 L288 421 Z M118 421 C153 421 176 444 176 479 C176 519 142 547 99 534 C93 588 121 637 160 656 L154 668 C92 638 50 573 50 507 C50 464 73 421 118 421 L118 421 Z " />
<glyph glyph-name="quotedblright" unicode="&#x201d;" horiz-adv-x="406" d="M288 665 C253 665 230 642 230 607 C230 567 264 539 307 552 C313 498 285 449 246 430 L252 418 C314 448 356 513 356 579 C356 622 333 665 288 665 L288 665 Z M118 665 C83 665 60 642 60 607 C60 567 94 539 137 552 C143 498 115 449 76 430 L82 418 C144 448 186 513 186 579 C186 622 163 665 118 665 L118 665 Z " />
<glyph glyph-name="ellipsis" unicode="&#x2026;" horiz-adv-x="540" d="M450 0 C485 0 508 23 508 58 C508 93 485 116 450 116 C415 116 392 93 392 58 C392 23 415 0 450 0 L450 0 Z M270 0 C305 0 328 23 328 58 C328 93 305 116 270 116 C235 116 212 93 212 58 C212 23 235 0 270 0 L270 0 Z M90 0 C125 0 148 23 148 58 C148 93 125 116 90 116 C55 116 32 93 32 58 C32 23 55 0 90 0 L90 0 Z " />
<glyph glyph-name="perthousand" unicode="&#x2030;" horiz-adv-x="1138" d="M903 195 C903 289 928 351 965 351 C1017 351 1051 276 1051 163 C1051 78 1024 21 983 21 C935 21 903 91 903 195 L903 195 Z M824 180 C824 69 885 -5 976 -5 C1066 -5 1126 73 1126 191 C1126 301 1066 375 976 375 C885 375 824 297 824 180 L824 180 Z M109 547 C109 639 134 701 171 701 C223 701 257 627 257 515 C257 429 230 371 189 371 C141 371 109 441 109 547 L109 547 Z M30 531 C30 419 91 345 182 345 C272 345 332 424 332 542 C332 652 272 725 182 725 C91 725 30 647 30 531 L30 531 Z M551 195 C551 289 578 351 618 351 C676 351 714 276 714 163 C714 78 683 21 636 21 C585 21 551 91 551 195 L551 195 Z M472 180 C472 69 535 -5 629 -5 C725 -5 789 73 789 191 C789 301 725 375 629 375 C535 375 472 297 472 180 L472 180 Z M199 -11 L664 709 L629 731 L164 11 L199 -11 L199 -11 Z " />
<glyph glyph-name="guilsinglleft" unicode="&#x2039;" horiz-adv-x="296" d="M102 251 L249 456 L240 465 L20 256 L20 247 L242 37 L251 46 L102 251 L102 251 Z " />
<glyph glyph-name="guilsinglright" unicode="&#x203a;" horiz-adv-x="296" d="M54 37 L276 247 L276 256 L56 465 L47 456 L194 251 L45 46 L54 37 L54 37 Z " />
<glyph glyph-name="fraction" unicode="&#x2044;" horiz-adv-x="489" d="M48 -11 L513 709 L477 731 L12 11 L48 -11 L48 -11 Z " />
<glyph glyph-name="Euro" unicode="&#x20ac;" horiz-adv-x="761" d="M688 211 C684 200 679 186 675 175 C647 94 581 34 508 20 C487 17 464 16 440 16 C317 16 229 106 205 247 L484 247 L492 304 L199 304 C198 320 198 337 199 353 L492 353 L500 410 L205 410 C229 551 317 641 440 641 C453 641 538 636 537 632 C593 621 648 562 676 483 C680 472 685 458 689 447 L702 447 L702 539 L691 537 L702 539 C689 613 584 663 440 663 C266 663 141 565 109 410 L59 410 L51 353 L102 353 C101 337 101 320 102 304 L51 304 L43 247 L109 247 C141 92 266 -6 440 -6 C584 -6 689 44 702 118 L691 120 L702 118 L702 210 L688 211 L688 211 Z " />
<glyph glyph-name="F_sc" unicode="&#xa730;" horiz-adv-x="455" d="M42 538 L50 538 C77 538 95 512 95 473 L95 80 C95 41 77 15 50 15 L42 15 L42 0 L238 0 L238 15 L229 15 C197 15 175 41 175 80 L175 281 L230 281 C281 281 322 261 334 230 L338 221 L350 221 L350 354 L338 354 L334 346 C322 319 281 301 230 301 L175 301 L175 533 L300 533 C360 533 415 501 437 452 L444 437 L455 437 L455 553 L42 553 L42 538 L42 538 Z " />
<glyph glyph-name="S_sc" unicode="&#xa731;" horiz-adv-x="444" d="M365 352 L365 445 C353 513 294 558 218 558 C115 558 47 493 47 395 C47 333 103 274 188 247 C280 218 342 166 342 117 C342 50 286 10 207 15 C149 21 92 80 63 165 C59 176 54 191 50 202 L37 202 L37 109 C49 41 123 -5 222 -5 C328 -5 398 57 398 149 C398 214 337 277 246 306 C160 333 102 382 102 427 C102 502 162 553 243 536 C273 530 303 494 319 446 C328 418 342 380 351 352 L365 352 L365 352 Z " />
<glyph glyph-name="X_sc" unicode="&#xf078;" horiz-adv-x="579" d="M47 0 L194 0 L194 15 L184 15 C151 15 145 42 167 83 L270 250 C307 194 345 137 382 81 C408 42 404 16 373 16 L364 16 L364 1 L556 1 L556 16 C532 16 511 31 486 63 C429 149 371 236 314 322 C350 372 386 423 422 473 C453 516 485 538 521 538 L521 553 L374 553 L374 538 L384 538 C414 538 423 517 405 485 L304 337 L214 473 C188 512 192 538 223 538 L232 538 L232 553 L41 553 L41 538 C65 538 86 523 111 491 L260 265 L132 64 C105 30 79 15 47 15 L47 0 L47 0 Z " />
</font>
</svg>
